<svg width="1209" height="5552" viewBox="0 0 1209 5552" fill="none" xmlns="http://www.w3.org/2000/svg"><path fill="#000" d="M8.62415 0h1200.38v5550.55H8.62415z"/><path d="M9.95803.00048828L9.95801 5552H1209V.00052613L9.95803.00048828z" fill="#000"/><ellipse rx="2.11826" ry="4.98557" transform="matrix(-.99995 -.01043 .01208 -.99993 916.734 3615.75)" fill="#fff"/><ellipse rx="2.11826" ry="4.98557" transform="matrix(.99995 .01043 .01208 -.99993 510.215 2021.09)" fill="#fff"/><ellipse rx="2.11826" ry="4.98557" transform="matrix(-.99995 -.01043 -.01208 .99993 267.111 1933.8)" fill="#fff"/><ellipse rx="2.11826" ry="4.98557" transform="matrix(-.99995 -.01043 .01208 -.99993 955.38 3222.29)" fill="#fff"/><ellipse rx="2.11826" ry="4.98557" transform="matrix(.99995 .01043 .01208 -.99993 604.574 1224.38)" fill="#fff"/><ellipse rx="2.11826" ry="4.98557" transform="matrix(-.99995 -.01043 -.01208 .99993 172.752 2730.52)" fill="#fff"/><ellipse rx="2.11826" ry="4.98557" transform="matrix(.99995 .01043 .01208 -.99993 578.797 2305.99)" fill="#fff"/><ellipse rx="2.11826" ry="4.98557" transform="matrix(-.99995 -.01043 -.01208 .99993 176.952 2177.44)" fill="#fff"/><ellipse rx="2.11826" ry="4.98557" transform="matrix(-.99995 -.01043 .01208 -.99993 1003.2 316.162)" fill="#fff"/><ellipse rx="2.11826" ry="4.98557" transform="matrix(-.99995 -.01043 .01208 -.99993 728.788 3917.91)" fill="#fff"/><ellipse rx="2.11826" ry="4.98557" transform="matrix(.99995 .01043 .01208 -.99993 441.523 1920.67)" fill="#fff"/><ellipse rx="2.11826" ry="4.98557" transform="matrix(-.99995 -.01043 -.01208 .99993 335.803 2034.23)" fill="#fff"/><ellipse rx="2.11826" ry="4.98557" transform="matrix(-.99995 -.01043 .01208 -.99993 599.967 3183.68)" fill="#fff"/><ellipse rx="2.11826" ry="4.98557" transform="matrix(.99995 .01043 -.01208 .99993 177.359 771.216)" fill="#fff"/><ellipse rx="2.11826" ry="4.98557" transform="matrix(.99995 .01043 .01208 -.99993 1151.87 2037.76)" fill="#fff"/><ellipse rx="2.11826" ry="4.98557" transform="matrix(.99995 .01043 .01208 -.99993 982.925 2345.1)" fill="#fff"/><ellipse rx="2.11826" ry="4.98557" transform="matrix(-.99995 -.01043 .01208 -.99993 598.229 346.839)" fill="#fff"/><ellipse rx="2.11826" ry="4.98557" transform="matrix(.99995 .01043 -.01208 .99993 179.096 3608.06)" fill="#fff"/><ellipse rx="2.11826" ry="4.98557" transform="matrix(-.99995 -.01043 .01208 -.99993 1123.92 3298.83)" fill="#fff"/><ellipse rx="2.11826" ry="4.98557" transform="matrix(.99995 .01043 .01208 -.99993 476.958 1442.41)" fill="#fff"/><ellipse rx="2.11826" ry="4.98557" transform="matrix(-.99995 -.01043 -.01208 .99993 300.368 2512.48)" fill="#fff"/><ellipse rx="2.11826" ry="4.98557" transform="matrix(.99995 .01043 .01208 -.99993 444.866 2169.98)" fill="#fff"/><ellipse rx="2.11826" ry="4.98557" transform="matrix(-.99995 -.01043 -.01208 .99993 332.46 1784.92)" fill="#fff"/><ellipse rx="2.11826" ry="4.98557" transform="matrix(.99995 .01043 .01208 -.99993 401.531 2074.8)" fill="#fff"/><ellipse rx="2.11826" ry="4.98557" transform="matrix(-.99995 -.01043 -.01208 .99993 375.795 1880.09)" fill="#fff"/><ellipse rx="2.11826" ry="4.98557" transform="matrix(.99995 .01043 .01208 -.99993 451.18 2524.03)" fill="#fff"/><ellipse rx="2.11826" ry="4.98557" transform="matrix(-.99995 -.01043 -.01208 .99993 326.146 1430.87)" fill="#fff"/><ellipse rx="2.11826" ry="4.98557" transform="matrix(-.99995 -.01043 .01208 -.99993 1083.16 536.364)" fill="#fff"/><ellipse rx="2.11826" ry="4.98557" transform="matrix(-.99995 -.01043 .01208 -.99993 915.177 2867.89)" fill="#fff"/><ellipse rx="2.11826" ry="4.98557" transform="matrix(.99995 .01043 .01208 -.99993 653.329 870.905)" fill="#fff"/><ellipse rx="2.11826" ry="4.98557" transform="matrix(-.99995 -.01043 -.01208 .99993 123.997 3083.99)" fill="#fff"/><ellipse rx="2.11826" ry="4.98557" transform="matrix(-.99995 -.01043 .01208 -.99993 892.249 3012.23)" fill="#fff"/><ellipse rx="2.11826" ry="4.98557" transform="matrix(.99995 .01043 .01208 -.99993 672.763 1015.69)" fill="#fff"/><ellipse rx="2.11826" ry="4.98557" transform="matrix(-.99995 -.01043 -.01208 .99993 104.563 2939.21)" fill="#fff"/><ellipse rx="2.11826" ry="4.98557" transform="matrix(-.99995 -.01043 .01208 -.99993 833.175 2817.18)" fill="#fff"/><ellipse rx="2.11826" ry="4.98557" transform="matrix(.99995 .01043 .01208 -.99993 736.536 821.916)" fill="#fff"/><ellipse rx="2.11826" ry="4.98557" transform="matrix(-.99995 -.01043 -.01208 .99993 40.79 3132.98)" fill="#fff"/><ellipse rx="2.11826" ry="4.98557" transform="matrix(-.99995 -.01043 .01208 -.99993 800.742 2871.68)" fill="#fff"/><ellipse rx="2.11826" ry="4.98557" transform="matrix(.99995 .01043 .01208 -.99993 767.644 877.083)" fill="#fff"/><ellipse rx="2.11826" ry="4.98557" transform="matrix(-.99995 -.01043 .01208 -.99993 996.898 3292.52)" fill="#fff"/><ellipse rx="2.11826" ry="4.98557" transform="matrix(.99995 .01043 .01208 -.99993 468.174 1292.75)" fill="#fff"/><ellipse rx="2.11826" ry="4.98557" transform="matrix(-.99995 -.01043 -.01208 .99993 309.152 2662.15)" fill="#fff"/><ellipse rx="2.11826" ry="4.98557" transform="matrix(-.99995 -.01043 .01208 -.99993 1101.93 3891.89)" fill="#fff"/><ellipse rx="2.11826" ry="4.98557" transform="matrix(.99995 .01043 .01208 -.99993 418.124 1227.42)" fill="#fff"/><ellipse rx="2.11826" ry="4.98557" transform="matrix(-.99995 -.01043 -.01208 .99993 359.202 2727.48)" fill="#fff"/><ellipse rx="2.11826" ry="4.98557" transform="matrix(-.99995 -.01043 .01208 -.99993 931.851 3416.48)" fill="#fff"/><ellipse rx="2.11826" ry="4.98557" transform="matrix(.99995 .01043 .01208 -.99993 634.658 1364.29)" fill="#fff"/><ellipse rx="2.11826" ry="4.98557" transform="matrix(-.99995 -.01043 -.01208 .99993 142.667 2590.61)" fill="#fff"/><ellipse rx="2.11826" ry="4.98557" transform="matrix(-.99995 -.01043 .01208 -.99993 968.37 3900.47)" fill="#fff"/><ellipse rx="2.11826" ry="4.98557" transform="matrix(.99995 .01043 .01208 -.99993 575.202 1902.12)" fill="#fff"/><ellipse rx="2.11826" ry="4.98557" transform="matrix(-.99995 -.01043 -.01208 .99993 358.983 3638.89)" fill="#fff"/><ellipse rx="2.11826" ry="4.98557" transform="matrix(-.99995 -.01043 .01208 -.99993 755.871 3429.6)" fill="#fff"/><ellipse rx="2.11826" ry="4.98557" transform="matrix(.99995 .01043 .01208 -.99993 799.023 1435.8)" fill="#fff"/><ellipse rx="2.11826" ry="4.98557" transform="matrix(-.99995 -.01043 .01208 -.99993 544.848 3362.59)" fill="#fff"/><ellipse rx="2.11826" ry="4.98557" transform="matrix(.99995 .01043 -.01208 .99993 232.479 592.308)" fill="#fff"/><ellipse rx="2.11826" ry="4.98557" transform="matrix(.99995 .01043 .01208 -.99993 1011.61 1373.2)" fill="#fff"/><ellipse rx="2.11826" ry="4.98557" transform="matrix(-.99995 -.01043 .01208 -.99993 1010.37 2878.85)" fill="#fff"/><ellipse rx="2.11826" ry="4.98557" transform="matrix(.99995 .01043 .01208 -.99993 557.896 879.881)" fill="#fff"/><ellipse rx="2.11826" ry="4.98557" transform="matrix(-.99995 -.01043 -.01208 .99993 219.43 3075.02)" fill="#fff"/><ellipse rx="2.11826" ry="4.98557" transform="matrix(-.99995 -.01043 .01208 -.99993 743.624 3040.6)" fill="#fff"/><ellipse rx="2.11826" ry="4.98557" transform="matrix(.99995 .01043 .01208 -.99993 820.666 1047.15)" fill="#fff"/><ellipse rx="2.11826" ry="4.98557" transform="matrix(-.99995 -.01043 .01208 -.99993 876.59 3256.37)" fill="#fff"/><ellipse rx="2.11826" ry="4.98557" transform="matrix(.99995 .01043 .01208 -.99993 560.586 1358.53)" fill="#fff"/><ellipse rx="2.11826" ry="4.98557" transform="matrix(-.99995 -.01043 -.01208 .99993 216.74 2596.37)" fill="#fff"/><ellipse rx="2.11826" ry="4.98557" transform="matrix(-.99995 -.01043 .01208 -.99993 1148.04 2880.29)" fill="#fff"/><ellipse rx="2.11826" ry="4.98557" transform="matrix(.99995 .01043 .01208 -.99993 420.222 878.446)" fill="#fff"/><ellipse rx="2.11826" ry="4.98557" transform="matrix(-.99995 -.01043 -.01208 .99993 357.104 3076.45)" fill="#fff"/><ellipse rx="2.11826" ry="4.98557" transform="matrix(-.99995 -.01043 .01208 -.99993 395.599 3091.81)" fill="#fff"/><ellipse rx="2.11826" ry="4.98557" transform="matrix(.99995 .01043 -.01208 .99993 381.727 863.088)" fill="#fff"/><ellipse rx="2.11826" ry="4.98557" transform="matrix(.99995 .01043 .01208 -.99993 1167.37 1105.6)" fill="#fff"/><ellipse rx="2.11826" ry="4.98557" transform="matrix(-.99995 -.01043 .01208 -.99993 417.131 2887.62)" fill="#fff"/><ellipse rx="2.11826" ry="4.98557" transform="matrix(.99995 .01043 -.01208 .99993 360.195 1067.27)" fill="#fff"/><ellipse rx="2.11826" ry="4.98557" transform="matrix(.99995 .01043 .01208 -.99993 1150.77 901.02)" fill="#fff"/><ellipse rx="2.11826" ry="4.98557" transform="matrix(.99995 .01043 .01208 -.99993 499.584 2374.96)" fill="#fff"/><ellipse rx="2.11826" ry="4.98557" transform="matrix(-.99995 -.01043 -.01208 .99993 277.742 1579.94)" fill="#fff"/><ellipse rx="2.11826" ry="4.98557" transform="matrix(-.99995 -.01043 .01208 -.99993 1080.73 386.769)" fill="#fff"/><ellipse rx="2.11826" ry="4.98557" transform="matrix(-.99995 -.01043 .01208 -.99993 701.474 3548.69)" fill="#fff"/><ellipse rx="2.11826" ry="4.98557" transform="matrix(.99995 .01043 -.01208 .99993 75.8522 406.206)" fill="#fff"/><ellipse rx="2.11826" ry="4.98557" transform="matrix(.99995 .01043 .01208 -.99993 824.752 2637.61)" fill="#fff"/><ellipse rx="2.11826" ry="4.98557" transform="matrix(-.99995 -.01043 .01208 -.99993 749.294 642.566)" fill="#fff"/><ellipse rx="2.11826" ry="4.98557" transform="matrix(.99995 .01043 -.01208 .99993 28.0322 3312.33)" fill="#fff"/><ellipse rx="2.11826" ry="4.98557" transform="matrix(-.99995 -.01043 .01208 -.99993 667.614 3019.86)" fill="#fff"/><ellipse rx="2.11826" ry="4.98557" transform="matrix(.99995 .01043 -.01208 .99993 109.711 935.037)" fill="#fff"/><ellipse rx="2.11826" ry="4.98557" transform="matrix(.99995 .01043 .01208 -.99993 897.157 1028)" fill="#fff"/><ellipse rx="2.11826" ry="4.98557" transform="matrix(.99995 .01043 .01208 -.99993 899.878 2030.14)" fill="#fff"/><ellipse rx="2.11826" ry="4.98557" transform="matrix(-.99995 -.01043 .01208 -.99993 605.417 102.618)" fill="#fff"/><ellipse rx="2.11826" ry="4.98557" transform="matrix(.99995 .01043 -.01208 .99993 171.91 3852.28)" fill="#fff"/><ellipse rx="2.11826" ry="4.98557" transform="matrix(.99995 .01043 .01208 -.99993 833.977 2049.4)" fill="#fff"/><ellipse rx="2.11826" ry="4.98557" transform="matrix(-.99995 -.01043 .01208 -.99993 754.283 54.3136)" fill="#fff"/><ellipse rx="2.11826" ry="4.98557" transform="matrix(.99995 .01043 -.01208 .99993 23.043 3900.59)" fill="#fff"/><ellipse rx="2.11826" ry="4.98557" transform="matrix(.99995 .01043 .01208 -.99993 635 2037.35)" fill="#fff"/><ellipse rx="2.11826" ry="4.98557" transform="matrix(-.99995 -.01043 -.01208 .99993 291.025 3478.91)" fill="#fff"/><ellipse rx="2.11826" ry="4.98557" transform="matrix(-.99995 -.01043 .01208 -.99993 953.502 46.4196)" fill="#fff"/><ellipse rx="2.11826" ry="4.98557" transform="matrix(.99995 .01043 .01208 -.99993 423.816 2334.29)" fill="#fff"/><ellipse rx="2.11826" ry="4.98557" transform="matrix(-.99995 -.01043 -.01208 .99993 353.51 1620.61)" fill="#fff"/><ellipse rx="2.11826" ry="4.98557" transform="matrix(-.99995 -.01043 .01208 -.99993 1157.46 347.684)" fill="#fff"/><ellipse rx="2.11826" ry="4.98557" transform="matrix(.99995 .01043 .01208 -.99993 401.551 2423.8)" fill="#fff"/><ellipse rx="2.11826" ry="4.98557" transform="matrix(-.99995 -.01043 -.01208 .99993 375.774 1531.1)" fill="#fff"/><ellipse rx="2.11826" ry="4.98557" transform="matrix(-.99995 -.01043 .01208 -.99993 1177.55 437.635)" fill="#fff"/><ellipse rx="2.11826" ry="4.98557" transform="matrix(.99995 .01043 .01208 -.99993 898.925 2284.4)" fill="#fff"/><ellipse rx="2.11826" ry="4.98557" transform="matrix(-.99995 -.01043 .01208 -.99993 683.674 287.902)" fill="#fff"/><ellipse rx="2.11826" ry="4.98557" transform="matrix(.99995 .01043 -.01208 .99993 93.652 3667)" fill="#fff"/><ellipse rx="2.11826" ry="4.98557" transform="matrix(.99995 .01043 .01208 -.99993 702.066 2272.38)" fill="#fff"/><ellipse rx="2.11826" ry="4.98557" transform="matrix(-.99995 -.01043 -.01208 .99993 121.683 1701.67)" fill="#fff"/><ellipse rx="2.11826" ry="4.98557" transform="matrix(-.99995 -.01043 .01208 -.99993 880.775 279.986)" fill="#fff"/><ellipse rx="2.11826" ry="4.98557" transform="matrix(-.99995 -.01043 .01208 -.99993 987.724 3701.25)" fill="#fff"/><ellipse rx="2.11826" ry="4.98557" transform="matrix(.99995 .01043 .01208 -.99993 543.11 1577.72)" fill="#fff"/><ellipse rx="2.11826" ry="4.98557" transform="matrix(-.99995 -.01043 -.01208 .99993 234.216 2377.18)" fill="#fff"/><ellipse rx="2.11826" ry="4.98557" transform="matrix(-.99995 -.01043 .01208 -.99993 1000.39 3003.39)" fill="#fff"/><ellipse rx="2.11826" ry="4.98557" transform="matrix(.99995 .01043 .01208 -.99993 564.863 1004.6)" fill="#fff"/><ellipse rx="2.11826" ry="4.98557" transform="matrix(-.99995 -.01043 -.01208 .99993 212.463 2950.3)" fill="#fff"/><ellipse rx="2.11826" ry="4.98557" transform="matrix(.99995 .01043 .01208 -.99993 762.547 1823.23)" fill="#fff"/><ellipse rx="2.11826" ry="4.98557" transform="matrix(-.99995 -.01043 -.01208 .99993 105.175 2011.89)" fill="#fff"/><ellipse rx="2.11826" ry="4.98557" transform="matrix(-.99995 -.01043 .01208 -.99993 1008.45 56.9641)" fill="#fff"/><ellipse rx="2.11826" ry="4.98557" transform="matrix(.99995 .01043 .01208 -.99993 568.999 2415.57)" fill="#fff"/><ellipse rx="2.11826" ry="4.98557" transform="matrix(-.99995 -.01043 -.01208 .99993 208.327 1539.33)" fill="#fff"/><ellipse rx="2.11826" ry="4.98557" transform="matrix(-.99995 -.01043 .01208 -.99993 1010.35 425.92)" fill="#fff"/><ellipse rx="2.11826" ry="4.98557" transform="matrix(.99995 .01043 .01208 -.99993 508.067 2549.55)" fill="#fff"/><ellipse rx="2.11826" ry="4.98557" transform="matrix(-.99995 -.01043 -.01208 .99993 299.54 19.423)" fill="#fff"/><ellipse rx="2.11826" ry="4.98557" transform="matrix(-.99995 -.01043 .01208 -.99993 1135.5 586.765)" fill="#fff"/><ellipse rx="2.11826" ry="4.98557" transform="matrix(.99995 .01043 .01208 -.99993 608.54 2824.81)" fill="#fff"/><ellipse rx="2.11826" ry="4.98557" transform="matrix(-.99995 -.01043 -.01208 .99993 168.787 1130.09)" fill="#fff"/><ellipse rx="2.11826" ry="4.98557" transform="matrix(-.99995 -.01043 .01208 -.99993 960.93 834.227)" fill="#fff"/><ellipse rx="2.11826" ry="4.98557" transform="matrix(-.99995 -.01043 .01208 -.99993 692.71 3748.03)" fill="#fff"/><ellipse rx="2.11826" ry="4.98557" transform="matrix(.99995 .01043 -.01208 .99993 84.6159 206.873)" fill="#fff"/><ellipse rx="2.11826" ry="4.98557" transform="matrix(.99995 .01043 .01208 -.99993 876.088 1895.28)" fill="#fff"/><ellipse rx="2.11826" ry="4.98557" transform="matrix(-.99995 -.01043 .01208 -.99993 611.842 3428.1)" fill="#fff"/><ellipse rx="2.11826" ry="4.98557" transform="matrix(.99995 .01043 -.01208 .99993 165.483 526.797)" fill="#fff"/><ellipse rx="2.11826" ry="4.98557" transform="matrix(.99995 .01043 .01208 -.99993 898.995 1401.94)" fill="#fff"/><ellipse rx="2.11826" ry="4.98557" transform="matrix(.99995 .01043 .01208 -.99993 917.275 2518.92)" fill="#fff"/><ellipse rx="2.11826" ry="4.98557" transform="matrix(-.99995 -.01043 .01208 -.99993 659.663 521.977)" fill="#fff"/><ellipse rx="2.11826" ry="4.98557" transform="matrix(.99995 .01043 -.01208 .99993 117.663 3432.92)" fill="#fff"/><ellipse rx="2.11826" ry="4.98557" transform="matrix(-.99995 -.01043 .01208 -.99993 836.478 3420.47)" fill="#fff"/><ellipse rx="2.11826" ry="4.98557" transform="matrix(.99995 .01043 .01208 -.99993 718.658 1424.99)" fill="#fff"/><ellipse rx="2.11826" ry="4.98557" transform="matrix(-.99995 -.01043 -.01208 .99993 58.6681 2529.91)" fill="#fff"/><ellipse rx="2.11826" ry="4.98557" transform="matrix(.99995 .01043 .01208 -.99993 713.097 2586.59)" fill="#fff"/><ellipse rx="2.11826" ry="4.98557" transform="matrix(-.99995 -.01043 -.01208 .99993 64.2281 1368.31)" fill="#fff"/><ellipse rx="2.11826" ry="4.98557" transform="matrix(-.99995 -.01043 .01208 -.99993 862.154 593.887)" fill="#fff"/><ellipse rx="2.11826" ry="4.98557" transform="matrix(-.99995 -.01043 .01208 -.99993 764.875 3210.33)" fill="#fff"/><ellipse rx="2.11826" ry="4.98557" transform="matrix(.99995 .01043 .01208 -.99993 795.32 1216.39)" fill="#fff"/><ellipse rx="2.11826" ry="4.98557" transform="matrix(.99995 .01043 .01208 -.99993 769.542 2298.01)" fill="#fff"/><ellipse rx="2.11826" ry="4.98557" transform="matrix(-.99995 -.01043 .01208 -.99993 812.696 304.205)" fill="#fff"/><ellipse rx="2.11826" ry="4.98557" transform="matrix(-.99995 -.01043 .01208 -.99993 443.753 3840.16)" fill="#fff"/><ellipse rx="2.11826" ry="4.98557" transform="matrix(.99995 .01043 -.01208 .99993 333.574 114.741)" fill="#fff"/><ellipse rx="2.11826" ry="4.98557" transform="matrix(.99995 .01043 .01208 -.99993 1101.14 1852.76)" fill="#fff"/><ellipse rx="2.11826" ry="4.98557" transform="matrix(-.99995 -.01043 .01208 -.99993 414.14 3485.87)" fill="#fff"/><ellipse rx="2.11826" ry="4.98557" transform="matrix(.99995 .01043 -.01208 .99993 363.186 469.03)" fill="#fff"/><ellipse rx="2.11826" ry="4.98557" transform="matrix(.99995 .01043 .01208 -.99993 1139.31 1499.18)" fill="#fff"/><ellipse rx="2.11826" ry="4.98557" transform="matrix(.99995 .01043 .01208 -.99993 1113.53 2580.79)" fill="#fff"/><ellipse rx="2.11826" ry="4.98557" transform="matrix(-.99995 -.01043 .01208 -.99993 461.96 579.743)" fill="#fff"/><ellipse rx="2.11826" ry="4.98557" transform="matrix(.99995 .01043 -.01208 .99993 315.366 3375.16)" fill="#fff"/><ellipse rx="2.11826" ry="4.98557" transform="matrix(-.99995 -.01043 .01208 -.99993 842.962 3585.07)" fill="#fff"/><ellipse rx="2.11826" ry="4.98557" transform="matrix(.99995 .01043 .01208 -.99993 708.199 1589.41)" fill="#fff"/><ellipse rx="2.11826" ry="4.98557" transform="matrix(-.99995 -.01043 -.01208 .99993 69.128 2365.49)" fill="#fff"/><ellipse rx="2.11826" ry="4.98557" transform="matrix(.99995 .01043 .01208 -.99993 741.004 2731.46)" fill="#fff"/><ellipse rx="2.11826" ry="4.98557" transform="matrix(-.99995 -.01043 .01208 -.99993 830.754 738.143)" fill="#fff"/><ellipse rx="2.11826" ry="4.98557" transform="matrix(.99995 .01043 .01208 -.99993 654.946 2665.75)" fill="#fff"/><ellipse rx="2.11826" ry="4.98557" transform="matrix(-.99995 -.01043 -.01208 .99993 122.38 1289.15)" fill="#fff"/><ellipse rx="2.11826" ry="4.98557" transform="matrix(-.99995 -.01043 .01208 -.99993 886.367 693.852)" fill="#fff"/><ellipse rx="2.11826" ry="4.98557" transform="matrix(.99995 .01043 .01208 -.99993 528.415 2794.06)" fill="#fff"/><ellipse rx="2.11826" ry="4.98557" transform="matrix(-.99995 -.01043 -.01208 .99993 248.911 1160.84)" fill="#fff"/><ellipse rx="2.11826" ry="4.98557" transform="matrix(-.99995 -.01043 .01208 -.99993 1041.78 805.156)" fill="#fff"/><ellipse rx="2.11826" ry="4.98557" transform="matrix(.99995 .01043 .01208 -.99993 412.915 3236.57)" fill="#fff"/><ellipse rx="2.11826" ry="4.98557" transform="matrix(-.99995 -.01043 -.01208 .99993 364.411 718.325)" fill="#fff"/><ellipse rx="2.11826" ry="4.98557" transform="matrix(-.99995 -.01043 .01208 -.99993 427.71 1661.27)" fill="#fff"/><ellipse rx="2.11826" ry="4.98557" transform="matrix(.99995 .01043 -.01208 .99993 349.615 2293.63)" fill="#fff"/><ellipse rx="2.11826" ry="4.98557" transform="matrix(.99995 .01043 .01208 -.99993 464.642 2987.83)" fill="#fff"/><ellipse rx="2.11826" ry="4.98557" transform="matrix(-.99995 -.01043 -.01208 .99993 312.684 967.067)" fill="#fff"/><ellipse rx="2.11826" ry="4.98557" transform="matrix(-.99995 -.01043 .01208 -.99993 1099.24 1309.3)" fill="#fff"/><ellipse rx="2.11826" ry="4.98557" transform="matrix(.99995 .01043 .01208 -.99993 440.239 2728.32)" fill="#fff"/><ellipse rx="2.11826" ry="4.98557" transform="matrix(-.99995 -.01043 -.01208 .99993 337.087 1226.57)" fill="#fff"/><ellipse rx="2.11826" ry="4.98557" transform="matrix(-.99995 -.01043 .01208 -.99993 1084.02 815.568)" fill="#fff"/><ellipse rx="2.11826" ry="4.98557" transform="matrix(-.99995 -.01043 .01208 -.99993 783.987 3031.05)" fill="#fff"/><ellipse rx="2.11826" ry="4.98557" transform="matrix(.99995 .01043 .01208 -.99993 780.543 1036.76)" fill="#fff"/><ellipse rx="2.11826" ry="4.98557" transform="matrix(.99995 .01043 .01208 -.99993 772.855 2023.83)" fill="#fff"/><ellipse rx="2.11826" ry="4.98557" transform="matrix(-.99995 -.01043 .01208 -.99993 816.008 30.0293)" fill="#fff"/><ellipse rx="2.11826" ry="4.98557" transform="matrix(-.99995 -.01043 .01208 -.99993 547.949 3631.85)" fill="#fff"/><ellipse rx="2.11826" ry="4.98557" transform="matrix(.99995 .01043 -.01208 .99993 229.377 323.051)" fill="#fff"/><ellipse rx="2.11826" ry="4.98557" transform="matrix(.99995 .01043 .01208 -.99993 1011.14 1587.58)" fill="#fff"/><ellipse rx="2.11826" ry="4.98557" transform="matrix(.99995 .01043 .01208 -.99993 1047.22 2809.44)" fill="#fff"/><ellipse rx="2.11826" ry="4.98557" transform="matrix(-.99995 -.01043 .01208 -.99993 519.057 61.8327)" fill="#fff"/><ellipse rx="2.11826" ry="4.98557" transform="matrix(.99995 .01043 -.01208 .99993 258.269 3893.07)" fill="#fff"/><ellipse rx="2.11826" ry="4.98557" transform="matrix(-.99995 -.01043 .01208 -.99993 514.09 3103.02)" fill="#fff"/><ellipse rx="2.11826" ry="4.98557" transform="matrix(.99995 .01043 -.01208 .99993 263.236 851.882)" fill="#fff"/><ellipse rx="2.11826" ry="4.98557" transform="matrix(.99995 .01043 .01208 -.99993 1048.63 1114.34)" fill="#fff"/><ellipse rx="2.11826" ry="4.98557" transform="matrix(.99995 .01043 .01208 -.99993 1050.63 2176.3)" fill="#fff"/><ellipse rx="2.11826" ry="4.98557" transform="matrix(-.99995 -.01043 .01208 -.99993 534.616 176.665)" fill="#fff"/><ellipse rx="2.11826" ry="4.98557" transform="matrix(.99995 .01043 -.01208 .99993 242.709 3778.24)" fill="#fff"/><ellipse rx="2.11826" ry="4.98557" transform="matrix(-.99995 -.01043 .01208 -.99993 834.199 3784.4)" fill="#fff"/><ellipse rx="2.11826" ry="4.98557" transform="matrix(.99995 .01043 .01208 -.99993 613.608 1528.59)" fill="#fff"/><ellipse rx="2.11826" ry="4.98557" transform="matrix(-.99995 -.01043 -.01208 .99993 163.718 2426.3)" fill="#fff"/><ellipse rx="2.11826" ry="4.98557" transform="matrix(-.99995 -.01043 .01208 -.99993 862.487 3196.39)" fill="#fff"/><ellipse rx="2.11826" ry="4.98557" transform="matrix(.99995 .01043 .01208 -.99993 698.069 1200.42)" fill="#fff"/><ellipse rx="2.11826" ry="4.98557" transform="matrix(-.99995 -.01043 -.01208 .99993 79.2562 2754.48)" fill="#fff"/><ellipse rx="2.11826" ry="4.98557" transform="matrix(.99995 .01043 .01208 -.99993 668.267 1913.63)" fill="#fff"/><ellipse rx="2.11826" ry="4.98557" transform="matrix(-.99995 -.01043 -.01208 .99993 168.504 1866.65)" fill="#fff"/><ellipse rx="2.11826" ry="4.98557" transform="matrix(-.99995 -.01043 .01208 -.99993 910.307 290.265)" fill="#fff"/><ellipse rx="2.11826" ry="4.98557" transform="matrix(-.99995 -.01043 .01208 -.99993 572.171 3906.31)" fill="#fff"/><ellipse rx="2.11826" ry="4.98557" transform="matrix(.99995 .01043 -.01208 .99993 205.154 48.5886)" fill="#fff"/><ellipse rx="2.11826" ry="4.98557" transform="matrix(.99995 .01043 .01208 -.99993 971.16 1916.22)" fill="#fff"/><ellipse rx="2.11826" ry="4.98557" transform="matrix(-.99995 -.01043 .01208 -.99993 478.093 3277.14)" fill="#fff"/><ellipse rx="2.11826" ry="4.98557" transform="matrix(.99995 .01043 -.01208 .99993 299.233 677.76)" fill="#fff"/><ellipse rx="2.11826" ry="4.98557" transform="matrix(.99995 .01043 .01208 -.99993 986.668 1158.56)" fill="#fff"/><ellipse rx="2.11826" ry="4.98557" transform="matrix(.99995 .01043 .01208 -.99993 1054.64 2370.78)" fill="#fff"/><ellipse rx="2.11826" ry="4.98557" transform="matrix(-.99995 -.01043 .01208 -.99993 525.913 371.014)" fill="#fff"/><ellipse rx="2.11826" ry="4.98557" transform="matrix(.99995 .01043 -.01208 .99993 251.412 3583.89)" fill="#fff"/><ellipse rx="2.18841" ry="4.61283" transform="matrix(-.99995 -.01043 .01208 -.99993 927.447 5235.33)" fill="#fff"/><ellipse rx="2.18841" ry="4.61283" transform="matrix(.99995 .01043 .01208 -.99993 505.393 3759.41)" fill="#fff"/><ellipse rx="2.18841" ry="4.61283" transform="matrix(-.99995 -.01043 -.01208 .99993 254.128 3678.38)" fill="#fff"/><ellipse rx="2.18841" ry="4.61283" transform="matrix(-.99995 -.01043 .01208 -.99993 966.86 4871.32)" fill="#fff"/><ellipse rx="2.18841" ry="4.61283" transform="matrix(.99995 .01043 .01208 -.99993 601.837 3022.36)" fill="#fff"/><ellipse rx="2.18841" ry="4.61283" transform="matrix(-.99995 -.01043 -.01208 .99993 157.684 4415.43)" fill="#fff"/><ellipse rx="2.18841" ry="4.61283" transform="matrix(.99995 .01043 .01208 -.99993 576.616 4023.09)" fill="#fff"/><ellipse rx="2.18841" ry="4.61283" transform="matrix(-.99995 -.01043 -.01208 .99993 161.301 3903.7)" fill="#fff"/><ellipse rx="2.18841" ry="4.61283" transform="matrix(-.99995 -.01043 .01208 -.99993 1012.48 2182.48)" fill="#fff"/><ellipse rx="2.18841" ry="4.61283" transform="matrix(-.99995 -.01043 .01208 -.99993 733.673 5514.69)" fill="#fff"/><ellipse rx="2.18841" ry="4.61283" transform="matrix(.99995 .01043 .01208 -.99993 434.297 3666.42)" fill="#fff"/><ellipse rx="2.18841" ry="4.61283" transform="matrix(-.99995 -.01043 -.01208 .99993 325.224 3771.38)" fill="#fff"/><ellipse rx="2.18841" ry="4.61283" transform="matrix(-.99995 -.01043 .01208 -.99993 599.631 4835.2)" fill="#fff"/><ellipse rx="2.18841" ry="4.61283" transform="matrix(.99995 .01043 -.01208 .99993 159.89 2602.59)" fill="#fff"/><ellipse rx="2.18841" ry="4.61283" transform="matrix(.99995 .01043 .01208 -.99993 1168.31 3775.55)" fill="#fff"/><ellipse rx="2.18841" ry="4.61283" transform="matrix(.99995 .01043 .01208 -.99993 994.173 4059.74)" fill="#fff"/><ellipse rx="2.18841" ry="4.61283" transform="matrix(-.99995 -.01043 .01208 -.99993 594.139 2210.41)" fill="#fff"/><ellipse rx="2.18841" ry="4.61283" transform="matrix(.99995 .01043 -.01208 .99993 165.381 5227.38)" fill="#fff"/><ellipse rx="2.18841" ry="4.61283" transform="matrix(-.99995 -.01043 .01208 -.99993 1141.08 4942.33)" fill="#fff"/><ellipse rx="2.18841" ry="4.61283" transform="matrix(.99995 .01043 .01208 -.99993 470.281 3223.95)" fill="#fff"/><ellipse rx="2.18841" ry="4.61283" transform="matrix(-.99995 -.01043 -.01208 .99993 289.24 4213.84)" fill="#fff"/><ellipse rx="2.18841" ry="4.61283" transform="matrix(.99995 .01043 .01208 -.99993 438.075 3897.1)" fill="#fff"/><ellipse rx="2.18841" ry="4.61283" transform="matrix(-.99995 -.01043 -.01208 .99993 321.446 3540.69)" fill="#fff"/><ellipse rx="2.18841" ry="4.61283" transform="matrix(.99995 .01043 .01208 -.99993 393.181 3808.99)" fill="#fff"/><ellipse rx="2.18841" ry="4.61283" transform="matrix(-.99995 -.01043 -.01208 .99993 366.339 3628.8)" fill="#fff"/><ellipse rx="2.18841" ry="4.61283" transform="matrix(.99995 .01043 .01208 -.99993 445.059 4224.69)" fill="#fff"/><ellipse rx="2.18841" ry="4.61283" transform="matrix(-.99995 -.01043 -.01208 .99993 314.461 3213.1)" fill="#fff"/><ellipse rx="2.18841" ry="4.61283" transform="matrix(-.99995 -.01043 .01208 -.99993 1095.37 2386.31)" fill="#fff"/><ellipse rx="2.18841" ry="4.61283" transform="matrix(-.99995 -.01043 .01208 -.99993 924.864 4543.37)" fill="#fff"/><ellipse rx="2.18841" ry="4.61283" transform="matrix(.99995 .01043 .01208 -.99993 651.746 2695.36)" fill="#fff"/><ellipse rx="2.18841" ry="4.61283" transform="matrix(-.99995 -.01043 -.01208 .99993 107.775 4742.43)" fill="#fff"/><ellipse rx="2.18841" ry="4.61283" transform="matrix(-.99995 -.01043 .01208 -.99993 901.366 4676.89)" fill="#fff"/><ellipse rx="2.18841" ry="4.61283" transform="matrix(.99995 .01043 .01208 -.99993 672.012 2829.35)" fill="#fff"/><ellipse rx="2.18841" ry="4.61283" transform="matrix(-.99995 -.01043 -.01208 .99993 87.5085 4608.44)" fill="#fff"/><ellipse rx="2.18841" ry="4.61283" transform="matrix(-.99995 -.01043 .01208 -.99993 840.081 4496.35)" fill="#fff"/><ellipse rx="2.18841" ry="4.61283" transform="matrix(.99995 .01043 .01208 -.99993 737.643 2650.13)" fill="#fff"/><ellipse rx="2.18841" ry="4.61283" transform="matrix(-.99995 -.01043 -.01208 .99993 21.8773 4787.66)" fill="#fff"/><ellipse rx="2.18841" ry="4.61283" transform="matrix(-.99995 -.01043 .01208 -.99993 806.646 4546.75)" fill="#fff"/><ellipse rx="2.18841" ry="4.61283" transform="matrix(.99995 .01043 .01208 -.99993 769.853 2701.21)" fill="#fff"/><ellipse rx="2.18841" ry="4.61283" transform="matrix(-.99995 -.01043 .01208 -.99993 1009.84 4936.35)" fill="#fff"/><ellipse rx="2.18841" ry="4.61283" transform="matrix(.99995 .01043 .01208 -.99993 461.011 3085.47)" fill="#fff"/><ellipse rx="2.18841" ry="4.61283" transform="matrix(-.99995 -.01043 -.01208 .99993 298.509 4352.32)" fill="#fff"/><ellipse rx="2.18841" ry="4.61283" transform="matrix(-.99995 -.01043 .01208 -.99993 1119.13 5491.03)" fill="#fff"/><ellipse rx="2.18841" ry="4.61283" transform="matrix(.99995 .01043 .01208 -.99993 409.219 3024.96)" fill="#fff"/><ellipse rx="2.18841" ry="4.61283" transform="matrix(-.99995 -.01043 -.01208 .99993 350.302 4412.83)" fill="#fff"/><ellipse rx="2.18841" ry="4.61283" transform="matrix(-.99995 -.01043 .01208 -.99993 942.805 5050.97)" fill="#fff"/><ellipse rx="2.18841" ry="4.61283" transform="matrix(.99995 .01043 .01208 -.99993 633.099 3151.84)" fill="#fff"/><ellipse rx="2.18841" ry="4.61283" transform="matrix(-.99995 -.01043 -.01208 .99993 126.42 4285.95)" fill="#fff"/><ellipse rx="2.18841" ry="4.61283" transform="matrix(-.99995 -.01043 .01208 -.99993 981.164 5498.82)" fill="#fff"/><ellipse rx="2.18841" ry="4.61283" transform="matrix(.99995 .01043 .01208 -.99993 572.376 3649.4)" fill="#fff"/><ellipse rx="2.18841" ry="4.61283" transform="matrix(-.99995 -.01043 -.01208 .99993 351.263 5256.11)" fill="#fff"/><ellipse rx="2.18841" ry="4.61283" transform="matrix(-.99995 -.01043 .01208 -.99993 761.016 5062.91)" fill="#fff"/><ellipse rx="2.18841" ry="4.61283" transform="matrix(.99995 .01043 .01208 -.99993 802.999 3218.2)" fill="#fff"/><ellipse rx="2.18841" ry="4.61283" transform="matrix(-.99995 -.01043 .01208 -.99993 542.92 5000.67)" fill="#fff"/><ellipse rx="2.18841" ry="4.61283" transform="matrix(.99995 .01043 -.01208 .99993 216.601 2437.12)" fill="#fff"/><ellipse rx="2.18841" ry="4.61283" transform="matrix(.99995 .01043 .01208 -.99993 1022.55 3160.52)" fill="#fff"/><ellipse rx="2.18841" ry="4.61283" transform="matrix(-.99995 -.01043 .01208 -.99993 1023.22 4553.62)" fill="#fff"/><ellipse rx="2.18841" ry="4.61283" transform="matrix(.99995 .01043 .01208 -.99993 553.165 2703.56)" fill="#fff"/><ellipse rx="2.18841" ry="4.61283" transform="matrix(-.99995 -.01043 -.01208 .99993 206.356 4734.23)" fill="#fff"/><ellipse rx="2.18841" ry="4.61283" transform="matrix(-.99995 -.01043 .01208 -.99993 747.857 4702.97)" fill="#fff"/><ellipse rx="2.18841" ry="4.61283" transform="matrix(.99995 .01043 .01208 -.99993 824.852 2858.62)" fill="#fff"/><ellipse rx="2.18841" ry="4.61283" transform="matrix(-.99995 -.01043 .01208 -.99993 885.506 4902.76)" fill="#fff"/><ellipse rx="2.18841" ry="4.61283" transform="matrix(.99995 .01043 .01208 -.99993 556.568 3146.43)" fill="#fff"/><ellipse rx="2.18841" ry="4.61283" transform="matrix(-.99995 -.01043 -.01208 .99993 202.952 4291.36)" fill="#fff"/><ellipse rx="2.18841" ry="4.61283" transform="matrix(-.99995 -.01043 .01208 -.99993 1165.46 4555.1)" fill="#fff"/><ellipse rx="2.18841" ry="4.61283" transform="matrix(.99995 .01043 .01208 -.99993 410.932 2702.08)" fill="#fff"/><ellipse rx="2.18841" ry="4.61283" transform="matrix(-.99995 -.01043 -.01208 .99993 348.589 4735.71)" fill="#fff"/><ellipse rx="2.18841" ry="4.61283" transform="matrix(-.99995 -.01043 .01208 -.99993 388.378 4749.97)" fill="#fff"/><ellipse rx="2.18841" ry="4.61283" transform="matrix(.99995 .01043 -.01208 .99993 371.143 2687.82)" fill="#fff"/><ellipse rx="2.18841" ry="4.61283" transform="matrix(.99995 .01043 .01208 -.99993 1183.11 2913.1)" fill="#fff"/><ellipse rx="2.18841" ry="4.61283" transform="matrix(-.99995 -.01043 .01208 -.99993 410.357 4561.07)" fill="#fff"/><ellipse rx="2.18841" ry="4.61283" transform="matrix(.99995 .01043 -.01208 .99993 349.164 2876.72)" fill="#fff"/><ellipse rx="2.18841" ry="4.61283" transform="matrix(.99995 .01043 .01208 -.99993 1165.7 2723.79)" fill="#fff"/><ellipse rx="2.18841" ry="4.61283" transform="matrix(.99995 .01043 .01208 -.99993 494.871 4086.82)" fill="#fff"/><ellipse rx="2.18841" ry="4.61283" transform="matrix(-.99995 -.01043 -.01208 .99993 264.649 3350.97)" fill="#fff"/><ellipse rx="2.18841" ry="4.61283" transform="matrix(-.99995 -.01043 .01208 -.99993 1092.66 2247.9)" fill="#fff"/><ellipse rx="2.18841" ry="4.61283" transform="matrix(-.99995 -.01043 .01208 -.99993 704.974 5173.04)" fill="#fff"/><ellipse rx="2.18841" ry="4.61283" transform="matrix(.99995 .01043 -.01208 .99993 54.5469 2264.75)" fill="#fff"/><ellipse rx="2.18841" ry="4.61283" transform="matrix(.99995 .01043 .01208 -.99993 831.146 4330.2)" fill="#fff"/><ellipse rx="2.18841" ry="4.61283" transform="matrix(-.99995 -.01043 .01208 -.99993 750.591 2484.2)" fill="#fff"/><ellipse rx="2.18841" ry="4.61283" transform="matrix(.99995 .01043 -.01208 .99993 8.93091 4953.59)" fill="#fff"/><ellipse rx="2.18841" ry="4.61283" transform="matrix(-.99995 -.01043 .01208 -.99993 669.305 4683.7)" fill="#fff"/><ellipse rx="2.18841" ry="4.61283" transform="matrix(.99995 .01043 -.01208 .99993 90.2162 2754.09)" fill="#fff"/><ellipse rx="2.18841" ry="4.61283" transform="matrix(.99995 .01043 .01208 -.99993 903.849 2840.99)" fill="#fff"/><ellipse rx="2.18841" ry="4.61283" transform="matrix(.99995 .01043 .01208 -.99993 907.967 3768.22)" fill="#fff"/><ellipse rx="2.18841" ry="4.61283" transform="matrix(-.99995 -.01043 .01208 -.99993 601.246 1984.45)" fill="#fff"/><ellipse rx="2.18841" ry="4.61283" transform="matrix(.99995 .01043 -.01208 .99993 158.275 5453.34)" fill="#fff"/><ellipse rx="2.18841" ry="4.61283" transform="matrix(.99995 .01043 .01208 -.99993 839.91 3785.97)" fill="#fff"/><ellipse rx="2.18841" ry="4.61283" transform="matrix(-.99995 -.01043 .01208 -.99993 754.978 1939.92)" fill="#fff"/><ellipse rx="2.18841" ry="4.61283" transform="matrix(.99995 .01043 -.01208 .99993 4.54346 5497.87)" fill="#fff"/><ellipse rx="2.18841" ry="4.61283" transform="matrix(.99995 .01043 .01208 -.99993 634.33 3774.6)" fill="#fff"/><ellipse rx="2.18841" ry="4.61283" transform="matrix(-.99995 -.01043 -.01208 .99993 280.847 5108.01)" fill="#fff"/><ellipse rx="2.18841" ry="4.61283" transform="matrix(-.99995 -.01043 .01208 -.99993 960.781 1932.85)" fill="#fff"/><ellipse rx="2.18841" ry="4.61283" transform="matrix(.99995 .01043 .01208 -.99993 416.542 4049.1)" fill="#fff"/><ellipse rx="2.18841" ry="4.61283" transform="matrix(-.99995 -.01043 -.01208 .99993 342.979 3388.69)" fill="#fff"/><ellipse rx="2.18841" ry="4.61283" transform="matrix(-.99995 -.01043 .01208 -.99993 1171.88 2211.82)" fill="#fff"/><ellipse rx="2.18841" ry="4.61283" transform="matrix(.99995 .01043 .01208 -.99993 393.657 4131.89)" fill="#fff"/><ellipse rx="2.18841" ry="4.61283" transform="matrix(-.99995 -.01043 -.01208 .99993 365.863 3305.9)" fill="#fff"/><ellipse rx="2.18841" ry="4.61283" transform="matrix(-.99995 -.01043 .01208 -.99993 1192.76 2295.07)" fill="#fff"/><ellipse rx="2.18841" ry="4.61283" transform="matrix(.99995 .01043 .01208 -.99993 907.314 4003.47)" fill="#fff"/><ellipse rx="2.18841" ry="4.61283" transform="matrix(-.99995 -.01043 .01208 -.99993 682.336 2155.97)" fill="#fff"/><ellipse rx="2.18841" ry="4.61283" transform="matrix(.99995 .01043 -.01208 .99993 77.1853 5281.82)" fill="#fff"/><ellipse rx="2.18841" ry="4.61283" transform="matrix(.99995 .01043 .01208 -.99993 703.922 3992.13)" fill="#fff"/><ellipse rx="2.18841" ry="4.61283" transform="matrix(-.99995 -.01043 -.01208 .99993 103.583 3463.43)" fill="#fff"/><ellipse rx="2.18841" ry="4.61283" transform="matrix(-.99995 -.01043 .01208 -.99993 885.95 2148.87)" fill="#fff"/><ellipse rx="2.18841" ry="4.61283" transform="matrix(-.99995 -.01043 .01208 -.99993 1000.9 5314.51)" fill="#fff"/><ellipse rx="2.18841" ry="4.61283" transform="matrix(.99995 .01043 .01208 -.99993 538.799 3349.22)" fill="#fff"/><ellipse rx="2.18841" ry="4.61283" transform="matrix(-.99995 -.01043 -.01208 .99993 220.722 4088.57)" fill="#fff"/><ellipse rx="2.18841" ry="4.61283" transform="matrix(-.99995 -.01043 .01208 -.99993 1013.08 4668.83)" fill="#fff"/><ellipse rx="2.18841" ry="4.61283" transform="matrix(.99995 .01043 .01208 -.99993 560.525 2818.96)" fill="#fff"/><ellipse rx="2.18841" ry="4.61283" transform="matrix(-.99995 -.01043 -.01208 .99993 198.996 4618.83)" fill="#fff"/><ellipse rx="2.18841" ry="4.61283" transform="matrix(.99995 .01043 .01208 -.99993 765.821 3576.62)" fill="#fff"/><ellipse rx="2.18841" ry="4.61283" transform="matrix(-.99995 -.01043 -.01208 .99993 86.9332 3750.44)" fill="#fff"/><ellipse rx="2.18841" ry="4.61283" transform="matrix(-.99995 -.01043 .01208 -.99993 1017.56 1942.66)" fill="#fff"/><ellipse rx="2.18841" ry="4.61283" transform="matrix(.99995 .01043 .01208 -.99993 566.637 4124.47)" fill="#fff"/><ellipse rx="2.18841" ry="4.61283" transform="matrix(-.99995 -.01043 -.01208 .99993 192.884 3313.32)" fill="#fff"/><ellipse rx="2.18841" ry="4.61283" transform="matrix(-.99995 -.01043 .01208 -.99993 1020 2284.04)" fill="#fff"/><ellipse rx="2.18841" ry="4.61283" transform="matrix(.99995 .01043 .01208 -.99993 503.862 4248.36)" fill="#fff"/><ellipse rx="2.18841" ry="4.61283" transform="matrix(-.99995 -.01043 -.01208 .99993 285.136 1907.13)" fill="#fff"/><ellipse rx="2.18841" ry="4.61283" transform="matrix(-.99995 -.01043 .01208 -.99993 1149.51 2433)" fill="#fff"/><ellipse rx="2.18841" ry="4.61283" transform="matrix(.99995 .01043 .01208 -.99993 608.02 4503.16)" fill="#fff"/><ellipse rx="2.18841" ry="4.61283" transform="matrix(-.99995 -.01043 -.01208 .99993 151.501 2934.63)" fill="#fff"/><ellipse rx="2.18841" ry="4.61283" transform="matrix(-.99995 -.01043 .01208 -.99993 969.481 2661.77)" fill="#fff"/><ellipse rx="2.18841" ry="4.61283" transform="matrix(-.99995 -.01043 .01208 -.99993 696.18 5357.46)" fill="#fff"/><ellipse rx="2.18841" ry="4.61283" transform="matrix(.99995 .01043 -.01208 .99993 63.3407 2080.33)" fill="#fff"/><ellipse rx="2.18841" ry="4.61283" transform="matrix(.99995 .01043 .01208 -.99993 883.214 3643.42)" fill="#fff"/><ellipse rx="2.18841" ry="4.61283" transform="matrix(-.99995 -.01043 .01208 -.99993 612.218 5061.36)" fill="#fff"/><ellipse rx="2.18841" ry="4.61283" transform="matrix(.99995 .01043 -.01208 .99993 147.302 2376.43)" fill="#fff"/><ellipse rx="2.18841" ry="4.61283" transform="matrix(.99995 .01043 .01208 -.99993 906.236 3186.98)" fill="#fff"/><ellipse rx="2.18841" ry="4.61283" transform="matrix(.99995 .01043 .01208 -.99993 926.577 4220.48)" fill="#fff"/><ellipse rx="2.18841" ry="4.61283" transform="matrix(-.99995 -.01043 .01208 -.99993 657.834 2372.52)" fill="#fff"/><ellipse rx="2.18841" ry="4.61283" transform="matrix(.99995 .01043 -.01208 .99993 101.687 5065.27)" fill="#fff"/><ellipse rx="2.18841" ry="4.61283" transform="matrix(-.99995 -.01043 .01208 -.99993 844.28 5054.56)" fill="#fff"/><ellipse rx="2.18841" ry="4.61283" transform="matrix(.99995 .01043 .01208 -.99993 719.96 3208.1)" fill="#fff"/><ellipse rx="2.18841" ry="4.61283" transform="matrix(-.99995 -.01043 -.01208 .99993 39.5615 4229.69)" fill="#fff"/><ellipse rx="2.18841" ry="4.61283" transform="matrix(.99995 .01043 .01208 -.99993 715.728 4282.86)" fill="#fff"/><ellipse rx="2.18841" ry="4.61283" transform="matrix(-.99995 -.01043 -.01208 .99993 43.7916 3154.93)" fill="#fff"/><ellipse rx="2.18841" ry="4.61283" transform="matrix(-.99995 -.01043 .01208 -.99993 867.123 2439.29)" fill="#fff"/><ellipse rx="2.18841" ry="4.61283" transform="matrix(-.99995 -.01043 .01208 -.99993 770.033 4860.04)" fill="#fff"/><ellipse rx="2.18841" ry="4.61283" transform="matrix(.99995 .01043 .01208 -.99993 798.888 3015.19)" fill="#fff"/><ellipse rx="2.18841" ry="4.61283" transform="matrix(.99995 .01043 .01208 -.99993 773.666 4015.92)" fill="#fff"/><ellipse rx="2.18841" ry="4.61283" transform="matrix(-.99995 -.01043 .01208 -.99993 815.649 2171.2)" fill="#fff"/><ellipse rx="2.18841" ry="4.61283" transform="matrix(-.99995 -.01043 .01208 -.99993 439.101 5442.43)" fill="#fff"/><ellipse rx="2.18841" ry="4.61283" transform="matrix(.99995 .01043 -.01208 .99993 320.42 1995.36)" fill="#fff"/><ellipse rx="2.18841" ry="4.61283" transform="matrix(.99995 .01043 .01208 -.99993 1115.66 3604.33)" fill="#fff"/><ellipse rx="2.18841" ry="4.61283" transform="matrix(-.99995 -.01043 .01208 -.99993 408.047 5114.59)" fill="#fff"/><ellipse rx="2.18841" ry="4.61283" transform="matrix(.99995 .01043 -.01208 .99993 351.474 2323.2)" fill="#fff"/><ellipse rx="2.18841" ry="4.61283" transform="matrix(.99995 .01043 .01208 -.99993 1154.63 3277.22)" fill="#fff"/><ellipse rx="2.18841" ry="4.61283" transform="matrix(.99995 .01043 .01208 -.99993 1129.41 4277.95)" fill="#fff"/><ellipse rx="2.18841" ry="4.61283" transform="matrix(-.99995 -.01043 .01208 -.99993 453.662 2425.75)" fill="#fff"/><ellipse rx="2.18841" ry="4.61283" transform="matrix(.99995 .01043 -.01208 .99993 305.859 5012.04)" fill="#fff"/><ellipse rx="2.18841" ry="4.61283" transform="matrix(-.99995 -.01043 .01208 -.99993 851.193 5206.85)" fill="#fff"/><ellipse rx="2.18841" ry="4.61283" transform="matrix(.99995 .01043 .01208 -.99993 709.368 3360.22)" fill="#fff"/><ellipse rx="2.18841" ry="4.61283" transform="matrix(-.99995 -.01043 -.01208 .99993 50.1532 4077.57)" fill="#fff"/><ellipse rx="2.18841" ry="4.61283" transform="matrix(.99995 .01043 .01208 -.99993 744.748 4416.94)" fill="#fff"/><ellipse rx="2.18841" ry="4.61283" transform="matrix(-.99995 -.01043 .01208 -.99993 834.872 2572.72)" fill="#fff"/><ellipse rx="2.18841" ry="4.61283" transform="matrix(.99995 .01043 .01208 -.99993 655.755 4356.05)" fill="#fff"/><ellipse rx="2.18841" ry="4.61283" transform="matrix(-.99995 -.01043 -.01208 .99993 103.765 3081.75)" fill="#fff"/><ellipse rx="2.18841" ry="4.61283" transform="matrix(-.99995 -.01043 .01208 -.99993 892.267 2531.81)" fill="#fff"/><ellipse rx="2.18841" ry="4.61283" transform="matrix(.99995 .01043 .01208 -.99993 525.202 4474.62)" fill="#fff"/><ellipse rx="2.18841" ry="4.61283" transform="matrix(-.99995 -.01043 -.01208 .99993 234.318 2963.17)" fill="#fff"/><ellipse rx="2.18841" ry="4.61283" transform="matrix(-.99995 -.01043 .01208 -.99993 1052.97 2634.97)" fill="#fff"/><ellipse rx="2.18841" ry="4.61283" transform="matrix(.99995 .01043 .01208 -.99993 406.456 4883.93)" fill="#fff"/><ellipse rx="2.18841" ry="4.61283" transform="matrix(-.99995 -.01043 -.01208 .99993 353.064 2553.86)" fill="#fff"/><ellipse rx="2.18841" ry="4.61283" transform="matrix(-.99995 -.01043 .01208 -.99993 419.688 3426.39)" fill="#fff"/><ellipse rx="2.18841" ry="4.61283" transform="matrix(.99995 .01043 -.01208 .99993 339.832 4011.4)" fill="#fff"/><ellipse rx="2.18841" ry="4.61283" transform="matrix(.99995 .01043 .01208 -.99993 459.572 4653.84)" fill="#fff"/><ellipse rx="2.18841" ry="4.61283" transform="matrix(-.99995 -.01043 -.01208 .99993 299.95 2783.95)" fill="#fff"/><ellipse rx="2.18841" ry="4.61283" transform="matrix(-.99995 -.01043 .01208 -.99993 1112.99 3101.49)" fill="#fff"/><ellipse rx="2.18841" ry="4.61283" transform="matrix(.99995 .01043 .01208 -.99993 434.022 4413.7)" fill="#fff"/><ellipse rx="2.18841" ry="4.61283" transform="matrix(-.99995 -.01043 -.01208 .99993 325.499 3024.09)" fill="#fff"/><ellipse rx="2.18841" ry="4.61283" transform="matrix(-.99995 -.01043 .01208 -.99993 1096.62 2644.65)" fill="#fff"/><ellipse rx="2.18841" ry="4.61283" transform="matrix(-.99995 -.01043 .01208 -.99993 789.545 4694.18)" fill="#fff"/><ellipse rx="2.18841" ry="4.61283" transform="matrix(.99995 .01043 .01208 -.99993 783.387 2848.96)" fill="#fff"/><ellipse rx="2.18841" ry="4.61283" transform="matrix(.99995 .01043 .01208 -.99993 776.731 3762.24)" fill="#fff"/><ellipse rx="2.18841" ry="4.61283" transform="matrix(-.99995 -.01043 .01208 -.99993 818.714 1917.53)" fill="#fff"/><ellipse rx="2.18841" ry="4.61283" transform="matrix(-.99995 -.01043 .01208 -.99993 546.475 5249.81)" fill="#fff"/><ellipse rx="2.18841" ry="4.61283" transform="matrix(.99995 .01043 -.01208 .99993 213.045 2187.98)" fill="#fff"/><ellipse rx="2.18841" ry="4.61283" transform="matrix(.99995 .01043 .01208 -.99993 1022.34 3358.87)" fill="#fff"/><ellipse rx="2.18841" ry="4.61283" transform="matrix(.99995 .01043 .01208 -.99993 1061.2 4489.43)" fill="#fff"/><ellipse rx="2.18841" ry="4.61283" transform="matrix(-.99995 -.01043 .01208 -.99993 511.975 1946.62)" fill="#fff"/><ellipse rx="2.18841" ry="4.61283" transform="matrix(.99995 .01043 -.01208 .99993 247.546 5491.17)" fill="#fff"/><ellipse rx="2.18841" ry="4.61283" transform="matrix(-.99995 -.01043 .01208 -.99993 510.806 4760.47)" fill="#fff"/><ellipse rx="2.18841" ry="4.61283" transform="matrix(.99995 .01043 -.01208 .99993 248.715 2677.32)" fill="#fff"/><ellipse rx="2.18841" ry="4.61283" transform="matrix(.99995 .01043 .01208 -.99993 1060.45 2921.04)" fill="#fff"/><ellipse rx="2.18841" ry="4.61283" transform="matrix(.99995 .01043 .01208 -.99993 1063.9 3903.62)" fill="#fff"/><ellipse rx="2.18841" ry="4.61283" transform="matrix(-.99995 -.01043 .01208 -.99993 528.198 2052.88)" fill="#fff"/><ellipse rx="2.18841" ry="4.61283" transform="matrix(.99995 .01043 -.01208 .99993 231.322 5384.91)" fill="#fff"/><ellipse rx="2.18841" ry="4.61283" transform="matrix(-.99995 -.01043 .01208 -.99993 842.4 5391.28)" fill="#fff"/><ellipse rx="2.18841" ry="4.61283" transform="matrix(.99995 .01043 .01208 -.99993 611.567 3303.85)" fill="#fff"/><ellipse rx="2.18841" ry="4.61283" transform="matrix(-.99995 -.01043 -.01208 .99993 147.953 4133.94)" fill="#fff"/><ellipse rx="2.18841" ry="4.61283" transform="matrix(-.99995 -.01043 .01208 -.99993 870.858 4847.25)" fill="#fff"/><ellipse rx="2.18841" ry="4.61283" transform="matrix(.99995 .01043 .01208 -.99993 698.397 3000.3)" fill="#fff"/><ellipse rx="2.18841" ry="4.61283" transform="matrix(-.99995 -.01043 -.01208 .99993 61.1238 4437.49)" fill="#fff"/><ellipse rx="2.18841" ry="4.61283" transform="matrix(.99995 .01043 .01208 -.99993 668.537 3660.16)" fill="#fff"/><ellipse rx="2.18841" ry="4.61283" transform="matrix(-.99995 -.01043 -.01208 .99993 152.169 3616.13)" fill="#fff"/><ellipse rx="2.18841" ry="4.61283" transform="matrix(-.99995 -.01043 .01208 -.99993 916.474 2158.41)" fill="#fff"/><ellipse rx="2.18841" ry="4.61283" transform="matrix(-.99995 -.01043 .01208 -.99993 571.857 5503.78)" fill="#fff"/><ellipse rx="2.18841" ry="4.61283" transform="matrix(.99995 .01043 -.01208 .99993 187.663 1934.01)" fill="#fff"/><ellipse rx="2.18841" ry="4.61283" transform="matrix(.99995 .01043 .01208 -.99993 981.46 3662.89)" fill="#fff"/><ellipse rx="2.18841" ry="4.61283" transform="matrix(-.99995 -.01043 .01208 -.99993 473.845 4921.53)" fill="#fff"/><ellipse rx="2.18841" ry="4.61283" transform="matrix(.99995 .01043 -.01208 .99993 285.676 2516.26)" fill="#fff"/><ellipse rx="2.18841" ry="4.61283" transform="matrix(.99995 .01043 .01208 -.99993 996.495 2961.89)" fill="#fff"/><ellipse rx="2.18841" ry="4.61283" transform="matrix(.99995 .01043 .01208 -.99993 1068.29 4083.57)" fill="#fff"/><ellipse rx="2.18841" ry="4.61283" transform="matrix(-.99995 -.01043 .01208 -.99993 519.461 2232.7)" fill="#fff"/><ellipse rx="2.18841" ry="4.61283" transform="matrix(.99995 .01043 -.01208 .99993 240.06 5205.1)" fill="#fff"/><path opacity=".7" d="M871.735 801.729c-1.491 0-2.236-2.049-2.236-6.146 0-4.098.745-6.147 2.236-6.147s2.237 2.049 2.237 6.147c0 2.049-.746 6.146-2.237 6.146zM871.735 1053.73c-.746 0-1.491-2.05-1.491-4.09 0-2.05.745-4.1 1.491-4.1.745 0 1.491 2.05 1.491 4.1.745 2.04 0 4.09-1.491 4.09zM751.708 555.874c-.746 0-1.491-2.049-1.491-4.098s.745-4.097 1.491-4.097c.745 0 1.49 2.048 1.49 4.097 0 2.049-.745 4.098-1.49 4.098zM842.66 3395.56c-.745 0-1.49-2.05-1.49-4.1s.745-4.1 1.49-4.1c.746 0 1.491 2.05 1.491 4.1s-.745 4.1-1.491 4.1zM960.452 1107.01c-.746 0-1.491-2.05-1.491-4.09 0-2.05.745-4.1 1.491-4.1.745 0 1.49 2.05 1.49 4.1 0 2.04-.745 4.09-1.49 4.09zM910.503 1098.81c-.745 0-1.491-2.05-1.491-4.1 0-2.04.746-4.09 1.491-4.09.745 0 1.49 2.05 1.49 4.09 0 2.05-.745 4.1-1.49 4.1zM1170.69 1285.26c-1.49 0-2.24-2.05-2.24-6.15 0-4.09.75-6.14 2.24-6.14 1.49 0 2.23 2.05 2.23 6.14 0 4.1-1.49 6.15-2.23 6.15zM819.549 1307.79c-1.491 0-2.982-4.1-2.982-8.2s1.491-8.19 2.982-8.19 2.982 4.09 2.982 8.19c0 6.15-1.491 8.2-2.982 8.2zM1193.05 945.161c-1.49 0-2.98-4.098-2.98-8.196 0-4.097 1.49-8.195 2.98-8.195s2.98 4.098 2.98 8.195c0 4.098-.74 8.196-2.98 8.196zM945.54 264.943c-1.491 0-2.982-4.097-2.982-8.195 0-4.097 1.491-8.195 2.982-8.195s2.982 4.098 2.982 8.195c0 4.098-1.491 8.195-2.982 8.195zM710.704 148.158c-1.491 0-2.983-4.098-2.983-8.195 0-4.098 1.492-8.196 2.983-8.196s2.982 4.098 2.982 8.196c0 6.146-1.491 8.195-2.982 8.195zM929.14 547.681c-1.491 0-2.983-4.098-2.983-8.196 0-4.097 1.492-8.195 2.983-8.195s2.982 4.098 2.982 8.195c0 4.098-1.491 8.196-2.982 8.196zM728.597 367.388c-1.491 0-2.237-2.049-2.237-6.146 0-4.098.746-6.147 2.237-6.147s2.236 2.049 2.236 6.147c0 4.097-.745 6.146-2.236 6.146zM1026.8 475.975c-1.49 0-2.23-2.049-2.23-6.147 0-4.097.74-6.146 2.23-6.146s2.24 2.049 2.24 6.146c0 4.098-1.49 6.147-2.24 6.147zM1207.22 266.994c-.75 0-1.49-2.049-1.49-4.098s.74-4.097 1.49-4.097c.74 0 1.49 2.048 1.49 4.097.74 2.049 0 4.098-1.49 4.098zM1085.7 2666.16c-.75 0-1.49-2.04-1.49-4.09s.74-4.1 1.49-4.1c.74 0 1.49 2.05 1.49 4.1s0 4.09-1.49 4.09zM1112.54 793.546c-.75 0-1.49-2.049-1.49-4.097 0-2.049.74-4.098 1.49-4.098.74 0 1.49 2.049 1.49 4.098 0 2.048-.75 4.097-1.49 4.097zM680.874 2137.57c-.745 0-1.49-2.05-1.49-4.1s.745-4.09 1.49-4.09 1.491 2.04 1.491 4.09-.746 4.1-1.491 4.1zM1023.07 973.84c-.74 0-1.49-2.049-1.49-4.098s.75-4.097 1.49-4.097c.75 0 1.5 2.048 1.5 4.097 0 2.049-.75 4.098-1.5 4.098zM691.321 643.97c-.745 0-1.491-2.049-1.491-4.098s.746-4.098 1.491-4.098c.745 0 1.491 2.049 1.491 4.098s-.746 4.098-1.491 4.098zM1174.41 686.997c-1.49 0-2.98-4.098-2.98-8.195 0-4.098 1.49-8.196 2.98-8.196s2.99 4.098 2.99 8.196c0 4.097-1.5 8.195-2.99 8.195zM1105.08 2444.89c-1.49 0-2.98-4.1-2.98-8.2 0-4.09 1.49-8.19 2.98-8.19s2.98 4.1 2.98 8.19c0 6.15-.74 8.2-2.98 8.2zM753.198 154.307c-1.491 0-2.237-2.049-2.237-6.147 0-4.098.746-6.146 2.237-6.146s2.237 2.048 2.237 6.146-.746 6.147-2.237 6.147zM755.434 1102.92c-2.236 0-4.473-6.15-4.473-12.3 0-6.14 2.237-12.29 4.473-12.29 2.237 0 4.473 6.15 4.473 12.29-.745 6.15-2.236 12.3-4.473 12.3zM832.224 736.167c-.745 0-1.491-2.048-1.491-4.097 0-2.049.746-4.098 1.491-4.098.746 0 1.491 2.049 1.491 4.098.746 2.049 0 4.097-1.491 4.097zM707.723 988.184c-.745 0-1.491-2.049-1.491-4.098s.746-4.098 1.491-4.098c.745 0 1.491 2.049 1.491 4.098s-.746 4.098-1.491 4.098zM876.954 2967.34c-.745 0-1.49-2.04-1.49-4.09s.745-4.1 1.49-4.1c.746 0 1.491 2.05 1.491 4.1s-.745 4.09-1.491 4.09zM715.178 3090.28c-.745 0-1.49-2.05-1.49-4.1s.745-4.1 1.49-4.1 1.491 2.05 1.491 4.1-.746 4.1-1.491 4.1zM724.869 2471.53c-.745 0-1.491-2.05-1.491-4.1s.746-4.1 1.491-4.1c.745 0 1.491 2.05 1.491 4.1s-.746 4.1-1.491 4.1zM789.728 3334.09c-.745 0-1.491-2.05-1.491-4.1 0-2.04.746-4.09 1.491-4.09.746 0 1.491 2.05 1.491 4.09.746 2.05 0 4.1-1.491 4.1zM777.055 2983.75c-1.491 0-2.982-4.1-2.982-8.2s1.491-8.2 2.982-8.2 2.982 4.1 2.982 8.2-1.491 8.2-2.982 8.2zM929.14 2844.41c-1.491 0-2.983-4.1-2.983-8.19 0-4.1 1.492-8.2 2.983-8.2s2.982 4.1 2.982 8.2c0 4.09-1.491 8.19-2.982 8.19zM698.776 2981.69c-.745 0-1.491-2.05-1.491-4.09 0-2.05.746-4.1 1.491-4.1.745 0 1.491 2.05 1.491 4.1 0 2.04-.746 4.09-1.491 4.09zM1112.54 3090.28c-.75 0-1.49-2.05-1.49-4.1s.74-4.1 1.49-4.1c.74 0 1.49 2.05 1.49 4.1s-.75 4.1-1.49 4.1zM1014.13 3065.69c-.75 0-1.49-2.05-1.49-4.1s.74-4.1 1.49-4.1c.74 0 1.49 2.05 1.49 4.1s-.75 4.1-1.49 4.1zM1148.32 2852.62c-.74 0-1.49-2.05-1.49-4.1s.75-4.1 1.49-4.1c.75 0 1.49 2.05 1.49 4.1.75 2.05 0 4.1-1.49 4.1zM1174.41 2983.75c-1.49 0-2.98-4.1-2.98-8.2s1.49-8.2 2.98-8.2 2.99 4.1 2.99 8.2-1.5 8.2-2.99 8.2zM950.014 2639.53c-1.491 0-2.982-4.1-2.982-8.2s1.491-8.19 2.982-8.19 2.982 4.09 2.982 8.19-1.491 8.2-2.982 8.2zM833.715 2532.99c-.746 0-1.491-2.05-1.491-4.1s.745-4.09 1.491-4.09c.745 0 1.49 2.04 1.49 4.09s-.745 4.1-1.49 4.1zM695.048 287.48c-1.491 0-2.236-2.049-2.236-6.146 0-4.098.745-6.147 2.236-6.147s2.237 2.049 2.237 6.147c0 4.097-.746 6.146-2.237 6.146zM870.244 1901.96c-2.236 0-4.473-6.15-4.473-12.29 0-6.15 2.237-12.3 4.473-12.3 2.237 0 4.473 6.15 4.473 12.3-.745 6.14-2.236 12.29-4.473 12.29zM876.955 1758.54c-.746 0-1.491-2.05-1.491-4.1s.745-4.1 1.491-4.1c.745 0 1.49 2.05 1.49 4.1s-.745 4.1-1.49 4.1zM1054.39 1506.53c-.75 0-1.49-2.04-1.49-4.09s.74-4.1 1.49-4.1c.74 0 1.49 2.05 1.49 4.1.74 2.05 0 4.09-1.49 4.09zM715.178 1883.51c-.745 0-1.49-2.05-1.49-4.1s.745-4.1 1.49-4.1 1.491 2.05 1.491 4.1-.746 4.1-1.491 4.1zM751.708 1645.85c-.745 0-1.491-2.05-1.491-4.1 0-2.04.746-4.09 1.491-4.09.745 0 1.49 2.05 1.49 4.09 0 2.05-.745 4.1-1.49 4.1zM690.576 2188.79c-.745 0-1.491-2.05-1.491-4.09 0-2.05.746-4.1 1.491-4.1.745 0 1.49 2.05 1.49 4.1 0 2.04-.745 4.09-1.49 4.09zM787.493 1535.21c-.746 0-1.491-2.05-1.491-4.1s.745-4.09 1.491-4.09c.745 0 1.491 2.04 1.491 4.09.745 2.05 0 4.1-1.491 4.1zM910.503 2188.79c-.745 0-1.491-2.05-1.491-4.09 0-2.05.746-4.1 1.491-4.1.745 0 1.49 2.05 1.49 4.1 0 2.04-.745 4.09-1.49 4.09zM950.015 1727.8c-.745 0-1.49-2.05-1.49-4.09 0-2.05.745-4.1 1.49-4.1.746 0 1.491 2.05 1.491 4.1 0 2.04-.745 4.09-1.491 4.09zM870.245 1221.75c-1.491 0-2.982-4.1-2.982-8.19 0-4.1 1.491-8.2 2.982-8.2s2.982 4.1 2.982 8.2c0 4.09-1.491 8.19-2.982 8.19zM910.502 1305.75c-1.491 0-2.982-4.1-2.982-8.2s1.491-8.19 2.982-8.19 2.982 4.09 2.982 8.19-1.491 8.2-2.982 8.2zM710.704 1238.14c-1.491 0-2.982-4.1-2.982-8.2 0-4.09 1.491-8.19 2.982-8.19s2.982 4.1 2.982 8.19c0 4.1-1.491 8.2-2.982 8.2zM929.14 1635.6c-1.491 0-2.983-4.1-2.983-8.2 0-4.09 1.492-8.19 2.983-8.19s2.982 4.1 2.982 8.19c0 4.1-1.491 8.2-2.982 8.2zM728.597 1457.35c-1.491 0-2.237-2.05-2.237-6.14 0-4.1.746-6.15 2.237-6.15s2.236 2.05 2.236 6.15c0 4.09-.745 6.14-2.236 6.14zM814.331 2053.56c-2.237 0-4.473-6.14-4.473-12.29 0-6.15 2.236-12.29 4.473-12.29 2.236 0 4.473 6.14 4.473 12.29 0 8.19-1.491 12.29-4.473 12.29zM966.414 1469.66c-1.491 0-2.236-2.05-2.236-6.15 0-4.1.745-6.15 2.236-6.15s2.237 2.05 2.237 6.15c0 2.05-.746 6.15-2.237 6.15zM1207.22 1356.97c-.75 0-1.49-2.04-1.49-4.09s.74-4.1 1.49-4.1c.74 0 1.49 2.05 1.49 4.1.74 2.05 0 4.09-1.49 4.09zM1052.89 1361.06c-.74 0-1.49-2.05-1.49-4.1s.75-4.1 1.49-4.1c.75 0 1.5 2.05 1.5 4.1s-.75 4.1-1.5 4.1zM1112.54 1883.51c-.75 0-1.49-2.05-1.49-4.1s.74-4.1 1.49-4.1c.74 0 1.49 2.05 1.49 4.1s-.75 4.1-1.49 4.1zM1014.13 1858.94c-.75 0-1.49-2.05-1.49-4.1s.74-4.1 1.49-4.1c.74 0 1.49 2.05 1.49 4.1s-.75 4.1-1.49 4.1zM1148.32 1645.85c-.74 0-1.49-2.05-1.49-4.1 0-2.04.75-4.09 1.49-4.09.75 0 1.49 2.05 1.49 4.09.75 2.05 0 4.1-1.49 4.1zM1021.58 2059.72c0 2.27.67 4.1 1.49 4.1.83 0 1.5-1.83 1.5-4.1 0-2.26-.67-4.09-1.5-4.09-.82 0-1.49 1.83-1.49 4.09zM1184.85 1537.27c-.74 0-1.49-2.05-1.49-4.1s.75-4.1 1.49-4.1c.75 0 1.49 2.05 1.49 4.1s-.74 4.1-1.49 4.1zM1202 166.599c-2.24 0-4.47-6.146-4.47-12.293 0-6.146 2.23-12.293 4.47-12.293 2.24 0 4.47 6.147 4.47 12.293 0 8.196-2.23 12.293-4.47 12.293zM1174.41 1774.93c-1.49 0-2.98-4.09-2.98-8.19s1.49-8.2 2.98-8.2 2.99 4.1 2.99 8.2-1.5 8.19-2.99 8.19zM1017.11 1705.27c-1.49 0-2.98-4.1-2.98-8.2 0-4.09 1.49-8.19 2.98-8.19s2.98 4.1 2.98 8.19c0 6.15-1.49 8.2-2.98 8.2zM1056.62 1567.99c-1.49 0-2.98-4.1-2.98-8.19 0-4.1 1.49-8.2 2.98-8.2s2.99 4.1 2.99 8.2c0 6.14-.75 8.19-2.99 8.19zM1107.32 1238.14c-1.49 0-2.98-4.1-2.98-8.2 0-4.09 1.49-8.19 2.98-8.19s2.98 4.1 2.98 8.19c0 4.1-.75 8.2-2.98 8.2zM1125.96 1457.35c-1.49 0-2.24-2.05-2.24-6.14 0-4.1.75-6.15 2.24-6.15 1.49 0 2.23 2.05 2.23 6.15 0 4.09-1.49 6.14-2.23 6.14zM1019.35 1352.87c-1.49 0-2.24-2.05-2.24-6.15 0-4.1.75-6.15 2.24-6.15 1.49 0 2.23 2.05 2.23 6.15 0 2.05-.74 6.15-2.23 6.15zM1070.04 1719.61c-1.49 0-2.23-2.04-2.23-6.14s.74-6.15 2.23-6.15 2.24 2.05 2.24 6.15c0 2.05-.75 6.14-2.24 6.14zM1029.04 1213.54c-2.24 0-4.47-6.14-4.47-12.29 0-6.15 2.23-12.29 4.47-12.29 2.24 0 4.47 6.14 4.47 12.29 0 8.2-2.23 12.29-4.47 12.29zM774.073 1815.9c-.745 0-1.49-2.05-1.49-4.1 0-2.04.745-4.09 1.49-4.09.746 0 1.491 2.05 1.491 4.09 0 2.05-.745 4.1-1.491 4.1zM695.048 1375.4c-1.491 0-2.236-2.05-2.236-6.15 0-4.09.745-6.14 2.236-6.14s2.237 2.05 2.237 6.14c0 4.1-.746 6.15-2.237 6.15zM1141.61 1996.2c-.74 0-1.49-2.05-1.49-4.1s.75-4.1 1.49-4.1c.75 0 1.49 2.05 1.49 4.1s-.74 4.1-1.49 4.1zM957.469 1947.04c-2.236 0-4.473-6.15-4.473-12.3 0-6.14 2.237-12.29 4.473-12.29 2.237 0 4.473 6.15 4.473 12.29 0 6.15-2.236 12.3-4.473 12.3z" fill="#fff"/><path opacity=".7" d="M1026.06 2061.77c-1.49 0-2.98-4.1-2.98-8.2 0-4.09 1.49-8.19 2.98-8.19s2.98 4.1 2.98 8.19c0 6.15-1.49 8.2-2.98 8.2zM1141.61 2203.13c-1.49 0-2.98-4.1-2.98-8.19 0-4.1 1.49-8.2 2.98-8.2s2.98 4.1 2.98 8.2c0 6.14-1.49 8.19-2.98 8.19zM941.068 2135.52c-1.491 0-2.982-4.1-2.982-8.19 0-4.1 1.491-8.2 2.982-8.2s2.982 4.1 2.982 8.2c0 4.09-1.491 8.19-2.982 8.19zM926.157 2274.84c-1.491 0-2.236-2.05-2.236-6.14 0-4.1.745-6.15 2.236-6.15 1.492 0 2.237 2.05 2.237 6.15 0 2.05-1.491 6.14-2.237 6.14zM1012.64 2871.05c.74 0 1.49 2.05 1.49 4.1s-.75 4.1-1.49 4.1c-.75 0-1.49-2.05-1.49-4.1-.75-2.05 0-4.1 1.49-4.1zM1174.41 2748.13c.75 0 1.49 2.04 1.49 4.09s-.74 4.1-1.49 4.1c-.74 0-1.49-2.05-1.49-4.1s0-4.09 1.49-4.09zM978.343 2440.8c.745 0 1.491 2.05 1.491 4.1s-.746 4.1-1.491 4.1c-.745 0-1.49-2.05-1.49-4.1s.745-4.1 1.49-4.1zM1162.49 2492.02c2.23 0 4.47 6.15 4.47 12.29 0 6.15-2.24 12.3-4.47 12.3-2.24 0-4.48-6.15-4.48-12.3 0-6.14 2.24-12.29 4.48-12.29zM1111.79 2854.67c1.49 0 2.98 4.1 2.98 8.19 0 4.1-1.49 8.2-2.98 8.2s-2.98-4.1-2.98-8.2c0-4.09 1.49-8.19 2.98-8.19zM874.718 2772.71c.745 0 1.49 2.05 1.49 4.1s-.745 4.1-1.49 4.1c-.746 0-1.491-2.05-1.491-4.1s.745-4.1 1.491-4.1zM715.177 2854.67c1.491 0 2.982 4.1 2.982 8.19 0 4.1-1.491 8.2-2.982 8.2s-2.982-4.1-2.982-8.2c0-4.09.746-8.19 2.982-8.19zM1133.41 959.501c.75 0 1.49 2.049 1.49 4.098s-.74 4.097-1.49 4.097c-.74 0-1.49-2.048-1.49-4.097 0-2.049.75-4.098 1.49-4.098zM1079.73 2502.27c1.49 0 2.99 4.09 2.99 8.19s-1.5 8.2-2.99 8.2c-1.49 0-2.98-4.1-2.98-8.2s1.49-8.19 2.98-8.19zM1178.89 2303.53c1.49 0 2.98 4.09 2.98 8.19s-1.49 8.2-2.98 8.2-2.98-4.1-2.98-8.2 1.49-8.19 2.98-8.19zM781.528 2303.53c1.491 0 2.982 4.09 2.982 8.19s-1.491 8.2-2.982 8.2-2.982-4.1-2.982-8.2c0-6.15 1.491-8.19 2.982-8.19zM859.806 2328.12c2.237 0 4.473 6.14 4.473 12.29 0 6.15-2.236 12.29-4.473 12.29-2.236 0-4.473-6.14-4.473-12.29.746-8.2 2.237-12.29 4.473-12.29zM871.735 3854.48c-1.491 0-2.237-2.05-2.237-6.14 0-4.1.746-6.15 2.237-6.15s2.236 2.05 2.236 6.15c0 2.05-.745 6.14-2.236 6.14zM876.954 3723.37c-.745 0-1.49-2.05-1.49-4.09 0-2.05.745-4.1 1.49-4.1.746 0 1.491 2.05 1.491 4.1 0 2.04-.745 4.09-1.491 4.09zM871.735 4106.49c-.746 0-1.491-2.05-1.491-4.1s.745-4.09 1.491-4.09c.745 0 1.491 2.04 1.491 4.09.745 2.05 0 4.1-1.491 4.1zM715.178 3846.3c-.745 0-1.491-2.05-1.491-4.1s.746-4.1 1.491-4.1c.745 0 1.49 2.05 1.49 4.1s-.745 4.1-1.49 4.1zM1099.86 623.481c-.74 0-1.49-2.048-1.49-4.097 0-2.049.75-4.098 1.49-4.098.75 0 1.49 2.049 1.49 4.098.75 2.049 0 4.097-1.49 4.097zM814.33 4610.51c-.745 0-1.491-2.05-1.491-4.1s.746-4.09 1.491-4.09c.746 0 1.491 2.04 1.491 4.09.746 2.05 0 4.1-1.491 4.1zM910.503 4151.56c-.745 0-1.491-2.04-1.491-4.09s.746-4.1 1.491-4.1c.745 0 1.49 2.05 1.49 4.1s-.745 4.09-1.49 4.09zM950.015 3692.64c-.745 0-1.49-2.05-1.49-4.1s.745-4.1 1.49-4.1 1.491 2.05 1.491 4.1-.746 4.1-1.491 4.1zM850.115 3616.82c-1.491 0-2.237-2.04-2.237-6.14s.746-6.15 2.237-6.15 2.237 2.05 2.237 6.15c0 2.05-.746 6.14-2.237 6.14zM1136.39 76.4428c-2.23 0-4.47-6.1465-4.47-12.293 0-6.1464 2.24-12.2929 4.47-12.2929 2.24 0 4.48 6.1465 4.48 12.2929-.75 8.1954-2.24 12.293-4.48 12.293zM910.502 3270.58c-1.491 0-2.982-4.1-2.982-8.19 0-4.1 1.491-8.2 2.982-8.2s2.982 4.1 2.982 8.2c0 4.09-1.491 8.19-2.982 8.19zM929.14 3600.43c-1.491 0-2.982-4.09-2.982-8.19s1.491-8.2 2.982-8.2 2.982 4.1 2.982 8.2-1.491 8.19-2.982 8.19zM1207.22 3319.75c-.75 0-1.49-2.05-1.49-4.1s.74-4.1 1.49-4.1c.74 0 1.49 2.05 1.49 4.1.74 2.05 0 4.1-1.49 4.1zM1139.38 4172.05c-.75 0-1.5-2.05-1.5-4.09 0-2.05.75-4.1 1.5-4.1.74 0 1.49 2.05 1.49 4.1.74 2.04 0 4.09-1.49 4.09zM1112.54 3846.3c-.75 0-1.49-2.05-1.49-4.1s.74-4.1 1.49-4.1c.74 0 1.49 2.05 1.49 4.1s-.75 4.1-1.49 4.1zM1014.13 3821.71c-.75 0-1.49-2.05-1.49-4.09 0-2.05.74-4.1 1.49-4.1.74 0 1.49 2.05 1.49 4.1 0 2.04-.75 4.09-1.49 4.09zM1148.32 3608.63c-.74 0-1.49-2.05-1.49-4.1s.75-4.1 1.49-4.1c.75 0 1.49 2.05 1.49 4.1.75 2.05 0 4.1-1.49 4.1zM1023.07 4026.59c-.74 0-1.49-2.05-1.49-4.09 0-2.05.75-4.1 1.49-4.1.75 0 1.5 2.05 1.5 4.1 0 2.04-.75 4.09-1.5 4.09zM1184.85 3500.04c-.74 0-1.49-2.05-1.49-4.1s.75-4.09 1.49-4.09c.75 0 1.49 2.04 1.49 4.09s-.74 4.1-1.49 4.1zM1174.41 3739.75c-1.49 0-2.98-4.1-2.98-8.19 0-4.1 1.49-8.2 2.98-8.2s2.99 4.1 2.99 8.2c0 4.09-1.5 8.19-2.99 8.19zM1017.11 3670.1c-1.49 0-2.98-4.09-2.98-8.19s1.49-8.2 2.98-8.2 2.98 4.1 2.98 8.2-1.49 8.19-2.98 8.19zM1056.62 3532.83c-1.49 0-2.98-4.1-2.98-8.2s1.49-8.19 2.98-8.19 2.99 4.09 2.99 8.19-.75 8.2-2.99 8.2zM1107.32 3202.96c-1.49 0-2.98-4.1-2.98-8.2s1.49-8.19 2.98-8.19 2.98 4.09 2.98 8.19-.75 8.2-2.98 8.2zM1125.96 3420.15c-1.49 0-2.24-2.05-2.24-6.15 0-4.1.75-6.15 2.24-6.15 1.49 0 2.23 2.05 2.23 6.15 0 4.1-1.49 6.15-2.23 6.15zM832.224 3788.92c-.745 0-1.491-2.05-1.491-4.1s.746-4.09 1.491-4.09c.746 0 1.491 2.04 1.491 4.09.746 2.05 0 4.1-1.491 4.1zM777.8 2576.02c-1.491 0-2.982-4.1-2.982-8.2 0-4.09 1.491-8.19 2.982-8.19s2.982 4.1 2.982 8.19c0 4.1-.745 8.2-2.982 8.2zM710.705 4172.05c-.745 0-1.49-2.05-1.49-4.09 0-2.05.745-4.1 1.49-4.1.746 0 1.491 2.05 1.491 4.1 0 2.04-.745 4.09-1.491 4.09zM695.049 3340.23c-1.491 0-2.237-2.04-2.237-6.14s.746-6.15 2.237-6.15 2.236 2.05 2.236 6.15c0 4.1-.745 6.14-2.236 6.14zM1054.39 4559.29c-.75 0-1.5-2.05-1.5-4.1s.75-4.1 1.5-4.1c.74 0 1.49 2.05 1.49 4.1.74 2.05 0 4.1-1.49 4.1zM751.708 4698.61c-.745 0-1.491-2.05-1.491-4.1s.746-4.1 1.491-4.1c.745 0 1.49 2.05 1.49 4.1s-.745 4.1-1.49 4.1zM870.245 4274.5c-1.491 0-2.982-4.09-2.982-8.19s1.491-8.2 2.982-8.2 2.982 4.1 2.982 8.2-1.491 8.19-2.982 8.19zM910.502 4358.5c-1.491 0-2.982-4.1-2.982-8.19 0-4.1 1.491-8.2 2.982-8.2s2.982 4.1 2.982 8.2c0 6.14-1.491 8.19-2.982 8.19zM710.704 4290.89c-1.491 0-2.982-4.09-2.982-8.19s1.491-8.2 2.982-8.2 2.982 4.1 2.982 8.2-1.491 8.19-2.982 8.19zM929.139 4688.36c-1.491 0-2.982-4.1-2.982-8.2 0-4.09 1.491-8.19 2.982-8.19s2.982 4.1 2.982 8.19c0 6.15-1.491 8.2-2.982 8.2zM728.597 4510.11c-1.491 0-2.237-2.05-2.237-6.15 0-4.09.746-6.14 2.237-6.14s2.236 2.05 2.236 6.14c0 4.1-.745 6.15-2.236 6.15zM966.415 4522.41c-1.491 0-2.237-2.05-2.237-6.15 0-4.09.746-6.14 2.237-6.14s2.236 2.05 2.236 6.14c0 4.1-.745 6.15-2.236 6.15zM417.787 4610.51c-.745 0-1.491-2.05-1.491-4.1s.746-4.1 1.491-4.1c.746 0 1.491 2.05 1.491 4.1.746 2.05 0 4.1-1.491 4.1zM657.843 4559.29c-.746 0-1.491-2.05-1.491-4.1s.745-4.1 1.491-4.1c.745 0 1.491 2.05 1.491 4.1.746 2.05 0 4.1-1.491 4.1zM473.702 4274.5c-1.491 0-2.982-4.09-2.982-8.19s1.491-8.2 2.982-8.2 2.982 4.1 2.982 8.2-1.491 8.19-2.982 8.19zM513.959 4358.5c-1.491 0-2.982-4.1-2.982-8.19 0-4.1 1.491-8.2 2.982-8.2s2.982 4.1 2.982 8.2c0 6.14-1.491 8.19-2.982 8.19zM532.597 4688.36c-1.491 0-2.983-4.1-2.983-8.2s1.492-8.19 2.983-8.19 2.982 4.09 2.982 8.19c0 6.15-1.491 8.2-2.982 8.2zM569.872 4522.41c-1.491 0-2.237-2.05-2.237-6.15 0-4.09.746-6.14 2.237-6.14s2.236 2.05 2.236 6.14c0 4.1-.745 6.15-2.236 6.15zM1207.22 4409.73c-.75 0-1.49-2.05-1.49-4.1s.74-4.1 1.49-4.1c.74 0 1.49 2.05 1.49 4.1.74 2.05 0 4.1-1.49 4.1zM1148.32 4698.61c-.74 0-1.49-2.05-1.49-4.1s.75-4.1 1.49-4.1c.75 0 1.49 2.05 1.49 4.1.75 2.05 0 4.1-1.49 4.1zM1184.85 4590.02c-.74 0-1.49-2.05-1.49-4.09 0-2.05.75-4.1 1.49-4.1.75 0 1.49 2.05 1.49 4.1 0 2.04-.74 4.09-1.49 4.09zM750.216 2069.97c-2.236 0-4.473-6.15-4.473-12.3 0-6.14 2.237-12.29 4.473-12.29 2.237 0 4.473 6.15 4.473 12.29-.745 8.2-2.236 12.3-4.473 12.3z" fill="#fff"/><g opacity=".7" fill="#fff"><path opacity=".7" d="M1083.46 2301.49l-15.65 2.04-1.49 45.08-.75-43.03-16.4-4.09 16.4-4.1.75-43.03 1.49 43.03 15.65 4.1z"/><path opacity=".7" d="M1073.77 2319.92l-6.71-14.34-7.45 14.34 5.96-18.44-6.71-20.49 7.45 16.39 7.46-16.39-5.96 20.49 5.96 18.44z"/></g><g opacity=".7" fill="#fff"><path opacity=".7" d="M1115.52 1836.4l-15.66 4.1-1.49 43.02-.74-43.02-16.4-4.1 16.4-4.1.74-43.02 1.49 43.02 15.66 4.1z"/><path opacity=".7" d="M1105.83 1854.84l-7.46-14.34-6.71 14.34 5.22-18.44-5.96-20.49 7.45 18.44 6.71-18.44-5.22 20.49 5.97 18.44z"/></g><g opacity=".7" fill="#fff"><path opacity=".7" d="M703.993 2133.48l-10.437 2.05-1.491 30.73v-30.73l-11.928-2.05 11.928-2.05v-30.73l1.491 30.73 10.437 2.05z"/><path opacity=".7" d="M697.284 2145.78l-4.473-10.24-5.218 10.24 4.473-12.29-4.473-14.34 5.218 12.29 4.473-12.29-3.727 14.34 3.727 12.29z"/></g><g opacity=".7" fill="#fff"><path opacity=".7" d="M1137.14 1111.11l-10.44 2.05-1.49 30.73v-28.68l-11.93-4.1 11.93-2.05v-30.73l1.49 30.73 10.44 2.05z"/><path opacity=".7" d="M1130.43 1125.46l-4.47-10.24-5.22 10.24 3.73-14.34-3.73-14.34 4.47 12.29 5.22-12.29-3.73 14.34 3.73 14.34z"/></g><g opacity=".7" fill="#fff"><path opacity=".7" d="M1149.07 3016.52l-10.44 2.05-1.49 30.73v-30.73l-11.93-2.05 11.93-2.05v-30.73l1.49 30.73 10.44 2.05z"/><path opacity=".7" d="M1142.36 3030.87l-4.47-12.29-5.22 12.29 3.72-14.34-3.72-14.34 4.47 12.29 5.22-12.29-3.73 14.34 3.73 14.34z"/></g><g opacity=".7" fill="#fff"><path opacity=".7" d="M747.234 3895.47l-14.91 4.1-2.237 43.03v-43.03l-17.147-4.1 17.147-4.09v-43.03l2.237 43.03 14.91 4.09z"/><path opacity=".7" d="M738.288 3913.91l-7.455-14.34-7.455 14.34 5.964-18.44-5.964-20.49 7.455 18.44 6.71-18.44-5.219 20.49 5.964 18.44z"/></g><g opacity=".7" fill="#fff"><path opacity=".7" d="M1137.14 4192.56l-10.44 2.05-1.49 30.73v-30.73l-11.93-2.05 11.93-2.05v-30.73l1.49 30.73 10.44 2.05z"/><path opacity=".7" d="M1130.43 4204.86l-4.47-10.25-5.22 10.25 3.73-12.3-3.73-14.34 4.47 12.3 5.22-12.3-3.73 14.34 3.73 12.3z"/></g><g opacity=".7" fill="#fff"><path opacity=".7" d="M888.882 3538.97l-11.183 2.05-.746 30.74-.745-30.74-11.183-2.05 11.183-2.04.745-30.74.746 30.74 11.183 2.04z"/><path opacity=".7" d="M882.173 3551.27l-5.218-10.24-5.219 10.24 4.473-12.29-4.473-14.34 5.219 12.29 4.473-12.29-3.728 14.34 4.473 12.29z"/></g><g opacity=".7" fill="#fff"><path opacity=".7" d="M819.549 3104.62l-11.183 2.05-.745 30.73-.746-30.73-11.183-2.05 11.183-2.05.746-30.73.745 30.73 11.183 2.05z"/><path opacity=".7" d="M812.84 3116.92l-5.218-10.25-5.219 10.25 4.473-12.3-4.473-14.34 5.219 12.3 4.473-12.3-3.728 14.34 4.473 12.3z"/></g><g opacity=".7" fill="#fff"><path opacity=".7" d="M1114.77 3291.07l-10.43 4.1-1.5 28.68v-28.68l-11.92-4.1 11.92-2.05v-30.73l1.5 30.73 10.43 2.05z"/><path opacity=".7" d="M1108.06 3305.42l-4.47-10.24-5.22 10.24 3.73-12.29-3.73-16.39 4.48 12.29 5.21-12.29-3.72 14.34 3.72 14.34z"/></g><path opacity=".7" d="M291.29 3980.98c1.491 0 2.236 2.05 2.236 6.15 0 4.1-.745 6.15-2.236 6.15s-2.237-2.05-2.237-6.15c0-2.05.746-6.15 2.237-6.15zM296.247 3729.32c.745 0 1.491 2.05 1.491 4.1s-.746 4.1-1.491 4.1c-.746 0-1.491-2.05-1.491-4.1-.746-2.05 0-4.1 1.491-4.1zM406.388 4244.14c.746 0 1.491 2.04 1.491 4.09s-.745 4.1-1.491 4.1c-.745 0-1.49-2.05-1.49-4.1s.745-4.09 1.49-4.09zM370.966 1395.15c.745 0 1.491 2.05 1.491 4.1s-.746 4.1-1.491 4.1c-.745 0-1.49-2.05-1.49-4.1s.745-4.1 1.49-4.1zM208.697 3663.1c.745 0 1.49 2.05 1.49 4.1s-.745 4.09-1.49 4.09-1.491-2.04-1.491-4.09.746-4.1 1.491-4.1zM258.413 3678.63c.746 0 1.491 2.05 1.491 4.1s-.745 4.1-1.491 4.1c-.745 0-1.49-2.05-1.49-4.1s.745-4.1 1.49-4.1zM353.234 3483.32c1.491 0 2.982 4.1 2.982 8.2 0 4.09-1.491 8.19-2.982 8.19s-2.982-4.1-2.982-8.19c0-6.15 1.491-8.2 2.982-8.2zM207.079 4506.15c1.491 0 2.982 4.1 2.982 8.19 0 4.1-1.491 8.2-2.982 8.2s-2.982-4.1-2.982-8.2c0-4.09 1.491-8.19 2.982-8.19zM439.3 4657.29c1.491 0 2.982 4.1 2.982 8.19 0 4.1-1.491 8.2-2.982 8.2s-2.982-4.1-2.982-8.2c0-6.14 1.491-8.19 2.982-8.19zM228.972 4226.23c1.491 0 2.982 4.1 2.982 8.19 0 4.1-1.491 8.2-2.982 8.2s-2.982-4.1-2.982-8.2c0-4.09 1.491-8.19 2.982-8.19zM425.75 4435.75c1.491 0 2.236 2.04 2.236 6.14s-.745 6.15-2.236 6.15-2.237-2.05-2.237-6.15c0-4.1.746-6.14 2.237-6.14zM130.089 4283.48c1.491 0 2.236 2.04 2.236 6.14s-.745 6.15-2.236 6.15-2.237-2.05-2.237-6.15c0-4.1 1.491-6.14 2.237-6.14zM114.046 2087.77c.745 0 1.49 2.05 1.49 4.1s-.745 4.1-1.49 4.1c-.746 0-1.491-2.05-1.491-4.1s0-4.1 1.491-4.1zM50.7135 3953.76c.7453 0 1.4906 2.05 1.4906 4.1s-.7453 4.09-1.4906 4.09-1.4906-2.04-1.4906-4.09.7453-4.1 1.4906-4.1zM143.564 3786.88c.745 0 1.49 2.05 1.49 4.09 0 2.05-.745 4.1-1.49 4.1s-1.491-2.05-1.491-4.1c0-2.04.746-4.09 1.491-4.09zM468.408 4165.04c.745 0 1.49 2.05 1.49 4.1s-.745 4.1-1.49 4.1c-.746 0-1.491-2.05-1.491-4.1s.745-4.1 1.491-4.1zM90.2934 2305.88c1.4911 0 2.9821 4.09 2.9821 8.19s-1.491 8.2-2.9821 8.2c-1.491 0-2.982-4.1-2.982-8.2 0-6.15.7455-8.19 2.982-8.19zM397.026 4644.91c1.491 0 2.237 2.04 2.237 6.14s-.746 6.15-2.237 6.15-2.236-2.05-2.236-6.15c0-4.1.745-6.14 2.236-6.14zM413.18 3697.32c2.237 0 4.473 6.15 4.473 12.29 0 6.15-2.236 12.3-4.473 12.3-2.236 0-4.473-6.15-4.473-12.3.746-6.14 2.237-12.29 4.473-12.29zM329.505 4052.24c.746 0 1.491 2.05 1.491 4.1s-.745 4.1-1.491 4.1c-.745 0-1.491-2.05-1.491-4.1-.745-2.05 0-4.1 1.491-4.1zM458.744 3818.91c.745 0 1.491 2.05 1.491 4.1s-.746 4.1-1.491 4.1c-.745 0-1.49-2.05-1.49-4.1s.745-4.1 1.49-4.1zM328.367 1817.71c.745 0 1.491 2.05 1.491 4.1s-.746 4.1-1.491 4.1c-.745 0-1.491-2.05-1.491-4.1s.746-4.1 1.491-4.1zM492.31 1718.74c.745 0 1.491 2.05 1.491 4.1s-.746 4.1-1.491 4.1c-.745 0-1.491-2.05-1.491-4.1s.746-4.1 1.491-4.1zM470.562 2335.18c.745 0 1.491 2.05 1.491 4.1 0 2.04-.746 4.09-1.491 4.09-.745 0-1.491-2.05-1.491-4.09 0-2.05.746-4.1 1.491-4.1zM422.624 1464.29c.746 0 1.491 2.05 1.491 4.1s-.745 4.1-1.491 4.1c-.745 0-1.491-2.05-1.491-4.1-.745-2.05 0-4.1 1.491-4.1zM428.363 1816.02c1.491 0 2.982 4.09 2.982 8.19s-1.491 8.2-2.982 8.2-2.982-4.1-2.982-8.2 1.491-8.19 2.982-8.19zM273.779 1932.79c1.491 0 2.982 4.1 2.982 8.2 0 4.09-1.491 8.19-2.982 8.19s-2.982-4.1-2.982-8.19c0-4.1 1.491-8.2 2.982-8.2zM506.57 1829.58c.745 0 1.49 2.05 1.49 4.1s-.745 4.09-1.49 4.09-1.491-2.04-1.491-4.09.746-4.1 1.491-4.1zM95.5209 1660.32c.7452 0 1.4905 2.05 1.4905 4.1s-.7453 4.1-1.4905 4.1c-.7453 0-1.4906-2.05-1.4906-4.1s.7453-4.1 1.4906-4.1zM193.308 1699.35c.745 0 1.491 2.04 1.491 4.09s-.746 4.1-1.491 4.1c-.745 0-1.49-2.05-1.49-4.1s.745-4.09 1.49-4.09zM55.1507 1892.36c.7455 0 1.491 2.05 1.491 4.1 0 2.04-.7455 4.09-1.491 4.09s-1.491-2.05-1.491-4.09c-.7456-2.05 0-4.1 1.491-4.1zM31.5739 1757.6c1.491 0 2.9821 4.1 2.9821 8.19 0 4.1-1.4911 8.2-2.9821 8.2-1.4911 0-2.9821-4.1-2.9821-8.2 0-4.09 1.491-8.19 2.9821-8.19zM248.937 2134.31c1.491 0 2.982 4.1 2.982 8.2s-1.491 8.19-2.982 8.19-2.982-4.09-2.982-8.19 1.491-8.2 2.982-8.2zM363.071 2257.8c.746 0 1.491 2.05 1.491 4.1s-.745 4.1-1.491 4.1c-.745 0-1.49-2.05-1.49-4.1s.745-4.1 1.49-4.1zM457.691 4520.47c1.491 0 2.237 2.05 2.237 6.15 0 4.1-.746 6.15-2.237 6.15s-2.236-2.05-2.236-6.15c0-4.1.745-6.15 2.236-6.15zM314.123 2882.54c2.236 0 4.473 6.15 4.473 12.3 0 6.14-2.237 12.29-4.473 12.29-2.237 0-4.473-6.15-4.473-12.29.745-6.15 2.236-12.3 4.473-12.3zM304.785 3024.78c.745 0 1.49 2.05 1.49 4.1s-.745 4.1-1.49 4.1c-.746 0-1.491-2.05-1.491-4.1s.745-4.1 1.491-4.1zM122.69 3250.32c.746 0 1.491 2.05 1.491 4.1s-.745 4.1-1.491 4.1c-.745 0-1.491-2.05-1.491-4.1-.745-2.05 0-4.1 1.491-4.1zM468.767 2923.77c.746 0 1.491 2.05 1.491 4.1s-.745 4.1-1.491 4.1c-.745 0-1.49-2.05-1.49-4.1s.745-4.1 1.49-4.1zM427.654 3155.72c.745 0 1.49 2.05 1.49 4.1s-.745 4.1-1.49 4.1c-.746 0-1.491-2.05-1.491-4.1s.745-4.1 1.491-4.1zM499.29 2622.55c.745 0 1.49 2.05 1.49 4.1 0 2.04-.745 4.09-1.49 4.09-.746 0-1.491-2.05-1.491-4.09 0-2.05.745-4.1 1.491-4.1zM389.762 3260.92c.745 0 1.491 2.05 1.491 4.1s-.746 4.1-1.491 4.1c-.746 0-1.491-2.05-1.491-4.1-.746-2.05 0-4.1 1.491-4.1zM279.678 2590.21c.745 0 1.491 2.05 1.491 4.1s-.746 4.1-1.491 4.1c-.745 0-1.49-2.05-1.49-4.1s.745-4.1 1.49-4.1zM231.229 3044.73c.745 0 1.491 2.05 1.491 4.1s-.746 4.1-1.491 4.1c-.745 0-1.49-2.05-1.49-4.1s.745-4.1 1.49-4.1zM300.933 3561.78c1.491 0 2.982 4.1 2.982 8.2s-1.491 8.19-2.982 8.19c-1.492 0-2.983-4.09-2.983-8.19s1.491-8.2 2.983-8.2zM262.372 3471.99c1.491 0 2.982 4.1 2.982 8.19 0 4.1-1.491 8.2-2.982 8.2s-2.982-4.1-2.982-8.2c0-4.09 1.491-8.19 2.982-8.19zM460.565 3568.87c1.491 0 2.982 4.1 2.982 8.2 0 4.09-1.491 8.19-2.982 8.19s-2.982-4.1-2.982-8.19c0-4.1 1.491-8.2 2.982-8.2zM250.196 3139.87c1.491 0 2.982 4.1 2.982 8.19 0 4.1-1.491 8.2-2.982 8.2s-2.982-4.1-2.982-8.2c0-4.09 1.491-8.19 2.982-8.19zM447.015 3347.35c1.491 0 2.236 2.04 2.236 6.14s-.745 6.15-2.236 6.15c-1.492 0-2.237-2.05-2.237-6.15 0-4.1.745-6.14 2.237-6.14zM372.914 2739.38c2.236 0 4.473 6.14 4.473 12.29 0 6.15-2.237 12.29-4.473 12.29-2.237 0-4.473-6.14-4.473-12.29 0-8.19 1.491-12.29 4.473-12.29zM209.777 3300.1c1.491 0 2.237 2.05 2.237 6.14 0 4.1-.746 6.15-2.237 6.15s-2.236-2.05-2.236-6.15c0-2.04.745-6.14 2.236-6.14zM121.341 3395.83c.745 0 1.491 2.05 1.491 4.1s-.746 4.1-1.491 4.1c-.745 0-1.491-2.05-1.491-4.1s.746-4.1 1.491-4.1zM71.9781 2865.36c.7453 0 1.4906 2.05 1.4906 4.1s-.7453 4.09-1.4906 4.09-1.4906-2.04-1.4906-4.09.7453-4.1 1.4906-4.1zM169.765 2904.36c.745 0 1.49 2.05 1.49 4.1s-.745 4.1-1.49 4.1c-.746 0-1.491-2.05-1.491-4.1s.745-4.1 1.491-4.1zM31.608 3097.39c.7455 0 1.491 2.05 1.491 4.1s-.7455 4.1-1.4911 4.1c-.7455 0-1.491-2.05-1.491-4.1-.7455-2.05 0-4.1 1.4911-4.1zM166.319 2702.56c0-2.27-.667-4.1-1.49-4.1-.824 0-1.491 1.83-1.491 4.1 0 2.26.667 4.09 1.491 4.09.823 0 1.49-1.83 1.49-4.09zM163.709 3057.37c1.491 0 2.982 4.09 2.982 8.19s-1.491 8.2-2.982 8.2-2.982-4.1-2.982-8.2c0-6.14 1.491-8.19 2.982-8.19zM64.5183 3510.56c1.4911 0 2.9821 4.1 2.9821 8.2s-1.491 8.19-2.9821 8.19c-1.491 0-2.982-4.09-2.982-8.19s.7455-8.2 2.982-8.2zM50.2231 3288.93c1.4911 0 2.2366 2.05 2.2366 6.15 0 4.09-.7455 6.14-2.2366 6.14-1.491 0-2.2365-2.05-2.2365-6.14 0-4.1 1.491-6.15 2.2365-6.15zM154.642 3408.94c1.491 0 2.236 2.05 2.236 6.14 0 4.1-.745 6.15-2.236 6.15s-2.237-2.05-2.237-6.15c0-2.05.746-6.14 2.237-6.14zM111.173 3035.26c1.491 0 2.237 2.05 2.237 6.15 0 4.1-.746 6.14-2.237 6.14s-2.236-2.04-2.236-6.14c0-2.05.745-6.15 2.236-6.15zM142.125 3546.63c2.236 0 4.473 6.15 4.473 12.29 0 6.15-2.237 12.29-4.473 12.29-2.237 0-4.473-6.14-4.473-12.29 0-8.19 2.236-12.29 4.473-12.29zM408.637 2982.63c.745 0 1.491 2.05 1.491 4.09 0 2.05-.746 4.1-1.491 4.1-.745 0-1.49-2.05-1.49-4.1 0-2.04.745-4.09 1.49-4.09zM478.916 3434.11c1.491 0 2.236 2.05 2.236 6.15 0 4.1-.745 6.15-2.236 6.15s-2.237-2.05-2.237-6.15c0-4.1.746-6.15 2.237-6.15zM45.1421 2748.56c.7452 0 1.4905 2.05 1.4905 4.1s-.7453 4.1-1.4905 4.1c-.7453 0-1.4906-2.05-1.4906-4.1s.7453-4.1 1.4906-4.1zM227.903 2824.71c2.237 0 4.473 6.14 4.473 12.29 0 6.15-2.236 12.29-4.473 12.29-2.236 0-4.473-6.14-4.473-12.29 0-6.15 2.237-12.29 4.473-12.29z" fill="#fff"/><path opacity=".7" d="M161.731 2700.06c1.491 0 2.982 4.1 2.982 8.2 0 4.09-1.491 8.19-2.982 8.19s-2.982-4.1-2.982-8.19c0-6.15 1.491-8.2 2.982-8.2zM49.1004 2541.91c1.491 0 2.982 4.1 2.982 8.2s-1.491 8.2-2.982 8.2c-1.4911 0-2.9821-4.1-2.9821-8.2 0-6.15 1.491-8.2 2.9821-8.2zM248.037 2638.91c1.492 0 2.982 4.1 2.982 8.2 0 4.09-1.49 8.19-2.982 8.19-1.491 0-2.982-4.1-2.982-8.19 0-4.1 1.491-8.2 2.982-8.2zM265.685 2501.98c1.491 0 2.236 2.05 2.236 6.15 0 4.1-.745 6.15-2.236 6.15s-2.237-2.05-2.237-6.15c0-2.05 1.491-6.15 2.237-6.15zM191.16 1893.95c-.746 0-1.491-2.05-1.491-4.1s.745-4.09 1.491-4.09c.745 0 1.491 2.04 1.491 4.09.745 2.05 0 4.1-1.491 4.1zM217.011 2328.61c-.745 0-1.49-2.05-1.49-4.1s.745-4.1 1.49-4.1c.746 0 1.491 2.05 1.491 4.1s-.745 4.1-1.491 4.1zM34.2913 2250.4c-2.2365 0-4.4731-6.14-4.4731-12.29 0-6.15 2.2366-12.29 4.4731-12.29 2.2366 0 4.4731 6.14 4.4731 12.29 0 6.15-2.2366 12.29-4.4731 12.29zM91.9085 1895.72c-1.4911 0-2.9821-4.1-2.9821-8.19 0-4.1 1.491-8.2 2.9821-8.2 1.491 0 2.982 4.1 2.982 8.2 0 4.09-1.491 8.19-2.982 8.19zM326.963 2012.4c-.745 0-1.49-2.04-1.49-4.09s.745-4.1 1.49-4.1c.746 0 1.491 2.05 1.491 4.1s-.745 4.09-1.491 4.09zM487.954 1954.03c-1.491 0-2.982-4.1-2.982-8.2s1.491-8.19 2.982-8.19 2.982 4.09 2.982 8.19-.745 8.2-2.982 8.2zM33.2659 3784.98c-.7453 0-1.4906-2.04-1.4906-4.09s.7453-4.1 1.4906-4.1c.7452 0 1.4905 2.05 1.4905 4.1s-.7453 4.09-1.4905 4.09zM117.044 2252.33c-1.491 0-2.982-4.1-2.982-8.2 0-4.09 1.491-8.19 2.982-8.19s2.982 4.1 2.982 8.19c0 4.1-1.491 8.2-2.982 8.2zM410.946 2494.63c-1.491 0-2.982-4.1-2.982-8.2s1.491-8.19 2.982-8.19 2.982 4.09 2.982 8.19c0 6.15-1.491 8.2-2.982 8.2zM333.34 2458.57c-2.237 0-4.473-6.15-4.473-12.3 0-6.14 2.236-12.29 4.473-12.29 2.236 0 4.473 6.15 4.473 12.29-.746 8.2-2.237 12.3-4.473 12.3zM350.847 932.613c1.491 0 2.236 2.049 2.236 6.147 0 4.097-.745 6.146-2.236 6.146s-2.237-2.049-2.237-6.146c0-2.049.746-6.147 2.237-6.147zM343.117 1062.77c.745 0 1.491 2.05 1.491 4.1s-.746 4.1-1.491 4.1c-.745 0-1.491-2.05-1.491-4.1s.746-4.1 1.491-4.1zM355.804 680.948c.745 0 1.491 2.049 1.491 4.098s-.746 4.097-1.491 4.097c-.746 0-1.491-2.048-1.491-4.097-.746-2.049 0-4.098 1.491-4.098zM507.059 963.802c.746 0 1.491 2.049 1.491 4.098s-.745 4.098-1.491 4.098c-.745 0-1.49-2.049-1.49-4.098s.745-4.098 1.49-4.098zM60.0512 4125.42c.7455 0 1.491 2.05 1.491 4.1s-.7455 4.1-1.491 4.1-1.491-2.05-1.491-4.1c-.7455-2.05 0-4.1 1.491-4.1zM422.958 186.091c.746 0 1.491 2.049 1.491 4.097 0 2.049-.745 4.098-1.491 4.098-.745 0-1.491-2.049-1.491-4.098-.745-2.048 0-4.097 1.491-4.097zM317.97 630.26c.746 0 1.491 2.049 1.491 4.098s-.745 4.097-1.491 4.097c-.745 0-1.49-2.048-1.49-4.097 0-2.049.745-4.098 1.49-4.098zM269.561 1082.72c.746 0 1.491 2.05 1.491 4.1s-.745 4.1-1.491 4.1c-.745 0-1.49-2.05-1.49-4.1s.745-4.1 1.49-4.1zM367.799 1173.11c1.491 0 2.237 2.05 2.237 6.14 0 4.1-.746 6.15-2.237 6.15s-2.237-2.05-2.237-6.15c0-2.04.746-6.14 2.237-6.14zM300.704 1509.97c1.491 0 2.982 4.1 2.982 8.2s-1.491 8.19-2.982 8.19-2.982-4.09-2.982-8.19 1.491-8.2 2.982-8.2zM288.528 1177.85c1.491 0 2.982 4.1 2.982 8.2s-1.491 8.2-2.982 8.2-2.982-4.1-2.982-8.2 1.491-8.2 2.982-8.2zM89.8243 576.133c.7455 0 1.491 2.049 1.491 4.098 0 2.048-.7455 4.097-1.491 4.097s-1.4911-2.049-1.4911-4.097c-.7455-2.049 0-4.098 1.4911-4.098zM110.27 905.386c.746 0 1.491 2.049 1.491 4.098s-.745 4.098-1.491 4.098c-.745 0-1.49-2.049-1.49-4.098s.745-4.098 1.49-4.098zM208.058 944.405c.746 0 1.491 2.049 1.491 4.097 0 2.049-.745 4.098-1.491 4.098-.745 0-1.49-2.049-1.49-4.098 0-2.048.745-4.097 1.49-4.097zM69.8998 1137.43c.7455 0 1.491 2.05 1.491 4.1s-.7455 4.1-1.491 4.1-1.491-2.05-1.491-4.1c-.7455-2.05 0-4.1 1.491-4.1zM203.122 738.504c.745 0 1.491 2.049 1.491 4.097 0 2.049-.746 4.098-1.491 4.098-.745 0-1.49-2.049-1.49-4.098 0-2.048.745-4.097 1.49-4.097zM31.3031 1240.52c.7453 0 1.4906 2.05 1.4906 4.09 0 2.05-.7453 4.1-1.4906 4.1-.7452 0-1.4905-2.05-1.4905-4.1 0-2.04.7453-4.09 1.4905-4.09zM46.3233 1002.68c1.491 0 2.982 4.1 2.982 8.19 0 4.1-1.491 8.2-2.982 8.2-1.4911 0-2.9821-4.1-2.9821-8.2 0-4.09 1.491-8.19 2.9821-8.19zM202.042 1095.35c1.491 0 2.982 4.1 2.982 8.2s-1.491 8.19-2.982 8.19-2.982-4.09-2.982-8.19 1.491-8.2 2.982-8.2zM159.908 1226.62c1.491 0 2.982 4.1 2.982 8.2s-1.491 8.19-2.982 8.19-2.982-4.09-2.982-8.19.745-8.2 2.982-8.2zM102.851 1548.57c1.491 0 2.982 4.09 2.982 8.19s-1.491 8.2-2.982 8.2-2.9825-4.1-2.9825-8.2.7455-8.19 2.9825-8.19zM88.5158 1328.95c1.4911 0 2.2366 2.05 2.2366 6.15 0 4.1-.7455 6.15-2.2366 6.15-1.491 0-2.2365-2.05-2.2365-6.15 0-4.1 1.491-6.15 2.2365-6.15zM389.062 1003.87c.746 0 1.491 2.05 1.491 4.1s-.745 4.1-1.491 4.1c-.745 0-1.491-2.05-1.491-4.1-.745-2.05 0-4.1 1.491-4.1zM419.665 2223.05c1.491 0 2.982 4.1 2.982 8.19 0 4.1-1.491 8.2-2.982 8.2s-2.982-4.1-2.982-8.2c0-4.09.746-8.19 2.982-8.19zM517.881 639.174c.746 0 1.491 2.049 1.491 4.097 0 2.049-.745 4.098-1.491 4.098-.745 0-1.49-2.049-1.49-4.098 0-2.048.745-4.097 1.49-4.097zM517.248 1472.1c1.491 0 2.236 2.05 2.236 6.14 0 4.1-.745 6.15-2.236 6.15s-2.237-2.05-2.237-6.15c0-4.09.746-6.14 2.237-6.14zM182.246 201.947c.746 0 1.491 2.049 1.491 4.098s-.745 4.098-1.491 4.098c-.745 0-1.491-2.049-1.491-4.098-.745-2.049 0-4.098 1.491-4.098zM487.209 107.35c.746 0 1.491 2.048 1.491 4.097 0 2.049-.745 4.098-1.491 4.098-.745 0-1.49-2.049-1.49-4.098s.745-4.097 1.49-4.097zM360.489 513.41c1.491 0 2.982 4.097 2.982 8.195 0 4.097-1.491 8.195-2.982 8.195s-2.982-4.098-2.982-8.195c0-4.098 1.491-8.195 2.982-8.195zM321.928 423.615c1.491 0 2.983 4.098 2.983 8.196s-1.492 8.195-2.983 8.195-2.982-4.097-2.982-8.195c0-6.147 1.491-8.196 2.982-8.196zM520.121 520.498c1.491 0 2.982 4.098 2.982 8.196 0 4.097-1.491 8.195-2.982 8.195s-2.982-4.098-2.982-8.195c0-4.098 1.491-8.196 2.982-8.196zM309.753 91.4935c1.491 0 2.982 4.0974 2.982 8.1949 0 4.0976-1.491 8.1946-2.982 8.1946s-2.982-4.097-2.982-8.1946c0-6.1463 1.491-8.1949 2.982-8.1949zM506.57 298.97c1.491 0 2.237 2.049 2.237 6.147 0 4.097-.746 6.146-2.237 6.146s-2.236-2.049-2.236-6.146c0-4.098.745-6.147 2.236-6.147zM269.333 251.724c1.491 0 2.236 2.049 2.236 6.147 0 4.098-.745 6.147-2.236 6.147s-2.237-2.049-2.237-6.147c0-4.098.746-6.147 2.237-6.147zM91.164 49.0215c.7455 0 1.491 2.0487 1.491 4.0975 0 2.0487-.7455 4.0974-1.491 4.0974s-1.491-2.0487-1.491-4.0974c-.7455-2.0488 0-4.0975 1.491-4.0975zM52.5673 152.099c.7453 0 1.4905 2.049 1.4905 4.098s-.7452 4.097-1.4905 4.097-1.4905-2.048-1.4905-4.097c0-2.049.7452-4.098 1.4905-4.098zM437.257 2732.42c2.237 0 4.473 6.15 4.473 12.3 0 6.14-2.236 12.29-4.473 12.29-2.237 0-4.473-6.15-4.473-12.29.745-8.2 2.236-12.3 4.473-12.3z" fill="#fff"/><g opacity=".7" fill="#fff"><path opacity=".7" d="M109.22 2454.78l15.656-2.05 1.491-45.07.745 43.03 16.402 4.09-16.402 4.1-.745 43.03-1.491-43.03-15.656-4.1z"/><path opacity=".7" d="M118.912 2436.35l6.71 14.34 7.455-14.34-5.964 18.44 6.709 20.49-7.455-16.4-7.455 16.4 5.964-20.49-5.964-18.44z"/></g><g opacity=".7" fill="#fff"><path opacity=".7" d="M68.136 2914.49l15.6558-4.1 1.491-43.02.7455 43.02 16.4017 4.1-16.4017 4.1-.7455 43.02-1.491-43.02-15.6558-4.1z"/><path opacity=".7" d="M77.8279 2896.05l7.4551 14.34 6.7096-14.34-5.2185 18.44 5.9641 20.49-7.4552-18.44-6.7096 18.44 5.2186-20.49-5.9641-18.44z"/></g><g opacity=".7" fill="#fff"><path opacity=".7" d="M484.875 2677.57l10.437-2.05 1.491-30.74v30.74l11.928 2.05-11.928 2.04v30.74l-1.491-30.74-10.437-2.04z"/><path opacity=".7" d="M491.584 2665.27l4.473 10.24 5.219-10.24-4.473 12.29 4.473 14.34-5.219-12.29-4.473 12.29 3.728-14.34-3.728-12.29z"/></g><g opacity=".7" fill="#fff"><path opacity=".7" d="M32.4041 3634.79l10.4372-2.05 1.491-30.73v28.68l11.9282 4.1-11.9282 2.05v30.73l-1.491-30.73-10.4372-2.05z"/><path opacity=".7" d="M39.1135 3620.44l4.4731 10.25 5.2186-10.25-3.7276 14.35 3.7276 14.34-4.4731-12.29-5.2186 12.29 3.7276-14.34-3.7276-14.35z"/></g><g opacity=".7" fill="#fff"><path opacity=".7" d="M57.6659 1730.36l10.4372-2.05 1.491-30.73v30.73l11.9282 2.05-11.9282 2.05v30.73l-1.491-30.73-10.4372-2.05z"/><path opacity=".7" d="M64.375 1716.01l4.4731 12.3 5.2186-12.3-3.7276 14.34 3.7276 14.35-4.4731-12.3-5.2186 12.3 3.7276-14.35-3.7276-14.34z"/></g><g opacity=".7" fill="#fff"><path opacity=".7" d="M476.063 912.513l14.911-4.097 2.236-43.026v43.026l17.147 4.097-17.147 4.098v43.026l-2.236-43.026-14.911-4.098z"/><path opacity=".7" d="M485.01 894.078l7.455 14.342 7.455-14.342-5.964 18.44 5.964 20.488-7.455-18.44-6.71 18.44 5.219-20.488-5.964-18.44z"/></g><g opacity=".7" fill="#fff"><path opacity=".7" d="M92.5209 557.768l10.4371-2.049 1.491-30.733v30.733l11.928 2.049-11.928 2.048v30.733l-1.491-30.733-10.4371-2.048z"/><path opacity=".7" d="M99.2301 545.467l4.4729 10.245 5.219-10.245-3.728 12.293 3.728 14.342-4.473-12.293-5.2189 12.293 3.7279-14.342-3.7279-12.293z"/></g><g opacity=".7" fill="#fff"><path opacity=".7" d="M327.672 1246.91l11.183-2.05.746-30.73.745 30.73 11.183 2.05-11.183 2.05-.745 30.73-.746-30.73-11.183-2.05z"/><path opacity=".7" d="M334.382 1234.61l5.218 10.24 5.219-10.24-4.473 12.29 4.473 14.34-5.219-12.29-4.473 12.29 3.728-14.34-4.473-12.29z"/></g><g opacity=".7" fill="#fff"><path opacity=".7" d="M388.432 1690.84l11.182-2.05.746-30.73.745 30.73 11.183 2.05-11.183 2.05-.745 30.73-.746-30.73-11.182-2.05z"/><path opacity=".7" d="M395.141 1678.54l5.218 10.24 5.219-10.24-4.473 12.29 4.473 14.34-5.219-12.29-4.473 12.29 3.728-14.34-4.473-12.29z"/></g><path opacity=".7" d="M576.306 3980.99c1.491 0 2.236 2.04 2.236 6.14s-.745 6.15-2.236 6.15-2.237-2.05-2.237-6.15c0-2.05.746-6.14 2.237-6.14zM581.262 3729.32c.746 0 1.492 2.05 1.492 4.1s-.746 4.1-1.492 4.1c-.745 0-1.491-2.05-1.491-4.1-.745-2.05 0-4.1 1.491-4.1zM655.982 1395.15c.745 0 1.49 2.05 1.49 4.1s-.745 4.1-1.49 4.1c-.746 0-1.491-2.05-1.491-4.1s.745-4.1 1.491-4.1zM543.429 3678.63c.745 0 1.491 2.05 1.491 4.1s-.746 4.1-1.491 4.1c-.745 0-1.491-2.05-1.491-4.1s.746-4.1 1.491-4.1zM638.25 3483.32c1.491 0 2.982 4.1 2.982 8.2 0 4.09-1.491 8.19-2.982 8.19s-2.982-4.1-2.982-8.19c0-6.15 1.491-8.2 2.982-8.2zM513.987 4226.23c1.491 0 2.982 4.1 2.982 8.19 0 4.1-1.491 8.2-2.982 8.2s-2.982-4.1-2.982-8.2c0-4.09 1.491-8.19 2.982-8.19zM614.521 4052.24c.746 0 1.491 2.05 1.491 4.1s-.745 4.1-1.491 4.1c-.745 0-1.491-2.05-1.491-4.1-.745-2.05 0-4.1 1.491-4.1zM613.383 1817.71c.745 0 1.49 2.05 1.49 4.1s-.745 4.1-1.49 4.1-1.491-2.05-1.491-4.1.746-4.1 1.491-4.1zM558.794 1932.79c1.491 0 2.982 4.1 2.982 8.2 0 4.09-1.491 8.19-2.982 8.19s-2.982-4.1-2.982-8.19c0-4.1 1.491-8.2 2.982-8.2zM533.952 2134.31c1.491 0 2.982 4.1 2.982 8.2s-1.491 8.19-2.982 8.19-2.982-4.09-2.982-8.19 1.491-8.2 2.982-8.2zM648.087 2257.8c.745 0 1.491 2.05 1.491 4.1s-.746 4.1-1.491 4.1c-.745 0-1.491-2.05-1.491-4.1s.746-4.1 1.491-4.1zM599.138 2882.54c2.237 0 4.473 6.15 4.473 12.3 0 6.14-2.236 12.29-4.473 12.29-2.236 0-4.473-6.15-4.473-12.29.746-6.15 2.237-12.3 4.473-12.3zM589.801 3024.78c.745 0 1.49 2.05 1.49 4.1s-.745 4.1-1.49 4.1c-.746 0-1.491-2.05-1.491-4.1s.745-4.1 1.491-4.1zM674.777 3260.92c.745 0 1.491 2.05 1.491 4.1s-.746 4.1-1.491 4.1c-.746 0-1.491-2.05-1.491-4.1-.746-2.05 0-4.1 1.491-4.1zM564.694 2590.21c.745 0 1.49 2.05 1.49 4.1s-.745 4.1-1.49 4.1-1.491-2.05-1.491-4.1.746-4.1 1.491-4.1zM516.245 3044.73c.745 0 1.49 2.05 1.49 4.1s-.745 4.1-1.49 4.1-1.491-2.05-1.491-4.1.746-4.1 1.491-4.1zM585.948 3561.78c1.491 0 2.982 4.1 2.982 8.2s-1.491 8.19-2.982 8.19-2.982-4.09-2.982-8.19 1.491-8.2 2.982-8.2zM547.388 3471.99c1.491 0 2.982 4.1 2.982 8.19 0 4.1-1.491 8.2-2.982 8.2s-2.982-4.1-2.982-8.2c0-4.09 1.491-8.19 2.982-8.19zM535.212 3139.87c1.491 0 2.982 4.1 2.982 8.19 0 4.1-1.491 8.2-2.982 8.2s-2.982-4.1-2.982-8.2c0-4.09 1.491-8.19 2.982-8.19zM657.929 2739.38c2.237 0 4.473 6.14 4.473 12.29 0 6.15-2.236 12.29-4.473 12.29-2.236 0-4.473-6.14-4.473-12.29 0-8.19 1.491-12.29 4.473-12.29zM512.918 2824.71c2.237 0 4.473 6.14 4.473 12.29 0 6.15-2.236 12.29-4.473 12.29-2.236 0-4.473-6.14-4.473-12.29 0-6.15 2.237-12.29 4.473-12.29zM533.053 2638.91c1.491 0 2.982 4.1 2.982 8.2 0 4.09-1.491 8.19-2.982 8.19s-2.982-4.1-2.982-8.19c0-4.1 1.491-8.2 2.982-8.2zM550.7 2501.98c1.491 0 2.236 2.05 2.236 6.15 0 4.1-.745 6.15-2.236 6.15s-2.237-2.05-2.237-6.15c0-2.05 1.491-6.15 2.237-6.15zM502.027 2328.61c-.746 0-1.491-2.05-1.491-4.1s.745-4.1 1.491-4.1c.745 0 1.49 2.05 1.49 4.1s-.745 4.1-1.49 4.1zM611.979 2012.4c-.745 0-1.491-2.04-1.491-4.09s.746-4.1 1.491-4.1c.745 0 1.49 2.05 1.49 4.1s-.745 4.09-1.49 4.09zM618.355 2458.57c-2.236 0-4.473-6.15-4.473-12.3 0-6.14 2.237-12.29 4.473-12.29 2.237 0 4.473 6.15 4.473 12.29-.745 8.2-2.236 12.3-4.473 12.3zM635.862 932.613c1.491 0 2.236 2.049 2.236 6.146 0 4.098-.745 6.146-2.236 6.146-1.492 0-2.237-2.048-2.237-6.146 0-2.049.745-6.146 2.237-6.146zM628.132 1062.77c.745 0 1.49 2.05 1.49 4.1s-.745 4.1-1.49 4.1-1.491-2.05-1.491-4.1.746-4.1 1.491-4.1zM640.819 680.948c.745 0 1.491 2.049 1.491 4.098s-.746 4.097-1.491 4.097c-.746 0-1.491-2.048-1.491-4.097-.746-2.049 0-4.098 1.491-4.098zM602.985 630.26c.746 0 1.491 2.049 1.491 4.098s-.745 4.097-1.491 4.097c-.745 0-1.49-2.048-1.49-4.097 0-2.049.745-4.098 1.49-4.098zM554.577 1082.72c.745 0 1.491 2.05 1.491 4.1s-.746 4.1-1.491 4.1c-.745 0-1.491-2.05-1.491-4.1s.746-4.1 1.491-4.1zM652.814 1173.11c1.491 0 2.237 2.05 2.237 6.14 0 4.1-.746 6.15-2.237 6.15s-2.236-2.05-2.236-6.15c0-2.04.745-6.14 2.236-6.14zM585.72 1509.97c1.491 0 2.982 4.1 2.982 8.2s-1.491 8.19-2.982 8.19-2.982-4.09-2.982-8.19 1.491-8.2 2.982-8.2zM573.544 1177.85c1.491 0 2.982 4.1 2.982 8.2s-1.491 8.19-2.982 8.19-2.982-4.09-2.982-8.19 1.491-8.2 2.982-8.2zM674.077 1003.87c.746 0 1.491 2.05 1.491 4.1s-.745 4.1-1.491 4.1c-.745 0-1.491-2.05-1.491-4.1-.745-2.05 0-4.1 1.491-4.1zM645.505 513.41c1.491 0 2.982 4.097 2.982 8.195s-1.491 8.195-2.982 8.195-2.982-4.097-2.982-8.195 1.491-8.195 2.982-8.195zM606.944 423.616c1.491 0 2.982 4.098 2.982 8.196 0 4.097-1.491 8.195-2.982 8.195s-2.982-4.098-2.982-8.195c0-6.147 1.491-8.196 2.982-8.196zM594.768 91.4932c1.491 0 2.982 4.0974 2.982 8.195 0 4.0978-1.491 8.1948-2.982 8.1948s-2.982-4.097-2.982-8.1948c0-6.1463 1.491-8.195 2.982-8.195zM554.348 251.725c1.492 0 2.237 2.049 2.237 6.146 0 4.098-.745 6.147-2.237 6.147-1.491 0-2.236-2.049-2.236-6.147 0-4.097.745-6.146 2.236-6.146z" fill="#fff"/><g opacity=".7" fill="#fff"><path opacity=".7" d="M612.688 1246.91l11.182-2.05.746-30.73.745 30.73 11.183 2.05-11.183 2.05-.745 30.73-.746-30.73-11.182-2.05z"/><path opacity=".7" d="M619.396 1234.61l5.219 10.24 5.219-10.24-4.473 12.29 4.473 14.34-5.219-12.29-4.473 12.29 3.728-14.34-4.474-12.29z"/></g><g opacity=".7" fill="#fff"><path opacity=".7" d="M673.447 1690.84l11.183-2.05.745-30.73.746 30.73 11.183 2.05-11.183 2.05-.746 30.73-.745-30.73-11.183-2.05z"/><path opacity=".7" d="M680.156 1678.54l5.219 10.24 5.218-10.24-4.473 12.29 4.473 14.34-5.218-12.29-4.473 12.29 3.727-14.34-4.473-12.29z"/></g><g opacity=".7" fill="#fff"><path opacity=".7" d="M97.2673 1461.25l10.4377-4.1 1.491-28.68v28.68l11.928 4.1-11.928 2.05v30.73l-1.491-30.73-10.4377-2.05z"/><path opacity=".7" d="M103.977 1446.9l4.473 10.24 5.218-10.24-3.727 12.29 3.727 16.39-4.473-12.29-5.218 12.29 3.727-14.34-3.727-14.34z"/></g><g opacity=".7" fill="#fff"><path opacity=".7" d="M97.2673 1461.25l10.4377-4.1 1.491-28.68v28.68l11.928 4.1-11.928 2.05v30.73l-1.491-30.73-10.4377-2.05zM475.769 1607l4.473 10.24 5.219-10.24-3.727 12.29 3.727 16.39-4.473-12.29-5.219 12.29 3.728-14.34-3.728-14.34z"/><g opacity=".7"><path opacity=".7" d="M198.683 1020.78l10.437-4.1 1.491-28.68v28.68l11.928 4.1-11.928 2.05v30.73l-1.491-30.73-10.437-2.05z"/><path opacity=".7" d="M205.392 1006.43l4.473 10.25 5.219-10.25-3.728 12.3 3.728 16.39-4.473-12.3-5.219 12.3 3.728-14.35-3.728-14.34z"/></g></g><path opacity=".7" d="M680.874 5437.24c-.746 0-1.491-2.05-1.491-4.1s.745-4.09 1.491-4.09c.745 0 1.49 2.04 1.49 4.09s-.745 4.1-1.49 4.1zM870.244 5201.63c-2.236 0-4.473-6.15-4.473-12.29 0-6.15 2.237-12.3 4.473-12.3 2.237 0 4.474 6.15 4.474 12.3-.746 6.14-2.237 12.29-4.474 12.29zM876.954 5058.21c-.745 0-1.491-2.05-1.491-4.1s.746-4.1 1.491-4.1c.745 0 1.491 2.05 1.491 4.1s-.746 4.1-1.491 4.1zM1054.39 4806.2c-.75 0-1.5-2.04-1.5-4.09s.75-4.1 1.5-4.1c.74 0 1.49 2.05 1.49 4.1.74 2.05 0 4.09-1.49 4.09zM715.178 5183.18c-.745 0-1.491-2.05-1.491-4.1s.746-4.09 1.491-4.09c.745 0 1.49 2.04 1.49 4.09s-.745 4.1-1.49 4.1zM751.707 4945.52c-.745 0-1.49-2.05-1.49-4.1s.745-4.09 1.49-4.09c.746 0 1.491 2.04 1.491 4.09s-.745 4.1-1.491 4.1zM690.576 5488.46c-.746 0-1.491-2.05-1.491-4.09 0-2.05.745-4.1 1.491-4.1.745 0 1.49 2.05 1.49 4.1 0 2.04-.745 4.09-1.49 4.09zM787.493 4834.88c-.746 0-1.491-2.05-1.491-4.1s.745-4.1 1.491-4.1c.745 0 1.491 2.05 1.491 4.1.745 2.05 0 4.1-1.491 4.1zM910.503 5488.46c-.745 0-1.49-2.05-1.49-4.09 0-2.05.745-4.1 1.49-4.1.746 0 1.491 2.05 1.491 4.1 0 2.04-.745 4.09-1.491 4.09zM950.015 5027.47c-.745 0-1.49-2.05-1.49-4.1 0-2.04.745-4.09 1.49-4.09.746 0 1.491 2.05 1.491 4.09 0 2.05-.745 4.1-1.491 4.1zM929.14 4935.27c-1.491 0-2.983-4.1-2.983-8.2 0-4.09 1.492-8.19 2.983-8.19s2.982 4.1 2.982 8.19c0 4.1-1.491 8.2-2.982 8.2zM814.33 5353.23c-2.236 0-4.473-6.14-4.473-12.29 0-6.15 2.237-12.29 4.473-12.29 2.237 0 4.473 6.14 4.473 12.29 0 8.19-1.491 12.29-4.473 12.29zM966.415 4769.33c-1.491 0-2.237-2.05-2.237-6.15 0-4.1.746-6.15 2.237-6.15s2.236 2.05 2.236 6.15c0 2.05-.745 6.15-2.236 6.15zM1112.54 5183.18c-.75 0-1.49-2.05-1.49-4.1s.74-4.1 1.49-4.1c.74 0 1.49 2.05 1.49 4.1s-.75 4.1-1.49 4.1zM1014.13 5158.61c-.75 0-1.49-2.05-1.49-4.1s.74-4.1 1.49-4.1c.74 0 1.49 2.05 1.49 4.1s-.75 4.1-1.49 4.1zM1148.32 4945.52c-.74 0-1.49-2.05-1.49-4.1s.75-4.09 1.49-4.09c.75 0 1.49 2.04 1.49 4.09.75 2.05 0 4.1-1.49 4.1zM1021.58 5359.39c0 2.27.67 4.1 1.49 4.1.83 0 1.5-1.83 1.5-4.1 0-2.26-.67-4.1-1.5-4.1-.82 0-1.49 1.84-1.49 4.1zM1184.85 4836.94c-.74 0-1.49-2.05-1.49-4.1s.75-4.1 1.49-4.1c.75 0 1.49 2.05 1.49 4.1s-.74 4.1-1.49 4.1zM1174.41 5074.6c-1.49 0-2.98-4.09-2.98-8.19s1.49-8.2 2.98-8.2 2.99 4.1 2.99 8.2-1.5 8.19-2.99 8.19zM1017.11 5004.94c-1.49 0-2.98-4.1-2.98-8.2s1.49-8.19 2.98-8.19 2.98 4.09 2.98 8.19c0 6.15-1.49 8.2-2.98 8.2zM1056.62 4867.66c-1.49 0-2.98-4.1-2.98-8.19 0-4.1 1.49-8.2 2.98-8.2s2.98 4.1 2.98 8.2c0 6.14-.74 8.19-2.98 8.19zM1070.04 5019.28c-1.49 0-2.23-2.05-2.23-6.14 0-4.1.74-6.15 2.23-6.15s2.24 2.05 2.24 6.15c0 2.05-.75 6.14-2.24 6.14zM774.073 5115.57c-.745 0-1.49-2.05-1.49-4.1 0-2.04.745-4.09 1.49-4.09.746 0 1.491 2.05 1.491 4.09 0 2.05-.745 4.1-1.491 4.1zM1141.61 5295.86c-.74 0-1.49-2.04-1.49-4.09s.75-4.1 1.49-4.1c.75 0 1.49 2.05 1.49 4.1s-.74 4.09-1.49 4.09zM957.469 5246.71c-2.236 0-4.473-6.15-4.473-12.3 0-6.14 2.237-12.29 4.473-12.29 2.237 0 4.473 6.15 4.473 12.29 0 6.15-2.236 12.3-4.473 12.3z" fill="#fff"/><path opacity=".7" d="M1026.06 5361.44c-1.49 0-2.99-4.1-2.99-8.2 0-4.09 1.5-8.19 2.99-8.19 1.49 0 2.98 4.1 2.98 8.19 0 6.15-1.49 8.2-2.98 8.2zM1141.61 5502.8c-1.49 0-2.98-4.1-2.98-8.19 0-4.1 1.49-8.2 2.98-8.2s2.98 4.1 2.98 8.2c0 6.14-1.49 8.19-2.98 8.19zM941.068 5435.19c-1.491 0-2.982-4.1-2.982-8.2 0-4.09 1.491-8.19 2.982-8.19s2.982 4.1 2.982 8.19c0 4.1-1.491 8.2-2.982 8.2zM750.216 5369.64c-2.237 0-4.473-6.15-4.473-12.3 0-6.14 2.236-12.29 4.473-12.29 2.236 0 4.473 6.15 4.473 12.29-.746 8.2-2.237 12.3-4.473 12.3z" fill="#fff"/><g opacity=".7" fill="#fff"><path opacity=".7" d="M1115.52 5136.07l-15.66 4.1-1.49 43.02-.74-43.02-16.4-4.1 16.4-4.1.74-43.02 1.49 43.02 15.66 4.1z"/><path opacity=".7" d="M1105.83 5154.51l-7.46-14.34-6.71 14.34 5.22-18.44-5.96-20.49 7.45 18.44 6.71-18.44-5.22 20.49 5.97 18.44z"/></g><g opacity=".7" fill="#fff"><path opacity=".7" d="M703.994 5433.15l-10.438 2.05-1.491 30.73v-30.73l-11.928-2.05 11.928-2.05v-30.73l1.491 30.73 10.438 2.05z"/><path opacity=".7" d="M697.284 5445.45l-4.473-10.24-5.218 10.24 4.473-12.29-4.473-14.34 5.218 12.29 4.473-12.29-3.727 14.34 3.727 12.29z"/></g><path opacity=".7" d="M114.046 5387.44c.745 0 1.49 2.05 1.49 4.1s-.745 4.1-1.49 4.1-1.491-2.05-1.491-4.1 0-4.1 1.491-4.1zM328.368 5117.38c.745 0 1.49 2.05 1.49 4.1s-.745 4.1-1.49 4.1c-.746 0-1.491-2.05-1.491-4.1s.745-4.1 1.491-4.1zM492.31 5018.41c.746 0 1.491 2.05 1.491 4.1s-.745 4.09-1.491 4.09c-.745 0-1.49-2.04-1.49-4.09s.745-4.1 1.49-4.1zM422.624 4763.96c.746 0 1.491 2.05 1.491 4.1s-.745 4.1-1.491 4.1c-.745 0-1.491-2.05-1.491-4.1-.745-2.05 0-4.1 1.491-4.1zM428.363 5115.68c1.491 0 2.982 4.1 2.982 8.2s-1.491 8.19-2.982 8.19-2.982-4.09-2.982-8.19 1.491-8.2 2.982-8.2zM273.778 5232.46c1.491 0 2.983 4.1 2.983 8.2s-1.492 8.19-2.983 8.19-2.982-4.09-2.982-8.19 1.491-8.2 2.982-8.2zM506.57 5129.25c.745 0 1.491 2.05 1.491 4.1s-.746 4.09-1.491 4.09c-.745 0-1.491-2.04-1.491-4.09s.746-4.1 1.491-4.1zM95.521 4959.99c.7453 0 1.4906 2.05 1.4906 4.1s-.7453 4.1-1.4906 4.1-1.4906-2.05-1.4906-4.1.7453-4.1 1.4906-4.1zM193.309 4999.01c.745 0 1.49 2.05 1.49 4.1s-.745 4.1-1.49 4.1c-.746 0-1.491-2.05-1.491-4.1s.745-4.1 1.491-4.1zM55.1503 5192.03c.7455 0 1.491 2.05 1.491 4.1s-.7455 4.09-1.491 4.09-1.491-2.04-1.491-4.09c-.7455-2.05 0-4.1 1.491-4.1zM31.5742 5057.27c1.4911 0 2.9821 4.1 2.9821 8.19 0 4.1-1.491 8.2-2.9821 8.2-1.491 0-2.982-4.1-2.982-8.2 0-4.09 1.491-8.19 2.982-8.19zM248.937 5433.98c1.491 0 2.982 4.1 2.982 8.2s-1.491 8.19-2.982 8.19-2.982-4.09-2.982-8.19 1.491-8.2 2.982-8.2zM191.16 5193.62c-.745 0-1.491-2.05-1.491-4.1s.746-4.1 1.491-4.1c.746 0 1.491 2.05 1.491 4.1.746 2.05 0 4.1-1.491 4.1zM34.2911 5550.07c-2.2366 0-4.4731-6.15-4.4731-12.29 0-6.15 2.2365-12.29 4.4731-12.29 2.2365 0 4.4731 6.14 4.4731 12.29 0 6.14-2.2366 12.29-4.4731 12.29zM91.9078 5195.39c-1.491 0-2.982-4.1-2.982-8.19 0-4.1 1.491-8.2 2.982-8.2 1.4911 0 2.9821 4.1 2.9821 8.2 0 4.09-1.491 8.19-2.9821 8.19zM326.963 5312.07c-.745 0-1.49-2.04-1.49-4.09s.745-4.1 1.49-4.1 1.491 2.05 1.491 4.1-.746 4.09-1.491 4.09zM487.954 5253.7c-1.492 0-2.983-4.1-2.983-8.2s1.491-8.19 2.983-8.19c1.491 0 2.982 4.09 2.982 8.19s-.746 8.2-2.982 8.2zM117.044 5552c-1.491 0-2.982-4.1-2.982-8.2 0-4.09 1.491-8.19 2.982-8.19s2.982 4.1 2.982 8.19c0 4.1-1.491 8.2-2.982 8.2zM300.704 4809.64c1.491 0 2.982 4.1 2.982 8.2 0 4.09-1.491 8.19-2.982 8.19s-2.982-4.1-2.982-8.19c0-4.1 1.491-8.2 2.982-8.2zM419.665 5522.72c1.491 0 2.982 4.1 2.982 8.19 0 4.1-1.491 8.2-2.982 8.2s-2.982-4.1-2.982-8.2c0-4.09.745-8.19 2.982-8.19zM517.248 4771.77c1.491 0 2.236 2.04 2.236 6.14s-.745 6.15-2.236 6.15-2.237-2.05-2.237-6.15c0-4.1.746-6.14 2.237-6.14z" fill="#fff"/><g opacity=".7" fill="#fff"><path opacity=".7" d="M57.666 5030.03l10.4372-2.05 1.491-30.73v30.73l11.9282 2.05-11.9282 2.05v30.73l-1.491-30.73-10.4372-2.05z"/><path opacity=".7" d="M64.3746 5015.68l4.4731 12.3 5.2186-12.3-3.7276 14.34 3.7276 14.35-4.4731-12.3-5.2186 12.3 3.7276-14.35-3.7276-14.34z"/></g><g opacity=".7" fill="#fff"><path opacity=".7" d="M388.432 4990.51l11.182-2.05.746-30.74.745 30.74 11.183 2.05-11.183 2.04-.745 30.74-.746-30.74-11.182-2.04z"/><path opacity=".7" d="M395.141 4978.21l5.218 10.24 5.219-10.24-4.473 12.29 4.473 14.34-5.219-12.29-4.473 12.29 3.728-14.34-4.473-12.29z"/></g><path opacity=".7" d="M613.383 5117.38c.745 0 1.49 2.05 1.49 4.1s-.745 4.1-1.49 4.1c-.746 0-1.491-2.05-1.491-4.1s.745-4.1 1.491-4.1zM558.794 5232.46c1.491 0 2.982 4.1 2.982 8.2s-1.491 8.19-2.982 8.19-2.982-4.09-2.982-8.19 1.491-8.2 2.982-8.2zM533.952 5433.98c1.491 0 2.982 4.1 2.982 8.2s-1.491 8.19-2.982 8.19-2.982-4.09-2.982-8.19 1.491-8.2 2.982-8.2zM611.979 5312.07c-.745 0-1.491-2.05-1.491-4.09 0-2.05.746-4.1 1.491-4.1.745 0 1.49 2.05 1.49 4.1 0 2.04-.745 4.09-1.49 4.09zM585.72 4809.64c1.491 0 2.982 4.1 2.982 8.2 0 4.09-1.491 8.19-2.982 8.19s-2.982-4.1-2.982-8.19c0-4.1 1.491-8.2 2.982-8.2z" fill="#fff"/><g opacity=".7" fill="#fff"><path opacity=".7" d="M673.447 4990.51l11.183-2.05.745-30.74.746 30.74 11.183 2.05-11.183 2.04-.746 30.74-.745-30.74-11.183-2.04z"/><path opacity=".7" d="M680.156 4978.21l5.218 10.24 5.219-10.24-4.473 12.29 4.473 14.34-5.219-12.29-4.473 12.29 3.728-14.34-4.473-12.29z"/></g><g opacity=".7" fill="#fff"><path opacity=".7" d="M97.2679 4760.92l10.4371-4.1 1.491-28.69v28.69l11.928 4.1-11.928 2.04v30.74l-1.491-30.74-10.4371-2.04z"/><path opacity=".7" d="M103.977 4746.57l4.473 10.24 5.219-10.24-3.728 12.29 3.728 16.39-4.473-12.29-5.219 12.29 3.728-14.34-3.728-14.34z"/></g></svg>