<svg width="22" height="22" viewBox="0 0 22 22" fill="none" xmlns="http://www.w3.org/2000/svg">
<path opacity="0.7" d="M10.9254 21.8507C16.9593 21.8507 21.8507 16.9593 21.8507 10.9254C21.8507 4.89147 16.9593 1.52588e-05 10.9254 1.52588e-05C4.89145 1.52588e-05 0 4.89147 0 10.9254C0 16.9593 4.89145 21.8507 10.9254 21.8507Z" fill="#D6E5FF"/>
<path opacity="0.7" d="M11.0666 20.744C17.0703 20.744 21.9373 16.3417 21.9373 10.9112C21.9373 5.48068 17.0703 1.07837 11.0666 1.07837C5.06286 1.07837 0.195862 5.48068 0.195862 10.9112C0.195862 16.3417 5.06286 20.744 11.0666 20.744Z" fill="#4C82DE"/>
<path d="M13.8651 7.94926H6.59175C6.24245 7.94926 5.95929 8.25771 5.95929 8.6382V13.8052C5.95929 14.1857 6.24245 14.4941 6.59175 14.4941H13.8651C14.2144 14.4941 14.4975 14.1857 14.4975 13.8052V8.6382C14.4975 8.25771 14.2144 7.94926 13.8651 7.94926Z" fill="black"/>
<path d="M13.8651 7.94926H6.59175C6.24245 7.94926 5.95929 8.25771 5.95929 8.6382V13.8052C5.95929 14.1857 6.24245 14.4941 6.59175 14.4941H13.8651C14.2144 14.4941 14.4975 14.1857 14.4975 13.8052V8.6382C14.4975 8.25771 14.2144 7.94926 13.8651 7.94926Z" fill="white"/>
<path fill-rule="evenodd" clip-rule="evenodd" d="M6.59175 7.94926H13.8651C14.2144 7.94926 14.4975 8.25771 14.4975 8.6382V9.67159H5.95929V8.6382C5.95929 8.25771 6.24245 7.94926 6.59175 7.94926Z" fill="#D6E5FF"/>
<path d="M15.13 5.88248H11.019C10.6697 5.88248 10.3865 6.19092 10.3865 6.57141V12.0829C10.3865 12.4634 10.6697 12.7718 11.019 12.7718H15.13C15.4793 12.7718 15.7625 12.4634 15.7625 12.0829V6.57141C15.7625 6.19092 15.4793 5.88248 15.13 5.88248Z" fill="#4C82DE"/>
<path d="M13.0745 11.7384C13.3365 11.7384 13.5489 11.5071 13.5489 11.2217C13.5489 10.9363 13.3365 10.705 13.0745 10.705C12.8125 10.705 12.6002 10.9363 12.6002 11.2217C12.6002 11.5071 12.8125 11.7384 13.0745 11.7384Z" fill="white"/>
</svg>
