<svg width="10" height="10" viewBox="0 0 10 10" fill="none" xmlns="http://www.w3.org/2000/svg">
<g clip-path="url(#clip0_32_15)">
<path d="M0.625 3.73611C0.625 2.64712 0.625 2.10262 0.836932 1.68669C1.02335 1.32081 1.32081 1.02335 1.68669 0.836932C2.10262 0.625 2.64712 0.625 3.73611 0.625H6.26389C7.35288 0.625 7.89738 0.625 8.31331 0.836932C8.67919 1.02335 8.97665 1.32081 9.16307 1.68669C9.375 2.10262 9.375 2.64712 9.375 3.73611V6.26389C9.375 7.35288 9.375 7.89738 9.16307 8.31331C8.97665 8.67919 8.67919 8.97665 8.31331 9.16307C7.89738 9.375 7.35288 9.375 6.26389 9.375H3.73611C2.64712 9.375 2.10262 9.375 1.68669 9.16307C1.32081 8.97665 1.02335 8.67919 0.836932 8.31331C0.625 7.89738 0.625 7.35288 0.625 6.26389V3.73611Z" fill="white"/>
<path d="M6.89104 2.66345L5.02007 4.12358L3.10632 2.66345V2.66385L3.10864 2.66582V4.7104L4.99849 6.2021L6.89104 4.76801V2.66345Z" fill="#EA4335"/>
<path d="M7.38234 2.30825L6.89099 2.66341V4.76797L8.4371 3.58093V2.86586C8.4371 2.86586 8.24942 1.84456 7.38234 2.30825Z" fill="#FBBC05"/>
<path d="M6.89099 4.76804V7.4977H8.076C8.076 7.4977 8.4132 7.46297 8.43748 7.0786V3.58099L6.89099 4.76804Z" fill="#34A853"/>
<path d="M3.10872 7.49999V4.71035L3.10632 4.70837L3.10872 7.49999Z" fill="#C5221F"/>
<path d="M3.10629 2.6641L2.61764 2.31091C1.75056 1.84722 1.5625 2.86812 1.5625 2.86812V3.58319L3.10629 4.70868V2.6641Z" fill="#C5221F"/>
<path d="M3.10632 2.66382V4.7084L3.10872 4.71037V2.66579L3.10632 2.66382Z" fill="#C5221F"/>
<path d="M1.5625 3.58331V7.08092C1.58639 7.46568 1.92398 7.50002 1.92398 7.50002H3.10899L3.10629 4.7084L1.5625 3.58331Z" fill="#4285F4"/>
</g>
<defs>
<clipPath id="clip0_32_15">
<rect width="10" height="10" fill="white"/>
</clipPath>
</defs>
</svg>
