<svg width="10" height="11" viewBox="0 0 10 11" fill="none" xmlns="http://www.w3.org/2000/svg">
<g clip-path="url(#clip0_32_15)">
<path d="M0.625 4.40274C0.625 3.31375 0.625 2.76925 0.836932 2.35331C1.02335 1.98744 1.32081 1.68998 1.68669 1.50356C2.10262 1.29163 2.64712 1.29163 3.73611 1.29163H6.26389C7.35288 1.29163 7.89738 1.29163 8.31331 1.50356C8.67919 1.68998 8.97665 1.98744 9.16307 2.35331C9.375 2.76925 9.375 3.31375 9.375 4.40274V6.93051C9.375 8.01951 9.375 8.564 9.16307 8.97994C8.97665 9.34581 8.67919 9.64327 8.31331 9.82969C7.89738 10.0416 7.35288 10.0416 6.26389 10.0416H3.73611C2.64712 10.0416 2.10262 10.0416 1.68669 9.82969C1.32081 9.64327 1.02335 9.34581 0.836932 8.97994C0.625 8.564 0.625 8.01951 0.625 6.93051V4.40274Z" fill="white"/>
<path d="M6.89104 3.33008L5.02007 4.79021L3.10632 3.33008V3.33047L3.10864 3.33245V5.37702L4.99849 6.86873L6.89104 5.43464V3.33008Z" fill="#EA4335"/>
<path d="M7.38234 2.97487L6.89099 3.33004V5.4346L8.4371 4.24755V3.53248C8.4371 3.53248 8.24942 2.51118 7.38234 2.97487Z" fill="#FBBC05"/>
<path d="M6.89099 5.43461V8.16426H8.076C8.076 8.16426 8.4132 8.12954 8.43748 7.74517V4.24756L6.89099 5.43461Z" fill="#34A853"/>
<path d="M3.10872 8.16661V5.37697L3.10632 5.375L3.10872 8.16661Z" fill="#C5221F"/>
<path d="M3.10629 3.33066L2.61764 2.97747C1.75056 2.51378 1.5625 3.53469 1.5625 3.53469V4.24976L3.10629 5.37524V3.33066Z" fill="#C5221F"/>
<path d="M3.10632 3.33044V5.37502L3.10872 5.377V3.33242L3.10632 3.33044Z" fill="#C5221F"/>
<path d="M1.5625 4.24988V7.74748C1.58639 8.13225 1.92398 8.16658 1.92398 8.16658H3.10899L3.10629 5.37497L1.5625 4.24988Z" fill="#4285F4"/>
</g>
<defs>
<clipPath id="clip0_32_15">
<rect width="10" height="10" fill="white" transform="translate(0 0.666626)"/>
</clipPath>
</defs>
</svg>
