<svg width="648" height="648" viewBox="0 0 648 648" fill="none" xmlns="http://www.w3.org/2000/svg">
<circle cx="324" cy="324" r="324" fill="#CACACA"/>
<path d="M152.03 470.051L157.787 464.909C159.497 463.382 160.844 461.732 161.83 459.958C162.831 458.17 163.442 456.353 163.665 454.507C163.901 452.676 163.744 450.874 163.195 449.102C162.632 447.314 161.65 445.636 160.248 444.067C158.791 442.435 157.192 441.223 155.452 440.432C153.711 439.64 151.911 439.25 150.051 439.263C148.191 439.276 146.316 439.68 144.427 440.473C142.554 441.252 140.755 442.398 139.032 443.909L127.681 454.046L157.989 487.982L163.583 482.986L152.03 470.051ZM147.95 465.482L137.355 453.619L143.112 448.477C144.074 447.646 145.06 447.045 146.069 446.674C147.094 446.289 148.114 446.133 149.128 446.205C150.142 446.277 151.114 446.568 152.044 447.078C152.976 447.559 153.844 448.249 154.649 449.151C155.385 449.974 155.925 450.86 156.27 451.809C156.63 452.745 156.775 453.704 156.705 454.689C156.634 455.674 156.35 456.654 155.853 457.629C155.357 458.575 154.641 459.479 153.708 460.341L147.95 465.482ZM188.224 452.684L162.037 423.363L156.42 428.38L186.728 462.316L208.544 442.832L204.423 438.217L188.224 452.684ZM224.412 414.624L233.67 420.392L239.474 415.209L198.304 390.973L193.339 395.407L212.6 439.21L218.427 434.006L213.761 424.137L224.412 414.624ZM210.894 418.066L202.867 401.102L218.749 411.051L210.894 418.066ZM257.162 380.642L251.545 385.658C252.367 386.767 252.977 387.856 253.374 388.926C253.771 389.996 253.949 391.025 253.908 392.011C253.865 393.027 253.596 394.007 253.1 394.953C252.604 395.899 251.874 396.802 250.911 397.662C250.103 398.384 249.283 398.921 248.452 399.272C247.622 399.594 246.772 399.753 245.902 399.748C245.075 399.76 244.241 399.639 243.399 399.385C242.573 399.117 241.746 398.738 240.918 398.249C239.903 397.675 238.881 396.954 237.853 396.084C236.841 395.201 235.828 394.192 234.815 393.057L230.631 388.373C229.812 387.456 229.061 386.521 228.377 385.567C227.695 384.584 227.108 383.614 226.616 382.657C226.089 381.535 225.709 380.437 225.474 379.361C225.242 378.256 225.235 377.201 225.454 376.195C225.571 375.42 225.827 374.674 226.222 373.959C226.632 373.229 227.202 372.539 227.933 371.886C228.974 370.957 230.006 370.314 231.029 369.959C232.039 369.588 233.057 369.461 234.083 369.578C235.094 369.709 236.106 370.061 237.122 370.635C238.139 371.179 239.145 371.915 240.14 372.841L245.734 367.846C244.05 366.305 242.296 365.106 240.47 364.251C238.66 363.381 236.813 362.908 234.929 362.831C233.074 362.756 231.203 363.085 229.318 363.82C227.447 364.541 225.619 365.699 223.832 367.295C222.511 368.474 221.451 369.742 220.651 371.099C219.867 372.442 219.301 373.841 218.953 375.297C218.614 376.856 218.516 378.467 218.658 380.127C218.802 381.758 219.183 383.388 219.799 385.016C220.335 386.493 221.043 387.942 221.922 389.364C222.8 390.785 223.829 392.157 225.009 393.477L229.151 398.116C230.387 399.499 231.682 400.73 233.037 401.81C234.408 402.876 235.805 403.752 237.227 404.437C238.663 405.138 240.123 405.663 241.609 406.012C243.096 406.332 244.573 406.423 246.042 406.285C247.583 406.165 249.11 405.779 250.622 405.127C252.136 404.445 253.592 403.48 254.991 402.231C256.7 400.704 258.025 399.06 258.966 397.298C259.908 395.507 260.461 393.672 260.627 391.793C260.79 389.943 260.586 388.072 260.014 386.181C259.428 384.274 258.477 382.427 257.162 380.642ZM278.603 352.903L274.565 348.382L260.533 360.913L251.999 351.357L268.268 336.827L264.125 332.189L242.239 351.735L272.547 385.671L294.55 366.021L290.428 361.406L274.043 376.04L264.572 365.435L278.603 352.903ZM351.514 315.146L321.206 281.21L315.729 286.102L328.406 300.297L316.985 310.496L304.308 296.302L298.854 301.173L329.162 335.109L334.616 330.238L321.106 315.111L332.527 304.911L346.037 320.038L351.514 315.146ZM368.12 273.878L364.123 269.403C362.861 267.989 361.522 266.74 360.108 265.657C358.679 264.558 357.203 263.656 355.679 262.95C354.271 262.281 352.83 261.793 351.357 261.489C349.884 261.184 348.399 261.101 346.901 261.237C345.403 261.374 343.92 261.762 342.453 262.403C340.985 263.043 339.576 263.966 338.224 265.174C336.888 266.367 335.827 267.65 335.041 269.022C334.257 270.365 333.728 271.759 333.455 273.204C333.164 274.693 333.101 276.201 333.265 277.73C333.432 279.23 333.782 280.733 334.317 282.238C334.877 283.805 335.617 285.337 336.536 286.834C337.455 288.332 338.532 289.773 339.767 291.156L343.763 295.631C344.943 296.952 346.204 298.144 347.545 299.208C348.873 300.257 350.247 301.139 351.667 301.854C353.145 302.601 354.648 303.158 356.177 303.525C357.721 303.878 359.249 303.993 360.76 303.872C362.243 303.749 363.717 303.382 365.183 302.772C366.65 302.132 368.06 301.208 369.411 300.001C370.717 298.835 371.754 297.588 372.522 296.259C373.306 294.916 373.871 293.532 374.217 292.105C374.539 290.589 374.634 289.038 374.502 287.451C374.357 285.85 374.018 284.266 373.487 282.702C372.924 281.165 372.191 279.656 371.286 278.173C370.397 276.677 369.341 275.245 368.12 273.878ZM358.441 274.394L362.48 278.915C363.213 279.768 363.901 280.648 364.544 281.555C365.188 282.432 365.749 283.327 366.229 284.24C366.775 285.289 367.18 286.337 367.446 287.385C367.713 288.403 367.804 289.412 367.718 290.41C367.654 291.277 367.414 292.134 366.997 292.981C366.596 293.814 365.999 294.585 365.207 295.292C364.383 296.028 363.535 296.548 362.662 296.853C361.79 297.128 360.906 297.248 360.008 297.212C359.066 297.159 358.098 296.935 357.102 296.539C356.108 296.114 355.135 295.572 354.184 294.913C353.331 294.334 352.505 293.675 351.706 292.936C350.907 292.198 350.139 291.417 349.404 290.593L345.366 286.072C344.616 285.232 343.913 284.366 343.255 283.474C342.599 282.551 342.031 281.634 341.551 280.721C340.976 279.671 340.563 278.629 340.311 277.597C340.046 276.549 339.956 275.526 340.042 274.528C340.118 273.706 340.355 272.908 340.752 272.133C341.136 271.343 341.709 270.609 342.47 269.929C343.263 269.221 344.081 268.714 344.925 268.407C345.768 268.101 346.625 267.95 347.495 267.955C348.483 267.966 349.483 268.163 350.494 268.545C351.507 268.897 352.512 269.396 353.508 270.043C354.376 270.608 355.217 271.268 356.03 272.022C356.859 272.762 357.662 273.553 358.441 274.394ZM388.904 273.458L362.717 244.137L357.1 249.154L387.408 283.09L409.224 263.606L405.103 258.991L388.904 273.458ZM415.331 258.152L423.908 250.492C425.462 249.104 426.749 247.62 427.767 246.04C428.802 244.446 429.566 242.799 430.06 241.101C430.486 239.576 430.7 238.002 430.703 236.379C430.722 234.742 430.526 233.115 430.116 231.499C429.693 229.837 429.026 228.184 428.116 226.539C427.207 224.864 426.066 223.258 424.692 221.72L422.319 219.063C420.89 217.462 419.373 216.108 417.768 214.999C416.163 213.89 414.523 213.023 412.847 212.397C411.228 211.804 409.558 211.452 407.838 211.34C406.134 211.214 404.436 211.361 402.745 211.782C401.161 212.136 399.578 212.725 397.997 213.55C396.402 214.36 394.874 215.418 393.414 216.722L385.023 224.216L415.331 258.152ZM394.767 223.726L397.494 221.29C398.409 220.501 399.345 219.861 400.302 219.369C401.246 218.861 402.188 218.509 403.129 218.311C404.413 218.029 405.713 218 407.029 218.221C408.33 218.428 409.591 218.838 410.81 219.453C411.799 219.966 412.781 220.612 413.755 221.39C414.729 222.168 415.674 223.07 416.59 224.095L419.005 226.799C419.935 227.84 420.731 228.888 421.395 229.944C422.058 230.999 422.589 232.047 422.988 233.088C423.465 234.31 423.75 235.521 423.845 236.722C423.941 237.893 423.855 239.017 423.588 240.094C423.322 241.141 422.881 242.164 422.264 243.162C421.649 244.13 420.844 245.059 419.849 245.947L416.936 248.549L394.767 223.726ZM450.615 199.281L446.576 194.759L432.545 207.29L424.01 197.734L440.279 183.205L436.137 178.566L414.251 198.113L444.559 232.049L466.562 212.398L462.44 207.783L446.055 222.417L436.583 211.812L450.615 199.281ZM472.561 183.368L490.825 190.729L496.815 185.379L496.545 185.076L476.619 177.355C477.176 176.103 477.579 174.85 477.827 173.595C478.075 172.34 478.131 171.089 477.995 169.842C477.859 168.595 477.515 167.365 476.964 166.154C476.428 164.929 475.64 163.733 474.599 162.568C473.086 160.874 471.473 159.662 469.758 158.93C468.03 158.183 466.256 157.855 464.436 157.944C462.614 158.062 460.771 158.563 458.906 159.446C457.042 160.329 455.224 161.547 453.455 163.1L442.686 172.717L472.995 206.653L478.588 201.657L466.827 188.488L472.561 183.368ZM462.747 183.92L452.36 172.289L457.535 167.668C458.512 166.823 459.5 166.178 460.499 165.733C461.484 165.272 462.457 165.032 463.417 165.013C464.451 164.983 465.449 165.209 466.411 165.691C467.374 166.144 468.292 166.859 469.167 167.838C469.944 168.708 470.498 169.61 470.829 170.544C471.16 171.477 471.285 172.399 471.204 173.309C471.13 174.353 470.821 175.383 470.277 176.4C469.734 177.387 468.972 178.333 467.992 179.236L462.747 183.92Z" fill="black"/>
</svg>
