<svg width="181" height="514" viewBox="0 0 181 514" fill="none" xmlns="http://www.w3.org/2000/svg">
<path d="M93.5 23L91.5 15.5L87 10L81 6L88.5 2.5L97.5 1L107 2.5L114 6L109 11L105.5 15L103 20.5V25.5L105.5 28H109L114.5 26L119 22.5L124.5 18L128.5 24L129.5 30.5V37.5L127 45.5L124.5 48.5L116.5 41.5L109 37.5L104 39L103 43L104 48.5L109 54.5L114 60L106.5 63.5L98.5 66L88 63.5L82.5 60L88 54.5L91.5 48.5L92.5 43.5L92 40.5L89.5 38L83.5 39L78 43L71 48.5L68.5 43L66 37.5V28L68.5 20.5L71.5 18L78.5 24L84.5 28L91.5 27.5L93.5 23Z" fill="black" stroke="black"/>
<path d="M63.5 68H89.5H117.5L121 69L122.5 71.5L123.5 75.5L124 82.5H144L151 84.5L158 90.5L165 102V115L161.5 123.5L153.5 136L143 151.5L133.5 165.5L126.5 176.5L127.5 199.5L128.5 223H138L140.5 225L144.5 229.5L147 234.5V241.5L144 246.5L139.5 250.5H130.5H120.5V256L121.5 269L123.5 287L125.5 301.5L129.5 318.5L135.5 336L140 348.5L149.5 370L156.5 386L160 395H162L165 396L168 398.5L170 403L169 407L165 410L163 412L165.5 416.5L173.5 429.5L178.5 443.5L180.5 452V463.5L179.5 472L175.5 481.5L171 490.5V494L172 497L176.5 501.5L178.5 506.5V513H156.5H110.5H77H48.5L2.5 512.5V504.5L8.5 496.5L11.5 493.5L10.5 490.5L5.5 482.5L2.5 475L1 468V452.5L2 444L9.5 429L19 415L20.5 411.5L19 409.5L15.5 407L14 403.5L15.5 399L20.5 395.5L24 394.5L29 382L38 361L44 345.5L49.5 329L54.5 310.5L57.5 293.5L60 275.5L61.5 261.5V250H52.5H42.5L38.5 247.5L34.5 243.5L33.5 237.5L34.5 231L40.5 224.5L46.5 222.5H53L54 196.5L55 176.5L52.5 172.5L45.5 162L39.5 153.5L30.5 140.5L23 129L19 121.5L17 114V106L18.5 99.5L23 92L26.5 88L35 83.5L40.5 82.5H58V74.5L59.5 70.5L63.5 68Z" fill="black" stroke="black"/>
</svg>
