<svg width="11" height="11" viewBox="0 0 11 11" fill="none" xmlns="http://www.w3.org/2000/svg">
<rect x="0.6875" y="1.29163" width="9.625" height="8.75" rx="4.375" fill="#1275B1"/>
<path d="M4.33763 3.69542C4.33763 3.98747 4.05918 4.22422 3.71569 4.22422C3.3722 4.22422 3.09375 3.98747 3.09375 3.69542C3.09375 3.40338 3.3722 3.16663 3.71569 3.16663C4.05918 3.16663 4.33763 3.40338 4.33763 3.69542Z" fill="white"/>
<path d="M3.1788 4.61291H4.24195V7.54163H3.1788V4.61291Z" fill="white"/>
<path d="M5.95361 4.61291H4.89046V7.54163H5.95361C5.95361 7.54163 5.95361 6.61962 5.95361 6.04314C5.95361 5.69713 6.08357 5.34961 6.60213 5.34961C7.18816 5.34961 7.18463 5.80242 7.1819 6.15322C7.17833 6.61176 7.18686 7.0797 7.18686 7.54163H8.25V5.99591C8.241 5.00893 7.95809 4.55415 7.02738 4.55415C6.47467 4.55415 6.13206 4.78227 5.95361 4.98865V4.61291Z" fill="white"/>
</svg>
