<svg width="11" height="10" viewBox="0 0 11 10" fill="none" xmlns="http://www.w3.org/2000/svg">
<rect x="0.6875" y="0.625" width="9.625" height="8.75" rx="4.375" fill="#1275B1"/>
<path d="M4.33763 3.0288C4.33763 3.32084 4.05918 3.55759 3.71569 3.55759C3.3722 3.55759 3.09375 3.32084 3.09375 3.0288C3.09375 2.73675 3.3722 2.5 3.71569 2.5C4.05918 2.5 4.33763 2.73675 4.33763 3.0288Z" fill="white"/>
<path d="M3.1788 3.94628H4.24195V6.875H3.1788V3.94628Z" fill="white"/>
<path d="M5.95361 3.94628H4.89046V6.875H5.95361C5.95361 6.875 5.95361 5.953 5.95361 5.37652C5.95361 5.03051 6.08357 4.68298 6.60213 4.68298C7.18816 4.68298 7.18463 5.13579 7.1819 5.48659C7.17833 5.94514 7.18686 6.41308 7.18686 6.875H8.25V5.32929C8.241 4.34231 7.95809 3.88753 7.02738 3.88753C6.47467 3.88753 6.13206 4.11564 5.95361 4.32203V3.94628Z" fill="white"/>
</svg>
