<svg width="715" height="191" viewBox="0 0 715 191" fill="none" xmlns="http://www.w3.org/2000/svg">
<path d="M185.2 143.4C186.933 143.4 188.267 144.2 189.2 145.8C190.267 147.4 190.8 149.6 190.8 152.4C190.8 157.6 189.533 161.733 187 164.8C180.6 172.533 174.133 178.533 167.6 182.8C161.067 186.933 153.333 189 144.4 189C135.733 189 128.333 186.667 122.2 182C116.2 177.333 110.467 169.333 105 158C100.6 148.933 97.1333 142.267 94.6 138C92.0667 133.6 89.5333 130.467 87 128.6C84.6 126.733 81.6 125.6 78 125.2C77.4667 128 75.9333 136.8 73.4 151.6C72.3333 158.267 71.6667 162.333 71.4 163.8C70.0667 171.933 67.4 178.2 63.4 182.6C59.4 186.867 53.3333 189 45.2 189C36.2667 189 28.3333 186.4 21.4 181.2C14.6 175.867 9.33333 168.533 5.6 159.2C1.86667 149.733 6.85453e-07 139 6.85453e-07 127C6.85453e-07 104.6 3.86667 85.2667 11.6 69C19.4667 52.7333 30.4 40.3333 44.4 31.8C58.5333 23.1333 74.8 18.8 93.2 18.8C106 18.8 116.733 20.7333 125.4 24.6C134.067 28.4667 140.467 33.8 144.6 40.6C148.867 47.4 151 55.0667 151 63.6C151 71.0667 149.2 78.4 145.6 85.6C142.133 92.6667 136.867 98.9333 129.8 104.4C122.733 109.867 114.133 113.933 104 116.6C110.4 118.333 115.333 121.133 118.8 125C122.267 128.867 125.733 134.533 129.2 142C132.933 150 136.6 155.867 140.2 159.6C143.933 163.333 148.2 165.2 153 165.2C157.267 165.2 161.333 163.8 165.2 161C169.067 158.067 173.933 153.133 179.8 146.2C181.4 144.333 183.2 143.4 185.2 143.4ZM50.4 125C45.8667 125 42.7333 123.933 41 121.8C39.4 119.667 38.6 117.267 38.6 114.6C38.6 111.4 39.6 108.867 41.6 107C43.7333 105.133 46.1333 104.2 48.8 104.2H53.8C55.9333 91.1333 57.9333 79.8667 59.8 70.4C61.5333 61.7333 67.1333 57.4 76.6 57.4C84.2 57.4 88 60.8 88 67.6C88 69.0667 87.9333 70.2 87.8 71L81.8 104.2C89 103.8 95.5333 102.067 101.4 99C107.4 95.9333 112.133 91.6667 115.6 86.2C119.2 80.7333 121 74.5333 121 67.6C121 59.2 118.133 52.6 112.4 47.8C106.667 43 98.2667 40.6 87.2 40.6C74.1333 40.6 62.6667 43.8667 52.8 50.4C43.0667 56.8 35.4667 66.4 30 79.2C24.5333 91.8667 21.8 107.333 21.8 125.6C21.8 134.133 22.6667 141.467 24.4 147.6C26.1333 153.733 28.2667 158.333 30.8 161.4C33.3333 164.467 35.7333 166 38 166C39.7333 166 41.1333 165.133 42.2 163.4C43.4 161.667 44.3333 158.867 45 155L50.4 125ZM200.777 81.6C195.177 81.6 190.977 80.3333 188.177 77.8C185.377 75.1333 183.977 71.4667 183.977 66.8C183.977 62.1333 185.777 58.2667 189.377 55.2C193.11 52 197.71 50.4 203.177 50.4C208.11 50.4 212.11 51.6 215.177 54C218.243 56.4 219.777 59.8 219.777 64.2C219.777 69.5333 218.043 73.8 214.577 77C211.11 80.0667 206.51 81.6 200.777 81.6ZM199.177 189C190.51 189 184.177 185.933 180.177 179.8C176.31 173.667 174.377 165.533 174.377 155.4C174.377 149.4 175.11 141.733 176.577 132.4C178.177 122.933 180.177 114.133 182.577 106C183.777 101.733 185.377 98.8 187.377 97.2C189.377 95.6 192.577 94.8 196.977 94.8C203.777 94.8 207.177 97.0667 207.177 101.6C207.177 104.933 205.91 112.667 203.377 124.8C200.177 139.467 198.577 149.4 198.577 154.6C198.577 158.6 199.11 161.667 200.177 163.8C201.243 165.933 203.043 167 205.577 167C207.977 167 210.977 165.333 214.577 162C218.177 158.667 222.977 153.4 228.977 146.2C230.577 144.333 232.377 143.4 234.377 143.4C236.11 143.4 237.443 144.2 238.377 145.8C239.443 147.4 239.977 149.6 239.977 152.4C239.977 157.733 238.71 161.867 236.177 164.8C222.977 180.933 210.643 189 199.177 189ZM261.995 189C248.929 189 238.729 185.333 231.395 178C224.195 170.533 220.595 160.733 220.595 148.6C220.595 137.8 222.729 128.333 226.995 120.2C231.262 112.067 236.795 105.8 243.595 101.4C250.395 97 257.529 94.8 264.995 94.8C272.329 94.8 277.995 97 281.995 101.4C286.129 105.667 288.195 111.2 288.195 118C288.195 123.6 286.929 128.333 284.395 132.2C281.995 136.067 278.795 138 274.795 138C272.262 138 270.195 137.4 268.595 136.2C267.129 135 266.395 133.333 266.395 131.2C266.395 130.267 266.529 129.2 266.795 128C267.062 126.8 267.262 125.933 267.395 125.4C268.062 123.4 268.395 121.533 268.395 119.8C268.395 118.067 267.929 116.733 266.995 115.8C266.195 114.867 264.995 114.4 263.395 114.4C260.329 114.4 257.462 115.8 254.795 118.6C252.129 121.267 249.995 124.933 248.395 129.6C246.795 134.267 245.995 139.4 245.995 145C245.995 160.467 252.729 168.2 266.195 168.2C271.662 168.2 277.529 166.4 283.795 162.8C290.195 159.067 296.462 153.533 302.595 146.2C304.195 144.333 305.995 143.4 307.995 143.4C309.729 143.4 311.062 144.2 311.995 145.8C313.062 147.4 313.595 149.6 313.595 152.4C313.595 157.467 312.329 161.6 309.795 164.8C303.529 172.533 295.995 178.533 287.195 182.8C278.529 186.933 270.129 189 261.995 189ZM408.428 143.4C410.161 143.4 411.495 144.2 412.428 145.8C413.495 147.4 414.028 149.6 414.028 152.4C414.028 157.733 412.761 161.867 410.228 164.8C404.095 171.867 397.761 177.667 391.228 182.2C384.828 186.733 377.495 189 369.228 189C362.428 189 357.295 187.067 353.828 183.2C350.361 179.2 348.628 173.467 348.628 166C348.628 162.267 349.561 155.6 351.428 146C353.161 137.6 354.028 131.8 354.028 128.6C354.028 126.467 353.295 125.4 351.828 125.4C350.095 125.4 347.628 127.667 344.428 132.2C341.228 136.6 338.028 142.467 334.828 149.8C331.628 157.133 329.028 164.867 327.028 173C324.495 183.667 318.228 189 308.228 189C304.228 189 301.561 187.6 300.228 184.8C299.028 181.867 298.428 176.667 298.428 169.2C298.428 164.933 298.495 161.533 298.628 159L298.828 143C298.828 122.467 300.895 101.067 305.028 78.8C309.295 56.5333 315.495 37.8667 323.628 22.8C331.895 7.59999 341.761 -1.14441e-05 353.228 -1.14441e-05C359.361 -1.14441e-05 364.295 2.66666 368.028 7.99999C371.895 13.2 373.828 20 373.828 28.4C373.828 41.8667 369.895 55.8667 362.028 70.4C354.161 84.8 341.361 101.667 323.628 121C323.228 127.933 323.028 135.067 323.028 142.4C327.428 131.067 332.295 121.867 337.628 114.8C343.095 107.6 348.428 102.467 353.628 99.4C358.961 96.3333 363.828 94.8 368.228 94.8C376.895 94.8 381.228 99.1333 381.228 107.8C381.228 113 379.761 122.4 376.828 136C374.295 147.6 373.028 155.267 373.028 159C373.028 164.333 374.961 167 378.828 167C381.495 167 384.628 165.4 388.228 162.2C391.961 158.867 396.895 153.533 403.028 146.2C404.628 144.333 406.428 143.4 408.428 143.4ZM349.028 19.8C346.628 19.8 343.961 23.2667 341.028 30.2C338.095 37 335.228 46.2667 332.428 58C329.761 69.6 327.561 82.2667 325.828 96C334.095 86.2667 340.895 75.6667 346.228 64.2C351.695 52.7333 354.428 42.3333 354.428 33C354.428 28.7333 353.961 25.4667 353.028 23.2C352.095 20.9333 350.761 19.8 349.028 19.8ZM422.419 189C414.152 189 407.552 186 402.619 180C397.685 174 395.219 166.133 395.219 156.4C395.219 145.733 397.685 135.667 402.619 126.2C407.552 116.6 414.085 108.933 422.219 103.2C430.485 97.3333 439.219 94.4 448.419 94.4C451.352 94.4 453.285 95 454.219 96.2C455.285 97.2667 456.152 99.2667 456.819 102.2C459.619 101.667 462.552 101.4 465.619 101.4C472.152 101.4 475.419 103.733 475.419 108.4C475.419 111.2 474.419 117.867 472.419 128.4C469.352 143.733 467.819 154.4 467.819 160.4C467.819 162.4 468.285 164 469.219 165.2C470.285 166.4 471.619 167 473.219 167C475.752 167 478.819 165.4 482.419 162.2C486.019 158.867 490.885 153.533 497.019 146.2C498.619 144.333 500.419 143.4 502.419 143.4C504.152 143.4 505.485 144.2 506.419 145.8C507.485 147.4 508.019 149.6 508.019 152.4C508.019 157.733 506.752 161.867 504.219 164.8C498.752 171.6 492.952 177.333 486.819 182C480.685 186.667 474.752 189 469.019 189C464.619 189 460.552 187.533 456.819 184.6C453.219 181.533 450.485 177.4 448.619 172.2C441.685 183.4 432.952 189 422.419 189ZM429.619 168.8C432.552 168.8 435.352 167.067 438.019 163.6C440.685 160.133 442.619 155.533 443.819 149.8L451.219 113C445.619 113.133 440.419 115.267 435.619 119.4C430.952 123.4 427.219 128.733 424.419 135.4C421.619 142.067 420.219 149.133 420.219 156.6C420.219 160.733 421.019 163.8 422.619 165.8C424.352 167.8 426.685 168.8 429.619 168.8ZM505.964 189C500.897 189 497.297 186.333 495.164 181C493.164 175.667 492.164 167.133 492.164 155.4C492.164 138.067 494.631 121.6 499.564 106C500.764 102.133 502.697 99.3333 505.364 97.6C508.164 95.7333 512.031 94.8 516.964 94.8C519.631 94.8 521.497 95.1333 522.564 95.8C523.631 96.4667 524.164 97.7333 524.164 99.6C524.164 101.733 523.164 106.533 521.164 114C519.831 119.333 518.764 124 517.964 128C517.164 132 516.497 136.933 515.964 142.8C520.364 131.333 525.297 122 530.764 114.8C536.231 107.6 541.564 102.467 546.764 99.4C552.097 96.3333 556.964 94.8 561.364 94.8C570.031 94.8 574.364 99.1333 574.364 107.8C574.364 109.533 573.764 113.733 572.564 120.4C571.497 125.733 570.964 129.067 570.964 130.4C570.964 135.067 572.631 137.4 575.964 137.4C579.697 137.4 584.497 134.467 590.364 128.6C592.097 126.867 593.897 126 595.764 126C597.497 126 598.831 126.8 599.764 128.4C600.831 129.867 601.364 131.867 601.364 134.4C601.364 139.333 600.031 143.2 597.364 146C593.631 149.867 589.231 153.2 584.164 156C579.231 158.667 573.964 160 568.364 160C561.297 160 555.897 158.2 552.164 154.6C548.564 151 546.764 146.133 546.764 140C546.764 138 546.964 136 547.364 134C547.631 131.333 547.764 129.533 547.764 128.6C547.764 126.467 547.031 125.4 545.564 125.4C543.564 125.4 540.897 127.667 537.564 132.2C534.364 136.6 531.164 142.467 527.964 149.8C524.764 157.133 522.164 164.867 520.164 173C518.697 179.267 516.964 183.533 514.964 185.8C513.097 187.933 510.097 189 505.964 189ZM655.58 143.4C657.046 154.333 659.18 165.133 661.98 175.8C662.513 177.533 662.78 179.333 662.78 181.2C662.78 187.2 659.113 190.2 651.78 190.2C647.646 190.2 644.446 189.067 642.18 186.8C640.046 184.533 638.046 180.267 636.18 174L635.98 173.2C630.913 179.467 626.313 183.667 622.18 185.8C618.18 187.933 613.513 189 608.18 189C600.046 189 593.313 186 587.98 180C582.78 173.867 580.18 165.933 580.18 156.2C580.18 145.533 582.446 135.667 586.98 126.6C591.513 117.533 597.713 110.133 605.58 104.4C613.446 98.5333 622.246 95 631.98 93.8C634.513 68.6 639.313 46.6667 646.38 28C653.58 9.33332 663.113 -1.14441e-05 674.98 -1.14441e-05C680.713 -1.14441e-05 685.446 2.59999 689.18 7.8C693.046 13 694.98 20.8667 694.98 31.4C694.98 46.0667 691.38 63.2 684.18 82.8C676.98 102.4 667.446 122.6 655.58 143.4ZM672.78 19.6C668.913 19.6 665.246 29.4667 661.78 49.2C658.446 68.9333 656.18 90.4 654.98 113.6C669.78 81.6 677.18 55.6 677.18 35.6C677.18 30.5333 676.713 26.6 675.78 23.8C674.98 21 673.98 19.6 672.78 19.6ZM615.18 168.8C617.846 168.8 620.38 167.8 622.78 165.8C625.313 163.8 628.513 159.933 632.38 154.2C631.046 144.467 630.38 134.4 630.38 124C630.38 119.867 630.446 116.667 630.58 114.4C623.246 116.533 617.18 121.4 612.38 129C607.58 136.6 605.18 145 605.18 154.2C605.18 163.933 608.513 168.8 615.18 168.8Z" fill="black"/>
<path d="M695.213 189C689.346 189 684.879 187.4 681.813 184.2C678.879 181 677.413 176.8 677.413 171.6C677.413 165.6 679.079 160.8 682.413 157.2C685.879 153.6 690.679 151.8 696.812 151.8C702.679 151.8 707.079 153.267 710.013 156.2C713.079 159 714.613 163.2 714.613 168.8C714.613 174.933 712.879 179.867 709.413 183.6C705.946 187.2 701.213 189 695.213 189Z" fill="#020202"/>
</svg>
