<svg width="229" height="153" viewBox="0 0 229 153" fill="none" xmlns="http://www.w3.org/2000/svg">
<path d="M29.9702 130.362C29.9702 138.768 23.2611 145.583 14.9851 145.583C6.70906 145.583 0 138.768 0 130.362C0 121.956 6.70906 115.141 14.9851 115.141C23.2611 115.141 29.9702 121.956 29.9702 130.362Z" fill="#3C9AB7"/>
<path d="M60.2447 137.702C60.2447 146.151 53.4675 153 45.1074 153C36.7474 153 29.9702 146.151 29.9702 137.702C29.9702 129.253 36.7474 122.404 45.1074 122.404C53.4675 122.404 60.2447 129.253 60.2447 137.702Z" fill="#3C9AB7"/>
<path d="M113.948 111.664C113.948 117.595 109.214 122.404 103.374 122.404C97.5349 122.404 92.8011 117.595 92.8011 111.664C92.8011 105.733 97.5349 100.924 103.374 100.924C109.214 100.924 113.948 105.733 113.948 111.664Z" fill="#3C9AB7"/>
<path d="M132.508 113.518C132.508 119.45 127.774 124.258 121.935 124.258C116.095 124.258 111.361 119.45 111.361 113.518C111.361 107.587 116.095 102.779 121.935 102.779C127.774 102.779 132.508 107.587 132.508 113.518Z" fill="#3C9AB7"/>
<path d="M139.658 106.101C139.658 110.07 136.491 113.287 132.584 113.287C128.677 113.287 125.51 110.07 125.51 106.101C125.51 102.133 128.677 98.9156 132.584 98.9156C136.491 98.9156 139.658 102.133 139.658 106.101Z" fill="#3C9AB7"/>
<path d="M166.281 99.3019C166.281 103.27 163.114 106.487 159.207 106.487C155.3 106.487 152.133 103.27 152.133 99.3019C152.133 95.3335 155.3 92.1164 159.207 92.1164C163.114 92.1164 166.281 95.3335 166.281 99.3019Z" fill="#3C9AB7"/>
<path d="M207.595 108.642C206.893 113.023 202.795 115.99 198.441 115.27C194.087 114.55 191.127 110.416 191.829 106.035C192.531 101.655 196.63 98.688 200.983 99.4079C205.337 100.128 208.298 104.262 207.595 108.642Z" fill="#3C9AB7"/>
<path d="M228.895 109.425C228.186 113.847 224.082 116.848 219.728 116.128C215.375 115.408 212.42 111.24 213.129 106.818C213.837 102.395 217.941 99.394 222.295 100.114C226.649 100.834 229.604 105.002 228.895 109.425Z" fill="#3C9AB7"/>
<path d="M215.772 111.482C215.306 114.388 212.609 116.36 209.748 115.887C206.887 115.414 204.945 112.675 205.411 109.769C205.877 106.863 208.574 104.89 211.435 105.363C214.296 105.836 216.238 108.576 215.772 111.482Z" fill="#3C9AB7"/>
<path d="M157.306 102.624C157.306 108.513 152.538 113.287 146.656 113.287C140.775 113.287 136.007 108.513 136.007 102.624C136.007 96.7356 140.775 91.9619 146.656 91.9619C152.538 91.9619 157.306 96.7356 157.306 102.624Z" fill="#3C9AB7"/>
<path d="M197.888 100.931C197.01 106.407 191.929 110.122 186.539 109.231C181.148 108.34 177.49 103.179 178.367 97.7034C179.245 92.2282 184.326 88.5123 189.717 89.4036C195.107 90.295 198.765 95.4561 197.888 100.931Z" fill="#3C9AB7"/>
<path d="M96.3002 118C96.3002 121.456 93.5757 124.258 90.2149 124.258C86.854 124.258 84.1295 121.456 84.1295 118C84.1295 114.543 86.854 111.741 90.2149 111.741C93.5757 111.741 96.3002 114.543 96.3002 118Z" fill="#3C9AB7"/>
<path d="M36.3598 131.289C36.3598 134.745 33.5672 137.547 30.1223 137.547C26.6775 137.547 23.8849 134.745 23.8849 131.289C23.8849 127.833 26.6775 125.031 30.1223 125.031C33.5672 125.031 36.3598 127.833 36.3598 131.289Z" fill="#3C9AB7"/>
<path d="M68.9162 131.289C68.9162 134.745 66.1577 137.547 62.7549 137.547C59.352 137.547 56.5935 134.745 56.5935 131.289C56.5935 127.833 59.352 125.031 62.7549 125.031C66.1577 125.031 68.9162 127.833 68.9162 131.289Z" fill="#3C9AB7"/>
<path d="M77.5878 131.289C77.5878 134.745 74.8633 137.547 71.5025 137.547C68.1417 137.547 65.4172 134.745 65.4172 131.289C65.4172 127.833 68.1417 125.031 71.5025 125.031C74.8633 125.031 77.5878 127.833 77.5878 131.289Z" fill="#3C9AB7"/>
<path d="M92.432 125.536C93.9234 129.306 91.4676 133.857 86.9469 135.703C82.4262 137.548 77.5524 135.988 76.0611 132.219C74.5697 128.45 77.0255 123.898 81.5462 122.053C86.0669 120.207 90.9407 121.767 92.432 125.536Z" fill="#3C9AB7"/>
<path d="M160.429 92.7496C169.196 89.2389 171.609 75.309 171.72 68.7829H177.365C173.911 83.6355 186.996 92.5245 193.97 95.1125L170.391 103.551C163.417 101.414 151.661 96.2602 160.429 92.7496Z" fill="#3C9AB7"/>
<path d="M63.6677 132.602L8.36731 126.962V136.697H228.352L227.135 108.342H222.647C221.201 108.342 218.767 108.342 214.888 109.192C211.008 110.042 209.715 110.273 202.337 108.342C194.958 106.41 197.316 106.642 194.274 104.633C191.231 102.624 184.689 98.8384 182.712 98.143C180.734 97.4476 174.497 97.2931 170.465 96.984C166.433 96.675 152.285 104.479 149.471 104.633C146.656 104.788 141.712 107.028 136.996 108.187C132.28 109.346 124.977 111.819 120.565 111.973C117.036 112.097 106.265 114.137 101.321 115.141C98.4047 116.686 92.4056 119.854 91.7362 120.163C90.8995 120.549 79.4895 130.053 78.5006 130.053C77.7095 130.053 68.2824 131.753 63.6677 132.602Z" fill="#3C9AB7"/>
<path d="M41.9531 131.557C41.9531 139.256 35.8065 145.498 28.2243 145.498C20.642 145.498 14.4954 139.256 14.4954 131.557C14.4954 123.857 20.642 117.615 28.2243 117.615C35.8065 117.615 41.9531 123.857 41.9531 131.557Z" fill="white"/>
<path d="M69.6896 138.28C69.6896 146.019 63.4806 152.292 55.8214 152.292C48.1621 152.292 41.9531 146.019 41.9531 138.28C41.9531 130.541 48.1621 124.267 55.8214 124.267C63.4806 124.267 69.6896 130.541 69.6896 138.28Z" fill="white"/>
<path d="M118.89 114.43C118.89 119.863 114.553 124.267 109.204 124.267C103.854 124.267 99.5167 119.863 99.5167 114.43C99.5167 108.997 103.854 104.593 109.204 104.593C114.553 104.593 118.89 108.997 118.89 114.43Z" fill="white"/>
<path d="M135.895 116.129C135.895 121.561 131.558 125.966 126.208 125.966C120.858 125.966 116.521 121.561 116.521 116.129C116.521 110.696 120.858 106.291 126.208 106.291C131.558 106.291 135.895 110.696 135.895 116.129Z" fill="white"/>
<path d="M142.446 109.335C142.446 112.969 139.544 115.916 135.964 115.916C132.385 115.916 129.483 112.969 129.483 109.335C129.483 105.7 132.385 102.753 135.964 102.753C139.544 102.753 142.446 105.7 142.446 109.335Z" fill="white"/>
<path d="M166.837 103.107C166.837 106.742 163.935 109.688 160.356 109.688C156.776 109.688 153.875 106.742 153.875 103.107C153.875 99.4717 156.776 96.525 160.356 96.525C163.935 96.525 166.837 99.4717 166.837 103.107Z" fill="white"/>
<path d="M204.688 111.662C204.044 115.674 200.289 118.392 196.301 117.733C192.312 117.073 189.6 113.286 190.243 109.274C190.886 105.262 194.641 102.544 198.63 103.204C202.619 103.863 205.331 107.65 204.688 111.662Z" fill="white"/>
<path d="M224.201 112.379C223.552 116.43 219.792 119.179 215.803 118.519C211.815 117.86 209.107 114.041 209.757 109.991C210.406 105.94 214.166 103.191 218.155 103.85C222.144 104.51 224.851 108.328 224.201 112.379Z" fill="white"/>
<path d="M212.179 114.263C211.752 116.925 209.281 118.732 206.66 118.298C204.039 117.865 202.26 115.356 202.686 112.694C203.113 110.032 205.584 108.225 208.205 108.659C210.826 109.092 212.605 111.601 212.179 114.263Z" fill="white"/>
<path d="M158.614 106.15C158.614 111.544 154.245 115.916 148.857 115.916C143.469 115.916 139.1 111.544 139.1 106.15C139.1 100.756 143.469 96.3835 148.857 96.3835C154.245 96.3835 158.614 100.756 158.614 106.15Z" fill="white"/>
<path d="M195.794 104.599C194.99 109.614 190.334 113.018 185.396 112.201C180.457 111.385 177.106 106.658 177.91 101.643C178.714 96.6274 183.369 93.2237 188.307 94.0402C193.246 94.8566 196.598 99.5841 195.794 104.599Z" fill="white"/>
<path d="M102.722 120.233C102.722 123.399 100.226 125.966 97.1473 125.966C94.0682 125.966 91.5721 123.399 91.5721 120.233C91.5721 117.067 94.0682 114.501 97.1473 114.501C100.226 114.501 102.722 117.067 102.722 120.233Z" fill="white"/>
<path d="M47.807 132.406C47.807 135.572 45.2486 138.138 42.0925 138.138C38.9364 138.138 36.378 135.572 36.378 132.406C36.378 129.24 38.9364 126.673 42.0925 126.673C45.2486 126.673 47.807 129.24 47.807 132.406Z" fill="white"/>
<path d="M77.6342 132.406C77.6342 135.572 75.1069 138.138 71.9893 138.138C68.8718 138.138 66.3445 135.572 66.3445 132.406C66.3445 129.24 68.8718 126.673 71.9893 126.673C75.1069 126.673 77.6342 129.24 77.6342 132.406Z" fill="white"/>
<path d="M85.5788 132.406C85.5788 135.572 83.0827 138.138 80.0036 138.138C76.9246 138.138 74.4285 135.572 74.4285 132.406C74.4285 129.24 76.9246 126.673 80.0036 126.673C83.0827 126.673 85.5788 129.24 85.5788 132.406Z" fill="white"/>
<path d="M99.1786 127.136C100.545 130.589 98.295 134.758 94.1533 136.448C90.0116 138.139 85.5464 136.71 84.1801 133.258C82.8137 129.805 85.0636 125.636 89.2053 123.946C93.3471 122.255 97.8123 123.684 99.1786 127.136Z" fill="white"/>
<path d="M161.475 97.1049C169.507 93.8893 171.718 81.13 171.819 75.1523H176.991C173.827 88.7567 185.815 96.8988 192.204 99.2693L170.602 106.999C164.213 105.041 153.443 100.321 161.475 97.1049Z" fill="white"/>
<path d="M72.8256 133.609L22.1613 128.443V137.36H223.704L222.589 111.387H218.477C217.153 111.387 214.923 111.387 211.369 112.165C207.814 112.944 206.63 113.156 199.87 111.387C193.11 109.618 195.27 109.83 192.483 107.99C189.695 106.15 183.702 102.682 181.89 102.045C180.078 101.408 174.363 101.267 170.67 100.984C166.976 100.7 154.014 107.848 151.435 107.99C148.857 108.131 144.327 110.184 140.006 111.245C135.686 112.307 128.995 114.572 124.953 114.713C121.72 114.826 111.852 116.695 107.322 117.615C104.651 119.03 99.1543 121.932 98.5411 122.215C97.7745 122.569 87.321 131.273 86.4151 131.273C85.6903 131.273 77.0534 132.83 72.8256 133.609Z" fill="white"/>
<path fill-rule="evenodd" clip-rule="evenodd" d="M212.832 39.796C212.832 43.6338 212.336 47.3048 211.343 50.7254C209.358 57.7336 205.47 63.9074 200.342 68.7464C196.703 72.1671 192.319 74.9203 187.604 76.7558C183.303 78.4244 178.588 79.3421 173.708 79.3421C173.046 79.3421 172.302 79.3421 171.64 79.2587C170.647 79.1752 169.572 79.0918 168.58 79.0084C160.97 78.0072 154.104 74.8369 148.563 70.0813C146.495 68.3293 144.592 66.3269 142.855 64.1577C141.615 62.5726 140.456 60.8205 139.381 58.985C139.133 58.5679 138.885 58.1507 138.719 57.6502C138.719 57.6502 138.719 57.6502 138.719 57.5667C138.471 57.0661 138.223 56.649 138.058 56.1484C137.396 54.6466 136.817 53.0615 136.321 51.4763C135.99 50.3083 135.659 49.1402 135.411 47.9722C135.245 47.1379 135.08 46.3036 134.997 45.3859C134.749 43.5504 134.584 41.7149 134.584 39.796C134.584 38.7114 134.666 37.6268 134.749 36.5422C134.832 35.8748 134.915 35.2073 134.997 34.5399C135.494 30.6186 136.569 26.9477 138.14 23.527C138.885 21.8584 139.795 20.1898 140.787 18.6046C142.442 16.0183 144.344 13.5988 146.577 11.513C153.608 4.5883 163.286 0.333344 173.873 0.333344C174.287 0.333344 174.7 0.333344 175.114 0.333344C175.528 0.333344 176.024 0.333349 176.437 0.416779C178.671 0.58364 180.904 0.91736 182.972 1.41794C184.213 1.75167 185.453 2.08539 186.611 2.50254C187.439 2.75284 188.183 3.08655 189.01 3.42027C189.589 3.67056 190.168 3.92086 190.747 4.17116C190.83 4.25459 190.913 4.25458 191.078 4.33801C194.883 6.17349 198.357 8.67641 201.335 11.6799C201.748 12.0971 202.162 12.5142 202.575 12.9314C202.824 13.2651 203.154 13.5154 203.403 13.8491C203.899 14.3497 204.312 14.9337 204.726 15.4343C206.298 17.4366 207.621 19.6058 208.779 21.8584C210.102 24.5282 211.178 27.3648 211.922 30.2849C212.418 33.2884 212.832 36.4588 212.832 39.796Z" fill="url(#paint0_radial_90_2)"/>
<path d="M183.716 29.5342C183.716 29.2005 184.819 29.3951 185.371 29.5342H187.852C188.845 29.5342 187.438 30.3684 186.611 30.7855C186.198 30.9246 185.205 31.2027 184.543 31.2027C183.716 31.2027 183.716 29.9513 183.716 29.5342Z" fill="url(#paint1_linear_90_2)"/>
<path fill-rule="evenodd" clip-rule="evenodd" d="M190.83 4.25451C190.664 4.25451 190.582 4.25451 190.416 4.33795C190.003 4.42138 189.589 4.33794 189.175 4.25451C188.845 4.17108 188.679 4.00422 188.266 4.00422C187.769 3.92078 187.356 3.75393 186.859 3.6705C186.363 3.58707 185.95 3.42021 185.453 3.25335C185.04 3.08648 184.874 3.16991 184.543 3.25335C184.213 3.33678 183.964 3.16992 183.634 3.08649C183.303 2.91963 182.889 2.91962 182.558 2.83619C181.566 2.66933 180.573 2.33561 179.581 2.08532C179.002 1.91846 178.423 1.91845 177.761 1.91845C177.265 1.91845 176.851 2.08532 176.355 2.08532C176.024 2.08532 175.776 2.00189 175.445 2.00189C175.114 1.91846 174.783 2.00189 174.452 2.00189C173.956 1.91846 173.708 1.83503 173.212 2.00189C172.798 2.08532 172.55 2.08531 172.136 2.16875C171.723 2.16875 171.226 2.33561 170.813 2.41904C170.068 2.5859 169.241 2.75276 168.497 2.75276C168 2.75276 167.339 2.5859 166.925 2.75276C166.677 2.83619 166.512 3.16992 166.263 3.33678C165.85 3.75393 165.436 4.08765 165.105 4.5048C164.775 4.92196 164.444 5.42253 164.444 6.00654C164.444 6.50713 164.692 7.09116 164.94 7.50831C165.188 8.00889 165.271 8.42605 164.775 8.75977C164.196 9.17692 163.451 9.51063 162.789 9.76092C162.293 9.92778 161.88 10.0112 161.549 9.67751C161.383 9.59408 161.301 9.34378 161.135 9.17692C160.97 9.09349 160.722 9.17693 160.556 9.26036C160.06 9.42722 159.564 9.59408 159.067 9.67751C158.736 9.76094 158.488 9.92779 158.157 9.92779C157.827 10.0112 157.578 9.76093 157.165 9.84436C156.669 9.92779 156.09 10.1781 155.593 10.1781C155.18 10.1781 154.683 10.0112 154.352 9.84436C154.187 9.76093 154.104 9.59408 153.856 9.67751C153.691 9.67751 153.443 9.9278 153.36 10.0947C153.194 10.2615 153.194 10.5118 153.029 10.6787C152.864 10.929 152.781 11.0958 152.615 11.3461C152.367 11.7633 152.119 12.1804 151.871 12.5976C151.706 12.8479 151.54 13.265 151.292 13.5153C151.209 13.6822 150.961 13.7656 150.796 13.849C150.382 14.0993 149.969 14.4331 149.555 14.6833C148.811 15.2674 148.066 15.9348 147.322 16.5188C146.743 16.936 145.916 17.1863 145.254 17.52C144.84 17.6868 144.427 17.8537 144.013 18.0206C143.848 18.104 143.6 18.104 143.517 18.2708C143.351 18.4377 143.269 18.6046 143.186 18.8549C142.855 19.272 142.442 19.7726 142.193 20.2732C142.028 20.6069 141.945 20.8572 141.78 21.1909C141.614 21.6081 141.366 22.0252 141.284 22.5258C140.953 23.4436 140.953 24.4447 140.539 25.3624C140.374 25.863 140.043 26.3636 139.795 26.8642C139.381 27.6985 139.298 28.6997 139.216 29.6174C139.133 30.118 139.216 30.7854 139.298 31.286C139.381 31.87 139.381 32.4541 139.381 33.0381C139.381 33.6221 138.968 34.2895 138.637 34.7067C138.306 35.1238 137.727 35.2907 137.313 35.7078C136.982 36.0416 136.569 36.3753 136.403 36.8759C136.321 37.0427 136.403 37.293 136.403 37.5433C136.321 38.0439 136.155 38.461 136.155 38.9616C136.072 39.5456 136.072 40.1297 136.072 40.7971C136.072 41.1308 136.072 41.3811 136.072 41.7148C136.072 42.0486 136.155 42.2989 136.238 42.5492C136.238 42.716 136.238 42.9663 136.238 43.1332C136.238 43.3834 136.403 43.6338 136.403 43.8006C136.569 44.3846 136.652 44.8852 136.734 45.4692C136.817 45.9698 137.065 46.4704 137.148 46.971C137.396 47.6384 137.479 48.3059 137.644 49.0567C137.727 49.5573 137.727 50.1413 137.81 50.6419C137.892 51.0591 137.975 51.4762 137.975 51.8934C137.975 52.5608 137.81 53.1448 137.81 53.8123C137.81 54.8969 138.223 55.9815 138.471 57.0661C138.554 57.3998 138.637 57.6501 138.719 57.9838C135.99 52.6443 134.501 46.5538 134.501 40.1297C134.501 32.2872 136.734 25.0287 140.622 18.9383C142.276 16.3519 144.179 13.9324 146.412 11.8467C153.443 4.92195 163.12 0.666992 173.708 0.666992C174.535 0.666992 175.445 0.666997 176.272 0.750428C181.4 0.666997 186.363 2.00188 190.83 4.25451Z" fill="url(#paint2_linear_90_2)"/>
<path d="M181.235 33.2884C183.22 33.6221 185.922 34.5398 187.025 34.957H189.506C190.334 34.957 194.883 38.2942 195.71 40.38C196.537 42.4658 199.019 40.38 201.086 40.38C203.154 40.38 198.191 47.4716 196.537 49.1402C194.883 50.8088 197.778 54.146 198.191 54.9803C198.605 55.8146 196.951 57.0661 196.537 60.4033C196.124 63.7406 194.883 68.3292 194.056 71.2493C193.394 73.5854 190.196 75.5599 188.679 76.2551C188.128 76.5332 186.694 76.5889 185.371 74.5865C183.716 72.0836 182.889 67.9121 182.476 66.2435C182.062 64.5749 185.784 55.8146 178.34 54.9803C170.896 54.146 175.031 61.2376 165.519 54.146C156.007 47.0544 166.76 33.2884 167.587 32.0369C168.414 30.7855 170.482 32.0369 174.204 30.7855C177.182 29.7843 180.132 30.3683 181.235 30.7855C180.408 31.4807 179.25 32.9547 181.235 33.2884Z" fill="url(#paint3_linear_90_2)"/>
<path d="M140.33 56.6651C140.601 55.8566 139.314 53.184 138.637 51.9488C139.201 51.1627 140.601 49.7927 141.685 50.6013C143.039 51.6119 147.103 49.2537 148.458 49.5906C149.813 49.9275 152.861 50.2644 153.199 51.275C153.538 52.2856 153.538 54.6438 154.215 55.6544C154.757 56.4629 154.215 58.6863 153.877 59.697C153.764 60.0339 153.335 60.775 152.522 61.0445C151.506 61.3814 153.877 61.3814 155.909 62.0551C157.941 62.7289 156.586 66.0977 157.263 67.7821C157.941 69.4665 161.666 72.4984 162.343 73.1721C163.021 73.8459 162.343 74.8565 161.666 74.5196C160.989 74.1828 153.538 68.1189 150.151 67.4452C147.442 66.9062 142.475 61.606 140.33 59.0232C140.217 58.574 140.059 57.4736 140.33 56.6651Z" fill="url(#paint4_linear_90_2)"/>
<path d="M149.39 23.6939V22.0253V19.9396C149.39 19.1053 148.563 19.1052 147.735 17.8538C146.908 16.6023 147.735 17.0195 148.976 16.6023C150.217 16.1852 149.803 17.4366 149.803 17.8538C149.803 18.2709 151.458 19.1052 151.871 19.1052C152.285 19.1052 153.939 19.1052 153.525 19.9396C153.112 20.7739 153.112 21.191 151.871 22.8596C150.879 24.1945 149.803 23.972 149.39 23.6939Z" fill="url(#paint5_linear_90_2)"/>
<path d="M148.562 20.7738C148.893 20.4401 147.322 19.2443 146.494 18.6881C146.357 19.3833 145.915 20.9407 145.254 21.6081C144.427 22.4425 146.494 22.4425 147.322 22.8596C148.149 23.2768 148.149 21.191 148.562 20.7738Z" fill="url(#paint6_linear_90_2)"/>
<path d="M201.086 55.3974C202.079 55.3974 202.879 53.7288 203.154 52.8945C203.498 52.0602 204.395 52.0602 204.809 52.4773C205.222 52.8945 204.809 57.4832 203.568 59.5689C202.327 61.6547 201.086 61.2375 200.259 61.2375C199.432 61.2375 200.259 59.5689 201.086 58.7346C201.914 57.9003 199.846 55.3974 201.086 55.3974Z" fill="url(#paint7_linear_90_2)"/>
<path fill-rule="evenodd" clip-rule="evenodd" d="M189.506 31.2023C189.506 32.5372 188.679 33.149 188.266 33.288L190.747 34.5399C190.609 34.1226 190.747 33.288 192.401 33.288C193.435 33.288 194.366 34.9567 195.296 36.6254C196.227 38.294 197.158 39.9627 198.191 39.9627C200.259 39.9627 205.222 37.0428 206.463 35.7913C207.456 34.7902 206.049 33.1494 205.222 32.4541C204.947 33.2884 203.651 34.2061 200.673 31.2023C196.951 27.4475 198.191 26.6138 200.673 28.2822C202.658 29.617 203.982 29.3947 204.395 29.1167C204.947 28.8385 206.628 28.616 208.944 29.951C211.26 31.286 211.288 40.5191 211.012 44.9687C211.839 41.6315 213.163 33.9558 211.839 29.951C207.704 17.4362 202.741 12.8477 198.191 8.67621C194.552 5.33898 185.371 2.00188 181.235 0.750488C180.132 1.30669 177.761 2.83625 177.099 4.50486C176.322 6.4652 175.91 6.58292 173.459 7.2828C173.303 7.32758 173.138 7.37475 172.963 7.42493C170.965 8.00102 170.937 7.98043 170.296 7.50071C170.008 7.28553 169.596 6.97797 168.828 6.59044C166.986 5.66138 164.46 6.80149 162.265 7.79192C161.504 8.13561 160.782 8.46128 160.143 8.67621C157.662 9.51051 155.593 12.0134 155.593 12.8477C155.593 13.1433 155.386 13.3865 155.191 13.6144C154.837 14.0299 154.525 14.3947 155.593 14.9335C156.68 15.4815 157.588 15.3096 158.552 15.1271C159.056 15.0317 159.575 14.9335 160.143 14.9335C161.797 14.9335 160.97 16.185 160.143 17.0193C159.316 17.8536 157.661 18.2707 155.593 18.6879C154.488 18.9109 154.328 19.6106 154.103 20.596C153.907 21.4541 153.661 22.5286 152.698 23.6935C151.509 25.1331 151.104 25.6527 151.021 25.7794C150.33 25.7831 149.235 25.9536 150.217 26.6138L150.219 26.6153C151.459 27.4493 152.697 28.2822 151.044 28.2822C150.321 28.2822 149.835 28.84 149.379 29.3636C148.791 30.0379 148.253 30.6554 147.322 29.951C146.081 29.0125 145.306 30.1856 144.298 31.7107C143.962 32.2191 143.6 32.7666 143.186 33.288C142.126 34.6248 142.425 35.4476 142.776 36.4151C142.973 36.9573 143.186 37.545 143.186 38.2941C143.186 39.3738 143.63 39.3356 144.287 39.2791C144.899 39.2265 145.697 39.1578 146.495 39.9627C148.025 41.5056 150.969 39.4817 152.385 38.5084C152.5 38.4292 152.605 38.3569 152.698 38.2941C153.939 37.4598 156.007 31.2023 155.593 29.951C155.243 28.89 157.865 27.229 159.428 26.2396C159.708 26.0621 159.954 25.9062 160.143 25.7793C161.037 25.1779 161.931 25.8768 163.29 26.9386C163.816 27.3501 164.413 27.8162 165.106 28.2822C166.627 29.3052 166.594 29.3874 166.436 29.7786C166.336 30.0255 166.186 30.3954 166.346 31.2023C166.553 32.2451 166.76 31.828 167.122 31.098C167.484 30.368 168.001 29.3253 168.828 29.1167C170.482 28.6995 169.655 27.0309 167.174 26.6138C164.692 26.1966 162.211 23.6935 163.451 23.6935H168.828C170.896 23.6935 172.136 24.9452 171.309 25.7793C170.482 26.6134 174.618 28.2822 175.858 28.2822C176.764 28.2822 176.127 26.9477 175.395 25.4156C175.124 24.8494 174.841 24.2563 174.618 23.6935C174.041 22.2393 175.475 22.8129 176.676 23.2936C177.198 23.5023 177.676 23.6935 177.926 23.6935C178.753 23.6935 179.167 24.5278 177.926 25.7793C176.685 27.0308 181.235 28.2822 182.476 28.2822H187.438C189.506 28.2822 189.506 29.5337 189.506 31.2023ZM179.994 23.2765C180.959 23.4156 183.055 23.6102 183.716 23.2765C184.378 22.9428 186.474 23.9718 187.439 24.528C187.99 24.667 189.01 24.7783 188.679 24.1108C188.266 23.2765 185.784 20.3565 184.13 20.7736C182.476 21.1908 179.581 22.8592 179.994 23.2765Z" fill="url(#paint8_linear_90_2)"/>
<path d="M191.16 46.7917L182.858 43.0275V59.2428L193.737 66.1922L191.16 46.7917Z" fill="#FB5A21"/>
<path d="M156.759 46.7917L164.258 43.0275V59.2428L154.432 66.1922L156.759 46.7917Z" fill="#FB5A21"/>
<path d="M173.734 66.2092V62.7472V59.2852V22.3574C173.734 22.3574 168.431 24.6503 164.826 35.5416C162.752 41.8072 161.811 47.6573 161.282 53.8037C160.943 57.7536 161.132 61.8817 161.406 66.2092H163.871V68.5172H166.761V70.8252H173.734V68.5172V66.2092Z" fill="#DCDFD9"/>
<path d="M173.734 66.2092V62.7472V59.2852V22.3574C173.734 22.3574 179.183 24.6503 182.889 35.5416C185.021 41.8072 185.988 47.6573 186.531 53.8037C186.88 57.7536 186.686 61.8817 186.404 66.2092H183.87V68.5172H180.9V70.8252H173.734V68.5172V66.2092Z" fill="#F9F1F9"/>
<path d="M170.935 74.389C172.799 74.389 174.09 74.389 177.245 74.389C180.717 74.389 178.105 84.5479 177.245 84.5479C176.384 84.5479 174.09 88.6442 174.09 88.6442C174.09 88.6442 172.226 84.5479 170.935 84.5479C169.644 84.5479 167.714 74.389 170.935 74.389Z" fill="#E36018"/>
<path d="M171.483 74.3889C173.023 74.3889 174.089 74.3889 176.695 74.3889C179.564 74.3889 177.406 82.0081 176.695 82.0081C175.984 82.0081 174.089 85.0804 174.089 85.0804C174.089 85.0804 172.549 82.0081 171.483 82.0081C170.417 82.0081 168.822 74.3889 171.483 74.3889Z" fill="#FFAE44"/>
<path d="M172.304 74.3889C173.358 74.3889 174.088 74.3889 175.871 74.3889C177.833 74.3889 176.357 79.4684 175.871 79.4684C175.385 79.4684 174.088 81.5166 174.088 81.5166C174.088 81.5166 173.034 79.4684 172.304 79.4684C171.575 79.4684 170.484 74.3889 172.304 74.3889Z" fill="#FCE25E"/>
<path d="M168.119 70.8252H179.7L178.998 75.1017H169.172L168.119 70.8252Z" fill="#5B6575"/>
<mask id="path-20-inside-1_90_2" fill="white">
<ellipse cx="173.806" cy="34.4743" rx="5.61499" ry="5.70209"/>
</mask>
<ellipse cx="173.806" cy="34.4743" rx="5.61499" ry="5.70209" fill="#00D5CC"/>
<path d="M169.421 34.4743C169.421 32.2463 171.24 30.1764 173.806 30.1764V50.1764C182.574 50.1764 189.421 43.0006 189.421 34.4743H169.421ZM173.806 30.1764C176.372 30.1764 178.191 32.2463 178.191 34.4743H158.191C158.191 43.0006 165.037 50.1764 173.806 50.1764V30.1764ZM178.191 34.4743C178.191 36.7023 176.372 38.7722 173.806 38.7722V18.7722C165.037 18.7722 158.191 25.9479 158.191 34.4743H178.191ZM173.806 38.7722C171.24 38.7722 169.421 36.7023 169.421 34.4743H189.421C189.421 25.9479 182.574 18.7722 173.806 18.7722V38.7722Z" fill="#5B6575" mask="url(#path-20-inside-1_90_2)"/>
<path d="M171.21 47.2014L173.667 43.3839L176.123 47.2014L173.667 71.5379L171.21 47.2014Z" fill="#FB5A21"/>
<defs>
<radialGradient id="paint0_radial_90_2" cx="0" cy="0" r="1" gradientUnits="userSpaceOnUse" gradientTransform="translate(149.392 21.2662) scale(62.9473 63.4919)">
<stop offset="0.00558659" stop-color="#0CB9C4"/>
<stop offset="0.2058" stop-color="#0C96C1"/>
<stop offset="0.3613" stop-color="#0B79B7"/>
<stop offset="0.5018" stop-color="#096EA7"/>
<stop offset="0.6334" stop-color="#075E8F"/>
<stop offset="0.7576" stop-color="#044A72"/>
<stop offset="0.8715" stop-color="#003C74"/>
</radialGradient>
<linearGradient id="paint1_linear_90_2" x1="185.955" y1="29.3499" x2="185.955" y2="31.2027" gradientUnits="userSpaceOnUse">
<stop stop-color="#43991F"/>
<stop offset="1" stop-color="#4BFF00" stop-opacity="0"/>
</linearGradient>
<linearGradient id="paint2_linear_90_2" x1="134.474" y1="28.9098" x2="190.844" y2="28.9098" gradientUnits="userSpaceOnUse">
<stop stop-color="#2CB3FF"/>
<stop offset="0.0885417" stop-color="#2CA6FF"/>
<stop offset="0.2325" stop-color="#2DCAFC"/>
<stop offset="0.3947" stop-color="#32AEF3"/>
<stop offset="0.5382" stop-color="#3A7EE3"/>
<stop offset="0.6707" stop-color="#446ACD"/>
<stop offset="0.7958" stop-color="#4268B1"/>
<stop offset="0.9136" stop-color="#1F598E"/>
<stop offset="1" stop-color="#005D72"/>
</linearGradient>
<linearGradient id="paint3_linear_90_2" x1="181.598" y1="30.2327" x2="181.598" y2="76.3962" gradientUnits="userSpaceOnUse">
<stop stop-color="#43991F"/>
<stop offset="1" stop-color="#4BFF00" stop-opacity="0"/>
</linearGradient>
<linearGradient id="paint4_linear_90_2" x1="150.63" y1="49.5574" x2="150.63" y2="74.5865" gradientUnits="userSpaceOnUse">
<stop stop-color="#43991F"/>
<stop offset="1" stop-color="#4BFF00" stop-opacity="0"/>
</linearGradient>
<linearGradient id="paint5_linear_90_2" x1="150.497" y1="16.5184" x2="150.497" y2="23.9049" gradientUnits="userSpaceOnUse">
<stop stop-color="#43991F"/>
<stop offset="1" stop-color="#4BFF00" stop-opacity="0"/>
</linearGradient>
<linearGradient id="paint6_linear_90_2" x1="146.835" y1="18.6881" x2="146.835" y2="22.9145" gradientUnits="userSpaceOnUse">
<stop stop-color="#43991F"/>
<stop offset="1" stop-color="#4BFF00" stop-opacity="0"/>
</linearGradient>
<linearGradient id="paint7_linear_90_2" x1="202.44" y1="52.2033" x2="202.44" y2="61.2716" gradientUnits="userSpaceOnUse">
<stop stop-color="#43991F"/>
<stop offset="1" stop-color="#4BFF00" stop-opacity="0"/>
</linearGradient>
<linearGradient id="paint8_linear_90_2" x1="177.426" y1="0.750488" x2="177.426" y2="44.9687" gradientUnits="userSpaceOnUse">
<stop stop-color="#43991F"/>
<stop offset="1" stop-color="#4BFF00" stop-opacity="0"/>
</linearGradient>
</defs>
</svg>
