<svg width="10" height="10" viewBox="0 0 10 10" fill="none" xmlns="http://www.w3.org/2000/svg">
<path d="M8.28132 4.68743C8.71275 4.68743 9.0625 4.33768 9.0625 3.90624C9.0625 3.47481 8.71272 3.12506 8.28128 3.12506C7.84981 3.12506 7.5 3.47484 7.5 3.90631V4.68743H8.28132ZM6.09375 4.68743C6.52522 4.68743 6.875 4.33765 6.875 3.90618V1.71881C6.875 1.28734 6.52522 0.937561 6.09375 0.937561C5.66228 0.937561 5.3125 1.28734 5.3125 1.71881V3.90618C5.3125 4.33765 5.66228 4.68743 6.09375 4.68743Z" fill="#2EB67D"/>
<path d="M1.71868 5.31257C1.28725 5.31257 0.9375 5.66232 0.9375 6.09376C0.9375 6.52519 1.28728 6.87494 1.71872 6.87494C2.15019 6.87494 2.5 6.52516 2.5 6.09369V5.31257H1.71868ZM3.90625 5.31257C3.47478 5.31257 3.125 5.66235 3.125 6.09382V8.28119C3.125 8.71266 3.47478 9.06244 3.90625 9.06244C4.33772 9.06244 4.6875 8.71266 4.6875 8.28119V6.09382C4.6875 5.66235 4.33772 5.31257 3.90625 5.31257Z" fill="#E01E5A"/>
<path d="M5.31257 8.28132C5.31257 8.71275 5.66232 9.0625 6.09376 9.0625C6.52519 9.0625 6.87494 8.71272 6.87494 8.28128C6.87494 7.84981 6.52516 7.5 6.09369 7.5L5.31257 7.5L5.31257 8.28132ZM5.31257 6.09375C5.31257 6.52522 5.66235 6.875 6.09382 6.875L8.28119 6.875C8.71266 6.875 9.06244 6.52522 9.06244 6.09375C9.06244 5.66228 8.71266 5.3125 8.28119 5.3125L6.09382 5.3125C5.66235 5.3125 5.31257 5.66228 5.31257 6.09375Z" fill="#ECB22E"/>
<path d="M4.68743 1.71868C4.68743 1.28725 4.33768 0.9375 3.90624 0.9375C3.47481 0.9375 3.12506 1.28728 3.12506 1.71872C3.12506 2.15019 3.47484 2.5 3.90631 2.5L4.68743 2.5L4.68743 1.71868ZM4.68743 3.90625C4.68743 3.47478 4.33765 3.125 3.90618 3.125L1.71881 3.125C1.28734 3.125 0.937561 3.47478 0.937561 3.90625C0.937561 4.33772 1.28734 4.6875 1.71881 4.6875L3.90618 4.6875C4.33765 4.6875 4.68743 4.33772 4.68743 3.90625Z" fill="#36C5F0"/>
</svg>
