<svg width="2200" height="5552" viewBox="0 0 2200 5552" fill="none" xmlns="http://www.w3.org/2000/svg"><path fill="#000" d="M15.693 0h2184.31v5550.55H15.693z"/><path d="M18.1203.00048828L18.1202 5552H2200V.00052613L18.1203.00048828z" fill="#000"/><ellipse rx="3.85443" ry="4.98641" transform="matrix(-.99998 -.00573 .02198 -.99976 1668.17 3615.75)" fill="#fff"/><ellipse rx="3.85443" ry="4.98641" transform="matrix(.99998 .00573 .02198 -.99976 928.43 2021.09)" fill="#fff"/><ellipse rx="3.85443" ry="4.98641" transform="matrix(-.99998 -.00573 -.02198 .99976 486.058 1933.8)" fill="#fff"/><ellipse rx="3.85443" ry="4.98641" transform="matrix(-.99998 -.00573 .02198 -.99976 1738.49 3222.29)" fill="#fff"/><ellipse rx="3.85443" ry="4.98641" transform="matrix(.99998 .00573 .02198 -.99976 1100.13 1224.38)" fill="#fff"/><ellipse rx="3.85443" ry="4.98641" transform="matrix(-.99998 -.00573 -.02198 .99976 314.355 2730.52)" fill="#fff"/><ellipse rx="3.85443" ry="4.98641" transform="matrix(.99998 .00573 .02198 -.99976 1053.23 2305.99)" fill="#fff"/><ellipse rx="3.85443" ry="4.98641" transform="matrix(-.99998 -.00573 -.02198 .99976 321.996 2177.44)" fill="#fff"/><ellipse rx="3.85443" ry="4.98641" transform="matrix(-.99998 -.00573 .02198 -.99976 1825.51 316.162)" fill="#fff"/><ellipse rx="3.85443" ry="4.98641" transform="matrix(-.99998 -.00573 .02198 -.99976 1326.17 3917.91)" fill="#fff"/><ellipse rx="3.85443" ry="4.98641" transform="matrix(.99998 .00573 .02198 -.99976 803.434 1920.67)" fill="#fff"/><ellipse rx="3.85443" ry="4.98641" transform="matrix(-.99998 -.00573 -.02198 .99976 611.055 2034.23)" fill="#fff"/><ellipse rx="3.85443" ry="4.98641" transform="matrix(-.99998 -.00573 .02198 -.99976 1091.75 3183.68)" fill="#fff"/><ellipse rx="3.85443" ry="4.98641" transform="matrix(.99998 .00573 -.02198 .99976 322.738 771.216)" fill="#fff"/><ellipse rx="3.85443" ry="4.98641" transform="matrix(.99998 .00573 .02198 -.99976 2096.04 2037.76)" fill="#fff"/><ellipse rx="3.85443" ry="4.98641" transform="matrix(.99998 .00573 .02198 -.99976 1788.61 2345.1)" fill="#fff"/><ellipse rx="3.85443" ry="4.98641" transform="matrix(-.99998 -.00573 .02198 -.99976 1088.59 346.839)" fill="#fff"/><ellipse rx="3.85443" ry="4.98641" transform="matrix(.99998 .00573 -.02198 .99976 325.899 3608.06)" fill="#fff"/><ellipse rx="3.85443" ry="4.98641" transform="matrix(-.99998 -.00573 .02198 -.99976 2045.19 3298.83)" fill="#fff"/><ellipse rx="3.85443" ry="4.98641" transform="matrix(.99998 .00573 .02198 -.99976 867.914 1442.41)" fill="#fff"/><ellipse rx="3.85443" ry="4.98641" transform="matrix(-.99998 -.00573 -.02198 .99976 546.576 2512.48)" fill="#fff"/><ellipse rx="3.85443" ry="4.98641" transform="matrix(.99998 .00573 .02198 -.99976 809.516 2169.98)" fill="#fff"/><ellipse rx="3.85443" ry="4.98641" transform="matrix(-.99998 -.00573 -.02198 .99976 604.973 1784.92)" fill="#fff"/><ellipse rx="3.85443" ry="4.98641" transform="matrix(.99998 .00573 .02198 -.99976 730.66 2074.8)" fill="#fff"/><ellipse rx="3.85443" ry="4.98641" transform="matrix(-.99998 -.00573 -.02198 .99976 683.829 1880.09)" fill="#fff"/><ellipse rx="3.85443" ry="4.98641" transform="matrix(.99998 .00573 .02198 -.99976 821.006 2524.03)" fill="#fff"/><ellipse rx="3.85443" ry="4.98641" transform="matrix(-.99998 -.00573 -.02198 .99976 593.483 1430.87)" fill="#fff"/><ellipse rx="3.85443" ry="4.98641" transform="matrix(-.99998 -.00573 .02198 -.99976 1971 536.363)" fill="#fff"/><ellipse rx="3.85443" ry="4.98641" transform="matrix(-.99998 -.00573 .02198 -.99976 1665.33 2867.89)" fill="#fff"/><ellipse rx="3.85443" ry="4.98641" transform="matrix(.99998 .00573 .02198 -.99976 1188.85 870.905)" fill="#fff"/><ellipse rx="3.85443" ry="4.98641" transform="matrix(-.99998 -.00573 -.02198 .99976 225.636 3083.99)" fill="#fff"/><ellipse rx="3.85443" ry="4.98641" transform="matrix(-.99998 -.00573 .02198 -.99976 1623.61 3012.23)" fill="#fff"/><ellipse rx="3.85443" ry="4.98641" transform="matrix(.99998 .00573 .02198 -.99976 1224.22 1015.69)" fill="#fff"/><ellipse rx="3.85443" ry="4.98641" transform="matrix(-.99998 -.00573 -.02198 .99976 190.271 2939.21)" fill="#fff"/><ellipse rx="3.85443" ry="4.98641" transform="matrix(-.99998 -.00573 .02198 -.99976 1516.12 2817.18)" fill="#fff"/><ellipse rx="3.85443" ry="4.98641" transform="matrix(.99998 .00573 .02198 -.99976 1340.26 821.916)" fill="#fff"/><ellipse rx="3.85443" ry="4.98641" transform="matrix(-.99998 -.00573 -.02198 .99976 74.225 3132.98)" fill="#fff"/><ellipse rx="3.85443" ry="4.98641" transform="matrix(-.99998 -.00573 .02198 -.99976 1457.1 2871.68)" fill="#fff"/><ellipse rx="3.85443" ry="4.98641" transform="matrix(.99998 .00573 .02198 -.99976 1396.87 877.083)" fill="#fff"/><ellipse rx="3.85443" ry="4.98641" transform="matrix(-.99998 -.00573 .02198 -.99976 1814.04 3292.52)" fill="#fff"/><ellipse rx="3.85443" ry="4.98641" transform="matrix(.99998 .00573 .02198 -.99976 851.93 1292.75)" fill="#fff"/><ellipse rx="3.85443" ry="4.98641" transform="matrix(-.99998 -.00573 -.02198 .99976 562.559 2662.15)" fill="#fff"/><ellipse rx="3.85443" ry="4.98641" transform="matrix(-.99998 -.00573 .02198 -.99976 2005.16 3891.89)" fill="#fff"/><ellipse rx="3.85443" ry="4.98641" transform="matrix(.99998 .00573 .02198 -.99976 760.854 1227.42)" fill="#fff"/><ellipse rx="3.85443" ry="4.98641" transform="matrix(-.99998 -.00573 -.02198 .99976 653.635 2727.48)" fill="#fff"/><ellipse rx="3.85443" ry="4.98641" transform="matrix(-.99998 -.00573 .02198 -.99976 1695.68 3416.48)" fill="#fff"/><ellipse rx="3.85443" ry="4.98641" transform="matrix(.99998 .00573 .02198 -.99976 1154.88 1364.29)" fill="#fff"/><ellipse rx="3.85443" ry="4.98641" transform="matrix(-.99998 -.00573 -.02198 .99976 259.61 2590.61)" fill="#fff"/><ellipse rx="3.85443" ry="4.98641" transform="matrix(-.99998 -.00573 .02198 -.99976 1762.13 3900.47)" fill="#fff"/><ellipse rx="3.85443" ry="4.98641" transform="matrix(.99998 .00573 .02198 -.99976 1046.69 1902.12)" fill="#fff"/><ellipse rx="3.85443" ry="4.98641" transform="matrix(-.99998 -.00573 -.02198 .99976 653.237 3638.89)" fill="#fff"/><ellipse rx="3.85443" ry="4.98641" transform="matrix(-.99998 -.00573 .02198 -.99976 1375.45 3429.6)" fill="#fff"/><ellipse rx="3.85443" ry="4.98641" transform="matrix(.99998 .00573 .02198 -.99976 1453.97 1435.8)" fill="#fff"/><ellipse rx="3.85443" ry="4.98641" transform="matrix(-.99998 -.00573 .02198 -.99976 991.452 3362.59)" fill="#fff"/><ellipse rx="3.85443" ry="4.98641" transform="matrix(.99998 .00573 -.02198 .99976 423.039 592.308)" fill="#fff"/><ellipse rx="3.85443" ry="4.98641" transform="matrix(.99998 .00573 .02198 -.99976 1840.82 1373.2)" fill="#fff"/><ellipse rx="3.85443" ry="4.98641" transform="matrix(-.99998 -.00573 .02198 -.99976 1838.56 2878.85)" fill="#fff"/><ellipse rx="3.85443" ry="4.98641" transform="matrix(.99998 .00573 .02198 -.99976 1015.19 879.881)" fill="#fff"/><ellipse rx="3.85443" ry="4.98641" transform="matrix(-.99998 -.00573 -.02198 .99976 399.294 3075.02)" fill="#fff"/><ellipse rx="3.85443" ry="4.98641" transform="matrix(-.99998 -.00573 .02198 -.99976 1353.16 3040.6)" fill="#fff"/><ellipse rx="3.85443" ry="4.98641" transform="matrix(.99998 .00573 .02198 -.99976 1493.35 1047.15)" fill="#fff"/><ellipse rx="3.85443" ry="4.98641" transform="matrix(-.99998 -.00573 .02198 -.99976 1595.12 3256.37)" fill="#fff"/><ellipse rx="3.85443" ry="4.98641" transform="matrix(.99998 .00573 .02198 -.99976 1020.09 1358.53)" fill="#fff"/><ellipse rx="3.85443" ry="4.98641" transform="matrix(-.99998 -.00573 -.02198 .99976 394.398 2596.37)" fill="#fff"/><ellipse rx="3.85443" ry="4.98641" transform="matrix(-.99998 -.00573 .02198 -.99976 2089.08 2880.29)" fill="#fff"/><ellipse rx="3.85443" ry="4.98641" transform="matrix(.99998 .00573 .02198 -.99976 764.672 878.446)" fill="#fff"/><ellipse rx="3.85443" ry="4.98641" transform="matrix(-.99998 -.00573 -.02198 .99976 649.818 3076.45)" fill="#fff"/><ellipse rx="3.85443" ry="4.98641" transform="matrix(-.99998 -.00573 .02198 -.99976 719.866 3091.81)" fill="#fff"/><ellipse rx="3.85443" ry="4.98641" transform="matrix(.99998 .00573 -.02198 .99976 694.624 863.088)" fill="#fff"/><ellipse rx="3.85443" ry="4.98641" transform="matrix(.99998 .00573 .02198 -.99976 2124.24 1105.6)" fill="#fff"/><ellipse rx="3.85443" ry="4.98641" transform="matrix(-.99998 -.00573 .02198 -.99976 759.047 2887.62)" fill="#fff"/><ellipse rx="3.85443" ry="4.98641" transform="matrix(.99998 .00573 -.02198 .99976 655.442 1067.27)" fill="#fff"/><ellipse rx="3.85443" ry="4.98641" transform="matrix(.99998 .00573 .02198 -.99976 2094.05 901.02)" fill="#fff"/><ellipse rx="3.85443" ry="4.98641" transform="matrix(.99998 .00573 .02198 -.99976 909.086 2374.96)" fill="#fff"/><ellipse rx="3.85443" ry="4.98641" transform="matrix(-.99998 -.00573 -.02198 .99976 505.403 1579.94)" fill="#fff"/><ellipse rx="3.85443" ry="4.98641" transform="matrix(-.99998 -.00573 .02198 -.99976 1966.58 386.769)" fill="#fff"/><ellipse rx="3.85443" ry="4.98641" transform="matrix(-.99998 -.00573 .02198 -.99976 1276.46 3548.69)" fill="#fff"/><ellipse rx="3.85443" ry="4.98641" transform="matrix(.99998 .00573 -.02198 .99976 138.027 406.206)" fill="#fff"/><ellipse rx="3.85443" ry="4.98641" transform="matrix(.99998 .00573 .02198 -.99976 1500.79 2637.61)" fill="#fff"/><ellipse rx="3.85443" ry="4.98641" transform="matrix(-.99998 -.00573 .02198 -.99976 1363.48 642.566)" fill="#fff"/><ellipse rx="3.85443" ry="4.98641" transform="matrix(.99998 .00573 -.02198 .99976 51.0098 3312.33)" fill="#fff"/><ellipse rx="3.85443" ry="4.98641" transform="matrix(-.99998 -.00573 .02198 -.99976 1214.85 3019.86)" fill="#fff"/><ellipse rx="3.85443" ry="4.98641" transform="matrix(.99998 .00573 -.02198 .99976 199.641 935.037)" fill="#fff"/><ellipse rx="3.85443" ry="4.98641" transform="matrix(.99998 .00573 .02198 -.99976 1632.54 1028)" fill="#fff"/><ellipse rx="3.85443" ry="4.98641" transform="matrix(.99998 .00573 .02198 -.99976 1637.5 2030.14)" fill="#fff"/><ellipse rx="3.85443" ry="4.98641" transform="matrix(-.99998 -.00573 .02198 -.99976 1101.67 102.618)" fill="#fff"/><ellipse rx="3.85443" ry="4.98641" transform="matrix(.99998 .00573 -.02198 .99976 312.822 3852.28)" fill="#fff"/><ellipse rx="3.85443" ry="4.98641" transform="matrix(.99998 .00573 .02198 -.99976 1517.58 2049.4)" fill="#fff"/><ellipse rx="3.85443" ry="4.98641" transform="matrix(-.99998 -.00573 .02198 -.99976 1372.56 54.3136)" fill="#fff"/><ellipse rx="3.85443" ry="4.98641" transform="matrix(.99998 .00573 -.02198 .99976 41.931 3900.59)" fill="#fff"/><ellipse rx="3.85443" ry="4.98641" transform="matrix(.99998 .00573 .02198 -.99976 1155.5 2037.35)" fill="#fff"/><ellipse rx="3.85443" ry="4.98641" transform="matrix(-.99998 -.00573 -.02198 .99976 529.574 3478.91)" fill="#fff"/><ellipse rx="3.85443" ry="4.98641" transform="matrix(-.99998 -.00573 .02198 -.99976 1735.07 46.4196)" fill="#fff"/><ellipse rx="3.85443" ry="4.98641" transform="matrix(.99998 .00573 .02198 -.99976 771.212 2334.29)" fill="#fff"/><ellipse rx="3.85443" ry="4.98641" transform="matrix(-.99998 -.00573 -.02198 .99976 643.278 1620.61)" fill="#fff"/><ellipse rx="3.85443" ry="4.98641" transform="matrix(-.99998 -.00573 .02198 -.99976 2106.21 347.684)" fill="#fff"/><ellipse rx="3.85443" ry="4.98641" transform="matrix(.99998 .00573 .02198 -.99976 730.697 2423.8)" fill="#fff"/><ellipse rx="3.85443" ry="4.98641" transform="matrix(-.99998 -.00573 -.02198 .99976 683.791 1531.1)" fill="#fff"/><ellipse rx="3.85443" ry="4.98641" transform="matrix(-.99998 -.00573 .02198 -.99976 2142.78 437.635)" fill="#fff"/><ellipse rx="3.85443" ry="4.98641" transform="matrix(.99998 .00573 .02198 -.99976 1635.76 2284.4)" fill="#fff"/><ellipse rx="3.85443" ry="4.98641" transform="matrix(-.99998 -.00573 .02198 -.99976 1244.07 287.902)" fill="#fff"/><ellipse rx="3.85443" ry="4.98641" transform="matrix(.99998 .00573 -.02198 .99976 170.417 3667)" fill="#fff"/><ellipse rx="3.85443" ry="4.98641" transform="matrix(.99998 .00573 .02198 -.99976 1277.54 2272.38)" fill="#fff"/><ellipse rx="3.85443" ry="4.98641" transform="matrix(-.99998 -.00573 -.02198 .99976 221.425 1701.67)" fill="#fff"/><ellipse rx="3.85443" ry="4.98641" transform="matrix(-.99998 -.00573 .02198 -.99976 1602.73 279.986)" fill="#fff"/><ellipse rx="3.85443" ry="4.98641" transform="matrix(-.99998 -.00573 .02198 -.99976 1797.35 3701.25)" fill="#fff"/><ellipse rx="3.85443" ry="4.98641" transform="matrix(.99998 .00573 .02198 -.99976 988.289 1577.72)" fill="#fff"/><ellipse rx="3.85443" ry="4.98641" transform="matrix(-.99998 -.00573 -.02198 .99976 426.2 2377.18)" fill="#fff"/><ellipse rx="3.85443" ry="4.98641" transform="matrix(-.99998 -.00573 .02198 -.99976 1820.4 3003.39)" fill="#fff"/><ellipse rx="3.85443" ry="4.98641" transform="matrix(.99998 .00573 .02198 -.99976 1027.87 1004.6)" fill="#fff"/><ellipse rx="3.85443" ry="4.98641" transform="matrix(-.99998 -.00573 -.02198 .99976 386.617 2950.3)" fill="#fff"/><ellipse rx="3.85443" ry="4.98641" transform="matrix(.99998 .00573 .02198 -.99976 1387.6 1823.23)" fill="#fff"/><ellipse rx="3.85443" ry="4.98641" transform="matrix(-.99998 -.00573 -.02198 .99976 191.386 2011.89)" fill="#fff"/><ellipse rx="3.85443" ry="4.98641" transform="matrix(-.99998 -.00573 .02198 -.99976 1835.06 56.9641)" fill="#fff"/><ellipse rx="3.85443" ry="4.98641" transform="matrix(.99998 .00573 .02198 -.99976 1035.4 2415.57)" fill="#fff"/><ellipse rx="3.85443" ry="4.98641" transform="matrix(-.99998 -.00573 -.02198 .99976 379.09 1539.33)" fill="#fff"/><ellipse rx="3.85443" ry="4.98641" transform="matrix(-.99998 -.00573 .02198 -.99976 1838.52 425.92)" fill="#fff"/><ellipse rx="3.85443" ry="4.98641" transform="matrix(.99998 .00573 .02198 -.99976 924.522 2549.55)" fill="#fff"/><ellipse rx="3.85443" ry="4.98641" transform="matrix(-.99998 -.00573 -.02198 .99976 545.069 19.423)" fill="#fff"/><ellipse rx="3.85443" ry="4.98641" transform="matrix(-.99998 -.00573 .02198 -.99976 2066.26 586.765)" fill="#fff"/><ellipse rx="3.85443" ry="4.98641" transform="matrix(.99998 .00573 .02198 -.99976 1107.35 2824.81)" fill="#fff"/><ellipse rx="3.85443" ry="4.98641" transform="matrix(-.99998 -.00573 -.02198 .99976 307.139 1130.09)" fill="#fff"/><ellipse rx="3.85443" ry="4.98641" transform="matrix(-.99998 -.00573 .02198 -.99976 1748.59 834.227)" fill="#fff"/><ellipse rx="3.85443" ry="4.98641" transform="matrix(-.99998 -.00573 .02198 -.99976 1260.51 3748.03)" fill="#fff"/><ellipse rx="3.85443" ry="4.98641" transform="matrix(.99998 .00573 -.02198 .99976 153.974 206.873)" fill="#fff"/><ellipse rx="3.85443" ry="4.98641" transform="matrix(.99998 .00573 .02198 -.99976 1594.2 1895.28)" fill="#fff"/><ellipse rx="3.85443" ry="4.98641" transform="matrix(-.99998 -.00573 .02198 -.99976 1113.36 3428.1)" fill="#fff"/><ellipse rx="3.85443" ry="4.98641" transform="matrix(.99998 .00573 -.02198 .99976 301.128 526.797)" fill="#fff"/><ellipse rx="3.85443" ry="4.98641" transform="matrix(.99998 .00573 .02198 -.99976 1635.89 1401.94)" fill="#fff"/><ellipse rx="3.85443" ry="4.98641" transform="matrix(.99998 .00573 .02198 -.99976 1669.15 2518.92)" fill="#fff"/><ellipse rx="3.85443" ry="4.98641" transform="matrix(-.99998 -.00573 .02198 -.99976 1200.38 521.977)" fill="#fff"/><ellipse rx="3.85443" ry="4.98641" transform="matrix(.99998 .00573 -.02198 .99976 214.11 3432.92)" fill="#fff"/><ellipse rx="3.85443" ry="4.98641" transform="matrix(-.99998 -.00573 .02198 -.99976 1522.13 3420.47)" fill="#fff"/><ellipse rx="3.85443" ry="4.98641" transform="matrix(.99998 .00573 .02198 -.99976 1307.73 1424.99)" fill="#fff"/><ellipse rx="3.85443" ry="4.98641" transform="matrix(-.99998 -.00573 -.02198 .99976 106.757 2529.91)" fill="#fff"/><ellipse rx="3.85443" ry="4.98641" transform="matrix(.99998 .00573 .02198 -.99976 1297.61 2586.59)" fill="#fff"/><ellipse rx="3.85443" ry="4.98641" transform="matrix(-.99998 -.00573 -.02198 .99976 116.875 1368.31)" fill="#fff"/><ellipse rx="3.85443" ry="4.98641" transform="matrix(-.99998 -.00573 .02198 -.99976 1568.85 593.887)" fill="#fff"/><ellipse rx="3.85443" ry="4.98641" transform="matrix(-.99998 -.00573 .02198 -.99976 1391.83 3210.33)" fill="#fff"/><ellipse rx="3.85443" ry="4.98641" transform="matrix(.99998 .00573 .02198 -.99976 1447.23 1216.39)" fill="#fff"/><ellipse rx="3.85443" ry="4.98641" transform="matrix(.99998 .00573 .02198 -.99976 1400.32 2298.01)" fill="#fff"/><ellipse rx="3.85443" ry="4.98641" transform="matrix(-.99998 -.00573 .02198 -.99976 1478.85 304.205)" fill="#fff"/><ellipse rx="3.85443" ry="4.98641" transform="matrix(-.99998 -.00573 .02198 -.99976 807.49 3840.16)" fill="#fff"/><ellipse rx="3.85443" ry="4.98641" transform="matrix(.99998 .00573 -.02198 .99976 606.999 114.741)" fill="#fff"/><ellipse rx="3.85443" ry="4.98641" transform="matrix(.99998 .00573 .02198 -.99976 2003.74 1852.76)" fill="#fff"/><ellipse rx="3.85443" ry="4.98641" transform="matrix(-.99998 -.00573 .02198 -.99976 753.605 3485.87)" fill="#fff"/><ellipse rx="3.85443" ry="4.98641" transform="matrix(.99998 .00573 -.02198 .99976 660.884 469.03)" fill="#fff"/><ellipse rx="3.85443" ry="4.98641" transform="matrix(.99998 .00573 .02198 -.99976 2073.19 1499.18)" fill="#fff"/><ellipse rx="3.85443" ry="4.98641" transform="matrix(.99998 .00573 .02198 -.99976 2026.28 2580.79)" fill="#fff"/><ellipse rx="3.85443" ry="4.98641" transform="matrix(-.99998 -.00573 .02198 -.99976 840.622 579.743)" fill="#fff"/><ellipse rx="3.85443" ry="4.98641" transform="matrix(.99998 .00573 -.02198 .99976 573.867 3375.16)" fill="#fff"/><ellipse rx="3.85443" ry="4.98641" transform="matrix(-.99998 -.00573 .02198 -.99976 1533.93 3585.07)" fill="#fff"/><ellipse rx="3.85443" ry="4.98641" transform="matrix(.99998 .00573 .02198 -.99976 1288.7 1589.41)" fill="#fff"/><ellipse rx="3.85443" ry="4.98641" transform="matrix(-.99998 -.00573 -.02198 .99976 125.791 2365.49)" fill="#fff"/><ellipse rx="3.85443" ry="4.98641" transform="matrix(.99998 .00573 .02198 -.99976 1348.39 2731.46)" fill="#fff"/><ellipse rx="3.85443" ry="4.98641" transform="matrix(-.99998 -.00573 .02198 -.99976 1511.71 738.143)" fill="#fff"/><ellipse rx="3.85443" ry="4.98641" transform="matrix(.99998 .00573 .02198 -.99976 1191.8 2665.75)" fill="#fff"/><ellipse rx="3.85443" ry="4.98641" transform="matrix(-.99998 -.00573 -.02198 .99976 222.692 1289.15)" fill="#fff"/><ellipse rx="3.85443" ry="4.98641" transform="matrix(-.99998 -.00573 .02198 -.99976 1612.91 693.852)" fill="#fff"/><ellipse rx="3.85443" ry="4.98641" transform="matrix(.99998 .00573 .02198 -.99976 961.549 2794.06)" fill="#fff"/><ellipse rx="3.85443" ry="4.98641" transform="matrix(-.99998 -.00573 -.02198 .99976 452.941 1160.84)" fill="#fff"/><ellipse rx="3.85443" ry="4.98641" transform="matrix(-.99998 -.00573 .02198 -.99976 1895.71 805.156)" fill="#fff"/><ellipse rx="3.85443" ry="4.98641" transform="matrix(.99998 .00573 .02198 -.99976 751.375 3236.57)" fill="#fff"/><ellipse rx="3.85443" ry="4.98641" transform="matrix(-.99998 -.00573 -.02198 .99976 663.113 718.325)" fill="#fff"/><ellipse rx="3.85443" ry="4.98641" transform="matrix(-.99998 -.00573 .02198 -.99976 778.298 1661.27)" fill="#fff"/><ellipse rx="3.85443" ry="4.98641" transform="matrix(.99998 .00573 -.02198 .99976 636.19 2293.63)" fill="#fff"/><ellipse rx="3.85443" ry="4.98641" transform="matrix(.99998 .00573 .02198 -.99976 845.503 2987.83)" fill="#fff"/><ellipse rx="3.85443" ry="4.98641" transform="matrix(-.99998 -.00573 -.02198 .99976 568.987 967.067)" fill="#fff"/><ellipse rx="3.85443" ry="4.98641" transform="matrix(-.99998 -.00573 .02198 -.99976 2000.27 1309.3)" fill="#fff"/><ellipse rx="3.85443" ry="4.98641" transform="matrix(.99998 .00573 .02198 -.99976 801.097 2728.32)" fill="#fff"/><ellipse rx="3.85443" ry="4.98641" transform="matrix(-.99998 -.00573 -.02198 .99976 613.393 1226.57)" fill="#fff"/><ellipse rx="3.85443" ry="4.98641" transform="matrix(-.99998 -.00573 .02198 -.99976 1972.57 815.568)" fill="#fff"/><ellipse rx="3.85443" ry="4.98641" transform="matrix(-.99998 -.00573 .02198 -.99976 1426.61 3031.05)" fill="#fff"/><ellipse rx="3.85443" ry="4.98641" transform="matrix(.99998 .00573 .02198 -.99976 1420.34 1036.76)" fill="#fff"/><ellipse rx="3.85443" ry="4.98641" transform="matrix(.99998 .00573 .02198 -.99976 1406.35 2023.83)" fill="#fff"/><ellipse rx="3.85443" ry="4.98641" transform="matrix(-.99998 -.00573 .02198 -.99976 1484.88 30.0293)" fill="#fff"/><ellipse rx="3.85443" ry="4.98641" transform="matrix(-.99998 -.00573 .02198 -.99976 997.095 3631.85)" fill="#fff"/><ellipse rx="3.85443" ry="4.98641" transform="matrix(.99998 .00573 -.02198 .99976 417.393 323.051)" fill="#fff"/><ellipse rx="3.85443" ry="4.98641" transform="matrix(.99998 .00573 .02198 -.99976 1839.96 1587.58)" fill="#fff"/><ellipse rx="3.85443" ry="4.98641" transform="matrix(.99998 .00573 .02198 -.99976 1905.61 2809.44)" fill="#fff"/><ellipse rx="3.85443" ry="4.98641" transform="matrix(-.99998 -.00573 .02198 -.99976 944.521 61.8327)" fill="#fff"/><ellipse rx="3.85443" ry="4.98641" transform="matrix(.99998 .00573 -.02198 .99976 469.968 3893.07)" fill="#fff"/><ellipse rx="3.85443" ry="4.98641" transform="matrix(-.99998 -.00573 .02198 -.99976 935.482 3103.02)" fill="#fff"/><ellipse rx="3.85443" ry="4.98641" transform="matrix(.99998 .00573 -.02198 .99976 479.007 851.882)" fill="#fff"/><ellipse rx="3.85443" ry="4.98641" transform="matrix(.99998 .00573 .02198 -.99976 1908.18 1114.34)" fill="#fff"/><ellipse rx="3.85443" ry="4.98641" transform="matrix(.99998 .00573 .02198 -.99976 1911.82 2176.3)" fill="#fff"/><ellipse rx="3.85443" ry="4.98641" transform="matrix(-.99998 -.00573 .02198 -.99976 972.834 176.665)" fill="#fff"/><ellipse rx="3.85443" ry="4.98641" transform="matrix(.99998 .00573 -.02198 .99976 441.654 3778.24)" fill="#fff"/><ellipse rx="3.85443" ry="4.98641" transform="matrix(-.99998 -.00573 .02198 -.99976 1517.98 3784.4)" fill="#fff"/><ellipse rx="3.85443" ry="4.98641" transform="matrix(.99998 .00573 .02198 -.99976 1116.57 1528.59)" fill="#fff"/><ellipse rx="3.85443" ry="4.98641" transform="matrix(-.99998 -.00573 -.02198 .99976 297.915 2426.3)" fill="#fff"/><ellipse rx="3.85443" ry="4.98641" transform="matrix(-.99998 -.00573 .02198 -.99976 1569.45 3196.39)" fill="#fff"/><ellipse rx="3.85443" ry="4.98641" transform="matrix(.99998 .00573 .02198 -.99976 1270.27 1200.42)" fill="#fff"/><ellipse rx="3.85443" ry="4.98641" transform="matrix(-.99998 -.00573 -.02198 .99976 144.221 2754.48)" fill="#fff"/><ellipse rx="3.85443" ry="4.98641" transform="matrix(.99998 .00573 .02198 -.99976 1216.04 1913.63)" fill="#fff"/><ellipse rx="3.85443" ry="4.98641" transform="matrix(-.99998 -.00573 -.02198 .99976 306.624 1866.65)" fill="#fff"/><ellipse rx="3.85443" ry="4.98641" transform="matrix(-.99998 -.00573 .02198 -.99976 1656.47 290.265)" fill="#fff"/><ellipse rx="3.85443" ry="4.98641" transform="matrix(-.99998 -.00573 .02198 -.99976 1041.17 3906.31)" fill="#fff"/><ellipse rx="3.85443" ry="4.98641" transform="matrix(.99998 .00573 -.02198 .99976 373.317 48.5886)" fill="#fff"/><ellipse rx="3.85443" ry="4.98641" transform="matrix(.99998 .00573 .02198 -.99976 1767.21 1916.22)" fill="#fff"/><ellipse rx="3.85443" ry="4.98641" transform="matrix(-.99998 -.00573 .02198 -.99976 869.979 3277.14)" fill="#fff"/><ellipse rx="3.85443" ry="4.98641" transform="matrix(.99998 .00573 -.02198 .99976 544.51 677.76)" fill="#fff"/><ellipse rx="3.85443" ry="4.98641" transform="matrix(.99998 .00573 .02198 -.99976 1795.43 1158.56)" fill="#fff"/><ellipse rx="3.85443" ry="4.98641" transform="matrix(.99998 .00573 .02198 -.99976 1919.11 2370.78)" fill="#fff"/><ellipse rx="3.85443" ry="4.98641" transform="matrix(-.99998 -.00573 .02198 -.99976 956.997 371.014)" fill="#fff"/><ellipse rx="3.85443" ry="4.98641" transform="matrix(.99998 .00573 -.02198 .99976 457.491 3583.89)" fill="#fff"/><ellipse rx="3.98208" ry="4.61361" transform="matrix(-.99998 -.00573 .02198 -.99976 1687.66 5235.33)" fill="#fff"/><ellipse rx="3.98208" ry="4.61361" transform="matrix(.99998 .00573 .02198 -.99976 919.656 3759.41)" fill="#fff"/><ellipse rx="3.98208" ry="4.61361" transform="matrix(-.99998 -.00573 -.02198 .99976 462.433 3678.38)" fill="#fff"/><ellipse rx="3.98208" ry="4.61361" transform="matrix(-.99998 -.00573 .02198 -.99976 1759.38 4871.32)" fill="#fff"/><ellipse rx="3.98208" ry="4.61361" transform="matrix(.99998 .00573 .02198 -.99976 1095.15 3022.36)" fill="#fff"/><ellipse rx="3.98208" ry="4.61361" transform="matrix(-.99998 -.00573 -.02198 .99976 286.934 4415.43)" fill="#fff"/><ellipse rx="3.98208" ry="4.61361" transform="matrix(.99998 .00573 .02198 -.99976 1049.26 4023.09)" fill="#fff"/><ellipse rx="3.98208" ry="4.61361" transform="matrix(-.99998 -.00573 -.02198 .99976 293.517 3903.7)" fill="#fff"/><ellipse rx="3.98208" ry="4.61361" transform="matrix(-.99998 -.00573 .02198 -.99976 1842.39 2182.48)" fill="#fff"/><ellipse rx="3.98208" ry="4.61361" transform="matrix(-.99998 -.00573 .02198 -.99976 1335.05 5514.69)" fill="#fff"/><ellipse rx="3.98208" ry="4.61361" transform="matrix(.99998 .00573 .02198 -.99976 790.283 3666.42)" fill="#fff"/><ellipse rx="3.98208" ry="4.61361" transform="matrix(-.99998 -.00573 -.02198 .99976 591.805 3771.38)" fill="#fff"/><ellipse rx="3.98208" ry="4.61361" transform="matrix(-.99998 -.00573 .02198 -.99976 1091.14 4835.2)" fill="#fff"/><ellipse rx="3.98208" ry="4.61361" transform="matrix(.99998 .00573 -.02198 .99976 290.949 2602.59)" fill="#fff"/><ellipse rx="3.98208" ry="4.61361" transform="matrix(.99998 .00573 .02198 -.99976 2125.95 3775.55)" fill="#fff"/><ellipse rx="3.98208" ry="4.61361" transform="matrix(.99998 .00573 .02198 -.99976 1809.08 4059.74)" fill="#fff"/><ellipse rx="3.98208" ry="4.61361" transform="matrix(-.99998 -.00573 .02198 -.99976 1081.15 2210.41)" fill="#fff"/><ellipse rx="3.98208" ry="4.61361" transform="matrix(.99998 .00573 -.02198 .99976 300.942 5227.38)" fill="#fff"/><ellipse rx="3.98208" ry="4.61361" transform="matrix(-.99998 -.00573 .02198 -.99976 2076.41 4942.33)" fill="#fff"/><ellipse rx="3.98208" ry="4.61361" transform="matrix(.99998 .00573 .02198 -.99976 855.763 3223.95)" fill="#fff"/><ellipse rx="3.98208" ry="4.61361" transform="matrix(-.99998 -.00573 -.02198 .99976 526.326 4213.84)" fill="#fff"/><ellipse rx="3.98208" ry="4.61361" transform="matrix(.99998 .00573 .02198 -.99976 797.158 3897.1)" fill="#fff"/><ellipse rx="3.98208" ry="4.61361" transform="matrix(-.99998 -.00573 -.02198 .99976 584.931 3540.69)" fill="#fff"/><ellipse rx="3.98208" ry="4.61361" transform="matrix(.99998 .00573 .02198 -.99976 715.466 3808.99)" fill="#fff"/><ellipse rx="3.98208" ry="4.61361" transform="matrix(-.99998 -.00573 -.02198 .99976 666.622 3628.8)" fill="#fff"/><ellipse rx="3.98208" ry="4.61361" transform="matrix(.99998 .00573 .02198 -.99976 809.868 4224.69)" fill="#fff"/><ellipse rx="3.98208" ry="4.61361" transform="matrix(-.99998 -.00573 -.02198 .99976 572.22 3213.1)" fill="#fff"/><ellipse rx="3.98208" ry="4.61361" transform="matrix(-.99998 -.00573 .02198 -.99976 1993.22 2386.31)" fill="#fff"/><ellipse rx="3.98208" ry="4.61361" transform="matrix(-.99998 -.00573 .02198 -.99976 1682.96 4543.37)" fill="#fff"/><ellipse rx="3.98208" ry="4.61361" transform="matrix(.99998 .00573 .02198 -.99976 1185.97 2695.36)" fill="#fff"/><ellipse rx="3.98208" ry="4.61361" transform="matrix(-.99998 -.00573 -.02198 .99976 196.117 4742.43)" fill="#fff"/><ellipse rx="3.98208" ry="4.61361" transform="matrix(-.99998 -.00573 .02198 -.99976 1640.2 4676.89)" fill="#fff"/><ellipse rx="3.98208" ry="4.61361" transform="matrix(.99998 .00573 .02198 -.99976 1222.85 2829.35)" fill="#fff"/><ellipse rx="3.98208" ry="4.61361" transform="matrix(-.99998 -.00573 -.02198 .99976 159.238 4608.44)" fill="#fff"/><ellipse rx="3.98208" ry="4.61361" transform="matrix(-.99998 -.00573 .02198 -.99976 1528.68 4496.35)" fill="#fff"/><ellipse rx="3.98208" ry="4.61361" transform="matrix(.99998 .00573 .02198 -.99976 1342.28 2650.13)" fill="#fff"/><ellipse rx="3.98208" ry="4.61361" transform="matrix(-.99998 -.00573 -.02198 .99976 39.8097 4787.66)" fill="#fff"/><ellipse rx="3.98208" ry="4.61361" transform="matrix(-.99998 -.00573 .02198 -.99976 1467.84 4546.75)" fill="#fff"/><ellipse rx="3.98208" ry="4.61361" transform="matrix(.99998 .00573 .02198 -.99976 1400.89 2701.21)" fill="#fff"/><ellipse rx="3.98208" ry="4.61361" transform="matrix(-.99998 -.00573 .02198 -.99976 1837.6 4936.35)" fill="#fff"/><ellipse rx="3.98208" ry="4.61361" transform="matrix(.99998 .00573 .02198 -.99976 838.895 3085.47)" fill="#fff"/><ellipse rx="3.98208" ry="4.61361" transform="matrix(-.99998 -.00573 -.02198 .99976 543.193 4352.32)" fill="#fff"/><ellipse rx="3.98208" ry="4.61361" transform="matrix(-.99998 -.00573 .02198 -.99976 2036.47 5491.03)" fill="#fff"/><ellipse rx="3.98208" ry="4.61361" transform="matrix(.99998 .00573 .02198 -.99976 744.65 3024.96)" fill="#fff"/><ellipse rx="3.98208" ry="4.61361" transform="matrix(-.99998 -.00573 -.02198 .99976 637.439 4412.83)" fill="#fff"/><ellipse rx="3.98208" ry="4.61361" transform="matrix(-.99998 -.00573 .02198 -.99976 1715.61 5050.97)" fill="#fff"/><ellipse rx="3.98208" ry="4.61361" transform="matrix(.99998 .00573 .02198 -.99976 1152.04 3151.84)" fill="#fff"/><ellipse rx="3.98208" ry="4.61361" transform="matrix(-.99998 -.00573 -.02198 .99976 230.045 4285.95)" fill="#fff"/><ellipse rx="3.98208" ry="4.61361" transform="matrix(-.99998 -.00573 .02198 -.99976 1785.41 5498.82)" fill="#fff"/><ellipse rx="3.98208" ry="4.61361" transform="matrix(.99998 .00573 .02198 -.99976 1041.54 3649.4)" fill="#fff"/><ellipse rx="3.98208" ry="4.61361" transform="matrix(-.99998 -.00573 -.02198 .99976 639.189 5256.11)" fill="#fff"/><ellipse rx="3.98208" ry="4.61361" transform="matrix(-.99998 -.00573 .02198 -.99976 1384.81 5062.91)" fill="#fff"/><ellipse rx="3.98208" ry="4.61361" transform="matrix(.99998 .00573 .02198 -.99976 1461.21 3218.2)" fill="#fff"/><ellipse rx="3.98208" ry="4.61361" transform="matrix(-.99998 -.00573 .02198 -.99976 987.944 5000.67)" fill="#fff"/><ellipse rx="3.98208" ry="4.61361" transform="matrix(.99998 .00573 -.02198 .99976 394.146 2437.12)" fill="#fff"/><ellipse rx="3.98208" ry="4.61361" transform="matrix(.99998 .00573 .02198 -.99976 1860.71 3160.52)" fill="#fff"/><ellipse rx="3.98208" ry="4.61361" transform="matrix(-.99998 -.00573 .02198 -.99976 1861.94 4553.62)" fill="#fff"/><ellipse rx="3.98208" ry="4.61361" transform="matrix(.99998 .00573 .02198 -.99976 1006.59 2703.56)" fill="#fff"/><ellipse rx="3.98208" ry="4.61361" transform="matrix(-.99998 -.00573 -.02198 .99976 375.503 4734.23)" fill="#fff"/><ellipse rx="3.98208" ry="4.61361" transform="matrix(-.99998 -.00573 .02198 -.99976 1360.86 4702.97)" fill="#fff"/><ellipse rx="3.98208" ry="4.61361" transform="matrix(.99998 .00573 .02198 -.99976 1500.97 2858.62)" fill="#fff"/><ellipse rx="3.98208" ry="4.61361" transform="matrix(-.99998 -.00573 .02198 -.99976 1611.34 4902.76)" fill="#fff"/><ellipse rx="3.98208" ry="4.61361" transform="matrix(.99998 .00573 .02198 -.99976 1012.78 3146.43)" fill="#fff"/><ellipse rx="3.98208" ry="4.61361" transform="matrix(-.99998 -.00573 -.02198 .99976 369.309 4291.36)" fill="#fff"/><ellipse rx="3.98208" ry="4.61361" transform="matrix(-.99998 -.00573 .02198 -.99976 2120.76 4555.1)" fill="#fff"/><ellipse rx="3.98208" ry="4.61361" transform="matrix(.99998 .00573 .02198 -.99976 747.767 2702.08)" fill="#fff"/><ellipse rx="3.98208" ry="4.61361" transform="matrix(-.99998 -.00573 -.02198 .99976 634.323 4735.71)" fill="#fff"/><ellipse rx="3.98208" ry="4.61361" transform="matrix(-.99998 -.00573 .02198 -.99976 706.726 4749.97)" fill="#fff"/><ellipse rx="3.98208" ry="4.61361" transform="matrix(.99998 .00573 -.02198 .99976 675.364 2687.83)" fill="#fff"/><ellipse rx="3.98208" ry="4.61361" transform="matrix(.99998 .00573 .02198 -.99976 2152.88 2913.1)" fill="#fff"/><ellipse rx="3.98208" ry="4.61361" transform="matrix(-.99998 -.00573 .02198 -.99976 746.72 4561.07)" fill="#fff"/><ellipse rx="3.98208" ry="4.61361" transform="matrix(.99998 .00573 -.02198 .99976 635.368 2876.72)" fill="#fff"/><ellipse rx="3.98208" ry="4.61361" transform="matrix(.99998 .00573 .02198 -.99976 2121.2 2723.79)" fill="#fff"/><ellipse rx="3.98208" ry="4.61361" transform="matrix(.99998 .00573 .02198 -.99976 900.51 4086.82)" fill="#fff"/><ellipse rx="3.98208" ry="4.61361" transform="matrix(-.99998 -.00573 -.02198 .99976 481.578 3350.97)" fill="#fff"/><ellipse rx="3.98208" ry="4.61361" transform="matrix(-.99998 -.00573 .02198 -.99976 1988.3 2247.9)" fill="#fff"/><ellipse rx="3.98208" ry="4.61361" transform="matrix(-.99998 -.00573 .02198 -.99976 1282.83 5173.04)" fill="#fff"/><ellipse rx="3.98208" ry="4.61361" transform="matrix(.99998 .00573 -.02198 .99976 99.258 2264.75)" fill="#fff"/><ellipse rx="3.98208" ry="4.61361" transform="matrix(.99998 .00573 .02198 -.99976 1512.42 4330.2)" fill="#fff"/><ellipse rx="3.98208" ry="4.61361" transform="matrix(-.99998 -.00573 .02198 -.99976 1365.84 2484.2)" fill="#fff"/><ellipse rx="3.98208" ry="4.61361" transform="matrix(.99998 .00573 -.02198 .99976 16.2512 4953.59)" fill="#fff"/><ellipse rx="3.98208" ry="4.61361" transform="matrix(-.99998 -.00573 .02198 -.99976 1217.92 4683.7)" fill="#fff"/><ellipse rx="3.98208" ry="4.61361" transform="matrix(.99998 .00573 -.02198 .99976 164.165 2754.09)" fill="#fff"/><ellipse rx="3.98208" ry="4.61361" transform="matrix(.99998 .00573 .02198 -.99976 1644.72 2840.99)" fill="#fff"/><ellipse rx="3.98208" ry="4.61361" transform="matrix(.99998 .00573 .02198 -.99976 1652.21 3768.22)" fill="#fff"/><ellipse rx="3.98208" ry="4.61361" transform="matrix(-.99998 -.00573 .02198 -.99976 1094.08 1984.45)" fill="#fff"/><ellipse rx="3.98208" ry="4.61361" transform="matrix(.99998 .00573 -.02198 .99976 288.011 5453.34)" fill="#fff"/><ellipse rx="3.98208" ry="4.61361" transform="matrix(.99998 .00573 .02198 -.99976 1528.37 3785.97)" fill="#fff"/><ellipse rx="3.98208" ry="4.61361" transform="matrix(-.99998 -.00573 .02198 -.99976 1373.82 1939.92)" fill="#fff"/><ellipse rx="3.98208" ry="4.61361" transform="matrix(.99998 .00573 -.02198 .99976 8.26733 5497.87)" fill="#fff"/><ellipse rx="3.98208" ry="4.61361" transform="matrix(.99998 .00573 .02198 -.99976 1154.28 3774.6)" fill="#fff"/><ellipse rx="3.98208" ry="4.61361" transform="matrix(-.99998 -.00573 -.02198 .99976 511.053 5108.01)" fill="#fff"/><ellipse rx="3.98208" ry="4.61361" transform="matrix(-.99998 -.00573 .02198 -.99976 1748.32 1932.85)" fill="#fff"/><ellipse rx="3.98208" ry="4.61361" transform="matrix(.99998 .00573 .02198 -.99976 757.976 4049.1)" fill="#fff"/><ellipse rx="3.98208" ry="4.61361" transform="matrix(-.99998 -.00573 -.02198 .99976 624.114 3388.69)" fill="#fff"/><ellipse rx="3.98208" ry="4.61361" transform="matrix(-.99998 -.00573 .02198 -.99976 2132.46 2211.82)" fill="#fff"/><ellipse rx="3.98208" ry="4.61361" transform="matrix(.99998 .00573 .02198 -.99976 716.332 4131.89)" fill="#fff"/><ellipse rx="3.98208" ry="4.61361" transform="matrix(-.99998 -.00573 -.02198 .99976 665.756 3305.9)" fill="#fff"/><ellipse rx="3.98208" ry="4.61361" transform="matrix(-.99998 -.00573 .02198 -.99976 2170.45 2295.07)" fill="#fff"/><ellipse rx="3.98208" ry="4.61361" transform="matrix(.99998 .00573 .02198 -.99976 1651.03 4003.47)" fill="#fff"/><ellipse rx="3.98208" ry="4.61361" transform="matrix(-.99998 -.00573 .02198 -.99976 1241.64 2155.97)" fill="#fff"/><ellipse rx="3.98208" ry="4.61361" transform="matrix(.99998 .00573 -.02198 .99976 140.453 5281.82)" fill="#fff"/><ellipse rx="3.98208" ry="4.61361" transform="matrix(.99998 .00573 .02198 -.99976 1280.92 3992.13)" fill="#fff"/><ellipse rx="3.98208" ry="4.61361" transform="matrix(-.99998 -.00573 -.02198 .99976 188.489 3463.43)" fill="#fff"/><ellipse rx="3.98208" ry="4.61361" transform="matrix(-.99998 -.00573 .02198 -.99976 1612.15 2148.87)" fill="#fff"/><ellipse rx="3.98208" ry="4.61361" transform="matrix(-.99998 -.00573 .02198 -.99976 1821.32 5314.51)" fill="#fff"/><ellipse rx="3.98208" ry="4.61361" transform="matrix(.99998 .00573 .02198 -.99976 980.445 3349.22)" fill="#fff"/><ellipse rx="3.98208" ry="4.61361" transform="matrix(-.99998 -.00573 -.02198 .99976 401.644 4088.57)" fill="#fff"/><ellipse rx="3.98208" ry="4.61361" transform="matrix(-.99998 -.00573 .02198 -.99976 1843.48 4668.83)" fill="#fff"/><ellipse rx="3.98208" ry="4.61361" transform="matrix(.99998 .00573 .02198 -.99976 1019.98 2818.96)" fill="#fff"/><ellipse rx="3.98208" ry="4.61361" transform="matrix(-.99998 -.00573 -.02198 .99976 362.11 4618.83)" fill="#fff"/><ellipse rx="3.98208" ry="4.61361" transform="matrix(.99998 .00573 .02198 -.99976 1393.55 3576.62)" fill="#fff"/><ellipse rx="3.98208" ry="4.61361" transform="matrix(-.99998 -.00573 -.02198 .99976 158.191 3750.44)" fill="#fff"/><ellipse rx="3.98208" ry="4.61361" transform="matrix(-.99998 -.00573 .02198 -.99976 1851.64 1942.66)" fill="#fff"/><ellipse rx="3.98208" ry="4.61361" transform="matrix(.99998 .00573 .02198 -.99976 1031.1 4124.47)" fill="#fff"/><ellipse rx="3.98208" ry="4.61361" transform="matrix(-.99998 -.00573 -.02198 .99976 350.987 3313.32)" fill="#fff"/><ellipse rx="3.98208" ry="4.61361" transform="matrix(-.99998 -.00573 .02198 -.99976 1856.09 2284.04)" fill="#fff"/><ellipse rx="3.98208" ry="4.61361" transform="matrix(.99998 .00573 .02198 -.99976 916.871 4248.36)" fill="#fff"/><ellipse rx="3.98208" ry="4.61361" transform="matrix(-.99998 -.00573 -.02198 .99976 518.857 1907.13)" fill="#fff"/><ellipse rx="3.98208" ry="4.61361" transform="matrix(-.99998 -.00573 .02198 -.99976 2091.75 2433)" fill="#fff"/><ellipse rx="3.98208" ry="4.61361" transform="matrix(.99998 .00573 .02198 -.99976 1106.41 4503.16)" fill="#fff"/><ellipse rx="3.98208" ry="4.61361" transform="matrix(-.99998 -.00573 -.02198 .99976 275.684 2934.63)" fill="#fff"/><ellipse rx="3.98208" ry="4.61361" transform="matrix(-.99998 -.00573 .02198 -.99976 1764.15 2661.77)" fill="#fff"/><ellipse rx="3.98208" ry="4.61361" transform="matrix(-.99998 -.00573 .02198 -.99976 1266.83 5357.46)" fill="#fff"/><ellipse rx="3.98208" ry="4.61361" transform="matrix(.99998 .00573 -.02198 .99976 115.26 2080.33)" fill="#fff"/><ellipse rx="3.98208" ry="4.61361" transform="matrix(.99998 .00573 .02198 -.99976 1607.17 3643.42)" fill="#fff"/><ellipse rx="3.98208" ry="4.61361" transform="matrix(-.99998 -.00573 .02198 -.99976 1114.04 5061.36)" fill="#fff"/><ellipse rx="3.98208" ry="4.61361" transform="matrix(.99998 .00573 -.02198 .99976 268.044 2376.43)" fill="#fff"/><ellipse rx="3.98208" ry="4.61361" transform="matrix(.99998 .00573 .02198 -.99976 1649.07 3186.98)" fill="#fff"/><ellipse rx="3.98208" ry="4.61361" transform="matrix(.99998 .00573 .02198 -.99976 1686.08 4220.48)" fill="#fff"/><ellipse rx="3.98208" ry="4.61361" transform="matrix(-.99998 -.00573 .02198 -.99976 1197.05 2372.52)" fill="#fff"/><ellipse rx="3.98208" ry="4.61361" transform="matrix(.99998 .00573 -.02198 .99976 185.037 5065.27)" fill="#fff"/><ellipse rx="3.98208" ry="4.61361" transform="matrix(-.99998 -.00573 .02198 -.99976 1536.32 5054.56)" fill="#fff"/><ellipse rx="3.98208" ry="4.61361" transform="matrix(.99998 .00573 .02198 -.99976 1310.1 3208.1)" fill="#fff"/><ellipse rx="3.98208" ry="4.61361" transform="matrix(-.99998 -.00573 -.02198 .99976 71.9893 4229.69)" fill="#fff"/><ellipse rx="3.98208" ry="4.61361" transform="matrix(.99998 .00573 .02198 -.99976 1302.4 4282.86)" fill="#fff"/><ellipse rx="3.98208" ry="4.61361" transform="matrix(-.99998 -.00573 -.02198 .99976 79.6868 3154.93)" fill="#fff"/><ellipse rx="3.98208" ry="4.61361" transform="matrix(-.99998 -.00573 .02198 -.99976 1577.89 2439.29)" fill="#fff"/><ellipse rx="3.98208" ry="4.61361" transform="matrix(-.99998 -.00573 .02198 -.99976 1401.22 4860.04)" fill="#fff"/><ellipse rx="3.98208" ry="4.61361" transform="matrix(.99998 .00573 .02198 -.99976 1453.72 3015.19)" fill="#fff"/><ellipse rx="3.98208" ry="4.61361" transform="matrix(.99998 .00573 .02198 -.99976 1407.83 4015.92)" fill="#fff"/><ellipse rx="3.98208" ry="4.61361" transform="matrix(-.99998 -.00573 .02198 -.99976 1484.23 2171.2)" fill="#fff"/><ellipse rx="3.98208" ry="4.61361" transform="matrix(-.99998 -.00573 .02198 -.99976 799.026 5442.43)" fill="#fff"/><ellipse rx="3.98208" ry="4.61361" transform="matrix(.99998 .00573 -.02198 .99976 583.063 1995.36)" fill="#fff"/><ellipse rx="3.98208" ry="4.61361" transform="matrix(.99998 .00573 .02198 -.99976 2030.16 3604.33)" fill="#fff"/><ellipse rx="3.98208" ry="4.61361" transform="matrix(-.99998 -.00573 .02198 -.99976 742.516 5114.59)" fill="#fff"/><ellipse rx="3.98208" ry="4.61361" transform="matrix(.99998 .00573 -.02198 .99976 639.572 2323.2)" fill="#fff"/><ellipse rx="3.98208" ry="4.61361" transform="matrix(.99998 .00573 .02198 -.99976 2101.07 3277.22)" fill="#fff"/><ellipse rx="3.98208" ry="4.61361" transform="matrix(.99998 .00573 .02198 -.99976 2055.17 4277.95)" fill="#fff"/><ellipse rx="3.98208" ry="4.61361" transform="matrix(-.99998 -.00573 .02198 -.99976 825.522 2425.75)" fill="#fff"/><ellipse rx="3.98208" ry="4.61361" transform="matrix(.99998 .00573 -.02198 .99976 556.566 5012.04)" fill="#fff"/><ellipse rx="3.98208" ry="4.61361" transform="matrix(-.99998 -.00573 .02198 -.99976 1548.9 5206.85)" fill="#fff"/><ellipse rx="3.98208" ry="4.61361" transform="matrix(.99998 .00573 .02198 -.99976 1290.83 3360.22)" fill="#fff"/><ellipse rx="3.98208" ry="4.61361" transform="matrix(-.99998 -.00573 -.02198 .99976 91.2628 4077.57)" fill="#fff"/><ellipse rx="3.98208" ry="4.61361" transform="matrix(.99998 .00573 .02198 -.99976 1355.21 4416.94)" fill="#fff"/><ellipse rx="3.98208" ry="4.61361" transform="matrix(-.99998 -.00573 .02198 -.99976 1519.2 2572.72)" fill="#fff"/><ellipse rx="3.98208" ry="4.61361" transform="matrix(.99998 .00573 .02198 -.99976 1193.27 4356.05)" fill="#fff"/><ellipse rx="3.98208" ry="4.61361" transform="matrix(-.99998 -.00573 -.02198 .99976 188.819 3081.75)" fill="#fff"/><ellipse rx="3.98208" ry="4.61361" transform="matrix(-.99998 -.00573 .02198 -.99976 1623.65 2531.81)" fill="#fff"/><ellipse rx="3.98208" ry="4.61361" transform="matrix(.99998 .00573 .02198 -.99976 955.703 4474.62)" fill="#fff"/><ellipse rx="3.98208" ry="4.61361" transform="matrix(-.99998 -.00573 -.02198 .99976 426.386 2963.17)" fill="#fff"/><ellipse rx="3.98208" ry="4.61361" transform="matrix(-.99998 -.00573 .02198 -.99976 1916.07 2634.97)" fill="#fff"/><ellipse rx="3.98208" ry="4.61361" transform="matrix(.99998 .00573 .02198 -.99976 739.622 4883.93)" fill="#fff"/><ellipse rx="3.98208" ry="4.61361" transform="matrix(-.99998 -.00573 -.02198 .99976 642.466 2553.86)" fill="#fff"/><ellipse rx="3.98208" ry="4.61361" transform="matrix(-.99998 -.00573 .02198 -.99976 763.7 3426.39)" fill="#fff"/><ellipse rx="3.98208" ry="4.61361" transform="matrix(.99998 .00573 -.02198 .99976 618.387 4011.4)" fill="#fff"/><ellipse rx="3.98208" ry="4.61361" transform="matrix(.99998 .00573 .02198 -.99976 836.276 4653.84)" fill="#fff"/><ellipse rx="3.98208" ry="4.61361" transform="matrix(-.99998 -.00573 -.02198 .99976 545.814 2783.95)" fill="#fff"/><ellipse rx="3.98208" ry="4.61361" transform="matrix(-.99998 -.00573 .02198 -.99976 2025.29 3101.49)" fill="#fff"/><ellipse rx="3.98208" ry="4.61361" transform="matrix(.99998 .00573 .02198 -.99976 789.784 4413.7)" fill="#fff"/><ellipse rx="3.98208" ry="4.61361" transform="matrix(-.99998 -.00573 -.02198 .99976 592.305 3024.09)" fill="#fff"/><ellipse rx="3.98208" ry="4.61361" transform="matrix(-.99998 -.00573 .02198 -.99976 1995.5 2644.65)" fill="#fff"/><ellipse rx="3.98208" ry="4.61361" transform="matrix(-.99998 -.00573 .02198 -.99976 1436.72 4694.18)" fill="#fff"/><ellipse rx="3.98208" ry="4.61361" transform="matrix(.99998 .00573 .02198 -.99976 1425.52 2848.96)" fill="#fff"/><ellipse rx="3.98208" ry="4.61361" transform="matrix(.99998 .00573 .02198 -.99976 1413.41 3762.24)" fill="#fff"/><ellipse rx="3.98208" ry="4.61361" transform="matrix(-.99998 -.00573 .02198 -.99976 1489.8 1917.53)" fill="#fff"/><ellipse rx="3.98208" ry="4.61361" transform="matrix(-.99998 -.00573 .02198 -.99976 994.412 5249.81)" fill="#fff"/><ellipse rx="3.98208" ry="4.61361" transform="matrix(.99998 .00573 -.02198 .99976 387.675 2187.98)" fill="#fff"/><ellipse rx="3.98208" ry="4.61361" transform="matrix(.99998 .00573 .02198 -.99976 1860.33 3358.87)" fill="#fff"/><ellipse rx="3.98208" ry="4.61361" transform="matrix(.99998 .00573 .02198 -.99976 1931.05 4489.43)" fill="#fff"/><ellipse rx="3.98208" ry="4.61361" transform="matrix(-.99998 -.00573 .02198 -.99976 931.633 1946.62)" fill="#fff"/><ellipse rx="3.98208" ry="4.61361" transform="matrix(.99998 .00573 -.02198 .99976 450.456 5491.17)" fill="#fff"/><ellipse rx="3.98208" ry="4.61361" transform="matrix(-.99998 -.00573 .02198 -.99976 929.506 4760.47)" fill="#fff"/><ellipse rx="3.98208" ry="4.61361" transform="matrix(.99998 .00573 -.02198 .99976 452.582 2677.32)" fill="#fff"/><ellipse rx="3.98208" ry="4.61361" transform="matrix(.99998 .00573 .02198 -.99976 1929.69 2921.04)" fill="#fff"/><ellipse rx="3.98208" ry="4.61361" transform="matrix(.99998 .00573 .02198 -.99976 1935.97 3903.62)" fill="#fff"/><ellipse rx="3.98208" ry="4.61361" transform="matrix(-.99998 -.00573 .02198 -.99976 961.155 2052.88)" fill="#fff"/><ellipse rx="3.98208" ry="4.61361" transform="matrix(.99998 .00573 -.02198 .99976 420.933 5384.91)" fill="#fff"/><ellipse rx="3.98208" ry="4.61361" transform="matrix(-.99998 -.00573 .02198 -.99976 1532.9 5391.28)" fill="#fff"/><ellipse rx="3.98208" ry="4.61361" transform="matrix(.99998 .00573 .02198 -.99976 1112.86 3303.85)" fill="#fff"/><ellipse rx="3.98208" ry="4.61361" transform="matrix(-.99998 -.00573 -.02198 .99976 269.229 4133.95)" fill="#fff"/><ellipse rx="3.98208" ry="4.61361" transform="matrix(-.99998 -.00573 .02198 -.99976 1584.69 4847.25)" fill="#fff"/><ellipse rx="3.98208" ry="4.61361" transform="matrix(.99998 .00573 .02198 -.99976 1270.86 3000.3)" fill="#fff"/><ellipse rx="3.98208" ry="4.61361" transform="matrix(-.99998 -.00573 -.02198 .99976 111.226 4437.49)" fill="#fff"/><ellipse rx="3.98208" ry="4.61361" transform="matrix(.99998 .00573 .02198 -.99976 1216.53 3660.16)" fill="#fff"/><ellipse rx="3.98208" ry="4.61361" transform="matrix(-.99998 -.00573 -.02198 .99976 276.899 3616.13)" fill="#fff"/><ellipse rx="3.98208" ry="4.61361" transform="matrix(-.99998 -.00573 .02198 -.99976 1667.69 2158.41)" fill="#fff"/><ellipse rx="3.98208" ry="4.61361" transform="matrix(-.99998 -.00573 .02198 -.99976 1040.6 5503.78)" fill="#fff"/><ellipse rx="3.98208" ry="4.61361" transform="matrix(.99998 .00573 -.02198 .99976 341.488 1934.01)" fill="#fff"/><ellipse rx="3.98208" ry="4.61361" transform="matrix(.99998 .00573 .02198 -.99976 1785.95 3662.89)" fill="#fff"/><ellipse rx="3.98208" ry="4.61361" transform="matrix(-.99998 -.00573 .02198 -.99976 862.248 4921.53)" fill="#fff"/><ellipse rx="3.98208" ry="4.61361" transform="matrix(.99998 .00573 -.02198 .99976 519.841 2516.26)" fill="#fff"/><ellipse rx="3.98208" ry="4.61361" transform="matrix(.99998 .00573 .02198 -.99976 1813.31 2961.89)" fill="#fff"/><ellipse rx="3.98208" ry="4.61361" transform="matrix(.99998 .00573 .02198 -.99976 1943.96 4083.57)" fill="#fff"/><ellipse rx="3.98208" ry="4.61361" transform="matrix(-.99998 -.00573 .02198 -.99976 945.255 2232.7)" fill="#fff"/><ellipse rx="3.98208" ry="4.61361" transform="matrix(.99998 .00573 -.02198 .99976 436.833 5205.1)" fill="#fff"/><path opacity=".7" d="M1586.28 801.729c-2.71 0-4.07-2.049-4.07-6.146 0-4.098 1.36-6.147 4.07-6.147 2.72 0 4.07 2.049 4.07 6.147 0 2.049-1.35 6.146-4.07 6.146zM1586.28 1053.73c-1.35 0-2.71-2.05-2.71-4.09 0-2.05 1.36-4.1 2.71-4.1 1.36 0 2.72 2.05 2.72 4.1 1.35 2.04 0 4.09-2.72 4.09zM1367.87 555.874c-1.35 0-2.71-2.049-2.71-4.098s1.36-4.097 2.71-4.097c1.36 0 2.71 2.048 2.71 4.097 0 2.049-1.35 4.098-2.71 4.098zM1533.38 3395.56c-1.36 0-2.72-2.05-2.72-4.1s1.36-4.1 2.72-4.1c1.35 0 2.71 2.05 2.71 4.1s-1.36 4.1-2.71 4.1zM1747.72 1107.01c-1.36 0-2.71-2.05-2.71-4.09 0-2.05 1.35-4.1 2.71-4.1 1.36 0 2.71 2.05 2.71 4.1 0 2.04-1.35 4.09-2.71 4.09zM1656.83 1098.81c-1.36 0-2.71-2.05-2.71-4.1 0-2.04 1.35-4.09 2.71-4.09 1.36 0 2.71 2.05 2.71 4.09 0 2.05-1.35 4.1-2.71 4.1zM2130.28 1285.26c-2.71 0-4.07-2.05-4.07-6.15 0-4.09 1.36-6.14 4.07-6.14 2.72 0 4.07 2.05 4.07 6.14 0 4.1-2.71 6.15-4.07 6.15zM1491.32 1307.79c-2.71 0-5.43-4.1-5.43-8.2s2.72-8.19 5.43-8.19c2.71 0 5.43 4.09 5.43 8.19 0 6.15-2.72 8.2-5.43 8.2zM2170.98 945.161c-2.71 0-5.43-4.098-5.43-8.196 0-4.097 2.72-8.195 5.43-8.195 2.71 0 5.43 4.098 5.43 8.195 0 4.098-1.36 8.196-5.43 8.196zM1720.59 264.943c-2.72 0-5.43-4.097-5.43-8.195 0-4.097 2.71-8.195 5.43-8.195 2.71 0 5.42 4.098 5.42 8.195 0 4.098-2.71 8.195-5.42 8.195zM1293.26 148.158c-2.72 0-5.43-4.098-5.43-8.195 0-4.098 2.71-8.196 5.43-8.196 2.71 0 5.42 4.098 5.42 8.196 0 6.146-2.71 8.195-5.42 8.195zM1690.74 547.681c-2.71 0-5.42-4.098-5.42-8.196 0-4.097 2.71-8.195 5.42-8.195s5.43 4.098 5.43 8.195c0 4.098-2.72 8.196-5.43 8.196zM1325.82 367.388c-2.72 0-4.07-2.049-4.07-6.146 0-4.098 1.35-6.147 4.07-6.147 2.71 0 4.07 2.049 4.07 6.147 0 4.097-1.36 6.146-4.07 6.146zM1868.46 475.975c-2.72 0-4.07-2.049-4.07-6.147 0-4.097 1.35-6.146 4.07-6.146 2.71 0 4.07 2.049 4.07 6.146 0 4.098-2.72 6.147-4.07 6.147zM2196.75 266.994c-1.35 0-2.71-2.049-2.71-4.098s1.36-4.097 2.71-4.097c1.36 0 2.72 2.048 2.72 4.097 1.35 2.049 0 4.098-2.72 4.098zM1975.63 2666.16c-1.36 0-2.71-2.04-2.71-4.09s1.35-4.1 2.71-4.1c1.36 0 2.71 2.05 2.71 4.1s0 4.09-2.71 4.09zM2024.47 793.546c-1.36 0-2.72-2.049-2.72-4.097 0-2.049 1.36-4.098 2.72-4.098 1.35 0 2.71 2.049 2.71 4.098 0 2.048-1.36 4.097-2.71 4.097zM1238.98 2137.57c-1.36 0-2.72-2.05-2.72-4.1s1.36-4.09 2.72-4.09c1.35 0 2.71 2.04 2.71 4.09s-1.36 4.1-2.71 4.1zM1861.67 973.84c-1.35 0-2.71-2.049-2.71-4.098s1.36-4.097 2.71-4.097c1.36 0 2.72 2.048 2.72 4.097 0 2.049-1.36 4.098-2.72 4.098zM1257.99 643.97c-1.36 0-2.72-2.049-2.72-4.098s1.36-4.098 2.72-4.098c1.35 0 2.71 2.049 2.71 4.098s-1.36 4.098-2.71 4.098zM2137.06 686.997c-2.71 0-5.42-4.098-5.42-8.195 0-4.098 2.71-8.196 5.42-8.196 2.72 0 5.43 4.098 5.43 8.196 0 4.097-2.71 8.195-5.43 8.195zM2010.9 2444.89c-2.71 0-5.42-4.1-5.42-8.2 0-4.09 2.71-8.19 5.42-8.19s5.43 4.1 5.43 8.19c0 6.15-1.36 8.2-5.43 8.2zM1370.58 154.307c-2.71 0-4.07-2.049-4.07-6.147 0-4.098 1.36-6.146 4.07-6.146 2.72 0 4.07 2.048 4.07 6.146s-1.35 6.147-4.07 6.147zM1374.65 1102.92c-4.07 0-8.14-6.15-8.14-12.3 0-6.14 4.07-12.29 8.14-12.29s8.14 6.15 8.14 12.29c-1.35 6.15-4.07 12.3-8.14 12.3zM1514.39 736.167c-1.36 0-2.72-2.048-2.72-4.097 0-2.049 1.36-4.098 2.72-4.098 1.35 0 2.71 2.049 2.71 4.098 1.36 2.049 0 4.097-2.71 4.097zM1287.83 988.184c-1.35 0-2.71-2.049-2.71-4.098s1.36-4.098 2.71-4.098c1.36 0 2.72 2.049 2.72 4.098s-1.36 4.098-2.72 4.098zM1595.78 2967.34c-1.36 0-2.71-2.04-2.71-4.09s1.35-4.1 2.71-4.1c1.36 0 2.71 2.05 2.71 4.1s-1.35 4.09-2.71 4.09zM1301.4 3090.28c-1.36 0-2.71-2.05-2.71-4.1s1.35-4.1 2.71-4.1c1.36 0 2.71 2.05 2.71 4.1s-1.35 4.1-2.71 4.1zM1319.03 2471.53c-1.35 0-2.71-2.05-2.71-4.1s1.36-4.1 2.71-4.1c1.36 0 2.72 2.05 2.72 4.1s-1.36 4.1-2.72 4.1zM1437.06 3334.09c-1.36 0-2.72-2.05-2.72-4.1 0-2.04 1.36-4.09 2.72-4.09 1.35 0 2.71 2.05 2.71 4.09 1.36 2.05 0 4.1-2.71 4.1zM1414 2983.75c-2.72 0-5.43-4.1-5.43-8.2s2.71-8.2 5.43-8.2c2.71 0 5.42 4.1 5.42 8.2s-2.71 8.2-5.42 8.2zM1690.74 2844.41c-2.71 0-5.42-4.1-5.42-8.19 0-4.1 2.71-8.2 5.42-8.2s5.43 4.1 5.43 8.2c0 4.09-2.72 8.19-5.43 8.19zM1271.55 2981.69c-1.35 0-2.71-2.05-2.71-4.09 0-2.05 1.36-4.1 2.71-4.1 1.36 0 2.72 2.05 2.72 4.1 0 2.04-1.36 4.09-2.72 4.09zM2024.47 3090.28c-1.36 0-2.72-2.05-2.72-4.1s1.36-4.1 2.72-4.1c1.35 0 2.71 2.05 2.71 4.1s-1.36 4.1-2.71 4.1zM1845.4 3065.69c-1.36 0-2.72-2.05-2.72-4.1s1.36-4.1 2.72-4.1c1.35 0 2.71 2.05 2.71 4.1s-1.36 4.1-2.71 4.1zM2089.58 2852.62c-1.35 0-2.71-2.05-2.71-4.1s1.36-4.1 2.71-4.1c1.36 0 2.72 2.05 2.72 4.1 1.35 2.05 0 4.1-2.72 4.1zM2137.06 2983.75c-2.71 0-5.42-4.1-5.42-8.2s2.71-8.2 5.42-8.2c2.72 0 5.43 4.1 5.43 8.2s-2.71 8.2-5.43 8.2zM1728.73 2639.53c-2.72 0-5.43-4.1-5.43-8.2s2.71-8.19 5.43-8.19c2.71 0 5.42 4.09 5.42 8.19s-2.71 8.2-5.42 8.2zM1517.1 2532.99c-1.36 0-2.71-2.05-2.71-4.1s1.35-4.09 2.71-4.09c1.35 0 2.71 2.04 2.71 4.09s-1.36 4.1-2.71 4.1zM1264.77 287.48c-2.71 0-4.07-2.049-4.07-6.146 0-4.098 1.36-6.147 4.07-6.147s4.07 2.049 4.07 6.147c0 4.097-1.36 6.146-4.07 6.146zM1583.57 1901.96c-4.07 0-8.14-6.15-8.14-12.29 0-6.15 4.07-12.3 8.14-12.3s8.14 6.15 8.14 12.3c-1.36 6.14-4.07 12.29-8.14 12.29zM1595.78 1758.54c-1.35 0-2.71-2.05-2.71-4.1s1.36-4.1 2.71-4.1c1.36 0 2.71 2.05 2.71 4.1s-1.35 4.1-2.71 4.1zM1918.65 1506.53c-1.35 0-2.71-2.04-2.71-4.09s1.36-4.1 2.71-4.1c1.36 0 2.72 2.05 2.72 4.1 1.35 2.05 0 4.09-2.72 4.09zM1301.4 1883.51c-1.36 0-2.71-2.05-2.71-4.1s1.35-4.1 2.71-4.1c1.36 0 2.71 2.05 2.71 4.1s-1.35 4.1-2.71 4.1zM1367.87 1645.85c-1.35 0-2.71-2.05-2.71-4.1 0-2.04 1.36-4.09 2.71-4.09 1.36 0 2.71 2.05 2.71 4.09 0 2.05-1.35 4.1-2.71 4.1zM1256.63 2188.79c-1.36 0-2.71-2.05-2.71-4.09 0-2.05 1.35-4.1 2.71-4.1 1.36 0 2.71 2.05 2.71 4.1 0 2.04-1.35 4.09-2.71 4.09zM1432.99 1535.21c-1.36 0-2.71-2.05-2.71-4.1s1.35-4.09 2.71-4.09c1.36 0 2.71 2.04 2.71 4.09 1.36 2.05 0 4.1-2.71 4.1zM1656.83 2188.79c-1.36 0-2.71-2.05-2.71-4.09 0-2.05 1.35-4.1 2.71-4.1 1.36 0 2.71 2.05 2.71 4.1 0 2.04-1.35 4.09-2.71 4.09zM1728.73 1727.8c-1.36 0-2.71-2.05-2.71-4.09 0-2.05 1.35-4.1 2.71-4.1 1.36 0 2.71 2.05 2.71 4.1 0 2.04-1.35 4.09-2.71 4.09zM1583.57 1221.75c-2.71 0-5.42-4.1-5.42-8.19 0-4.1 2.71-8.2 5.42-8.2 2.72 0 5.43 4.1 5.43 8.2 0 4.09-2.71 8.19-5.43 8.19zM1656.83 1305.75c-2.72 0-5.43-4.1-5.43-8.2s2.71-8.19 5.43-8.19c2.71 0 5.42 4.09 5.42 8.19s-2.71 8.2-5.42 8.2zM1293.26 1238.14c-2.72 0-5.43-4.1-5.43-8.2 0-4.09 2.71-8.19 5.43-8.19 2.71 0 5.42 4.1 5.42 8.19 0 4.1-2.71 8.2-5.42 8.2zM1690.74 1635.6c-2.71 0-5.42-4.1-5.42-8.2 0-4.09 2.71-8.19 5.42-8.19s5.43 4.1 5.43 8.19c0 4.1-2.72 8.2-5.43 8.2zM1325.82 1457.35c-2.72 0-4.07-2.05-4.07-6.14 0-4.1 1.35-6.15 4.07-6.15 2.71 0 4.07 2.05 4.07 6.15 0 4.09-1.36 6.14-4.07 6.14zM1481.83 2053.56c-4.07 0-8.14-6.14-8.14-12.29 0-6.15 4.07-12.29 8.14-12.29s8.14 6.14 8.14 12.29c0 8.19-2.72 12.29-8.14 12.29zM1758.57 1469.66c-2.71 0-4.07-2.05-4.07-6.15 0-4.1 1.36-6.15 4.07-6.15s4.07 2.05 4.07 6.15c0 2.05-1.36 6.15-4.07 6.15zM2196.75 1356.97c-1.35 0-2.71-2.04-2.71-4.09s1.36-4.1 2.71-4.1c1.36 0 2.72 2.05 2.72 4.1 1.35 2.05 0 4.09-2.72 4.09zM1915.94 1361.06c-1.36 0-2.71-2.05-2.71-4.1s1.35-4.1 2.71-4.1c1.35 0 2.71 2.05 2.71 4.1s-1.36 4.1-2.71 4.1zM2024.47 1883.51c-1.36 0-2.72-2.05-2.72-4.1s1.36-4.1 2.72-4.1c1.35 0 2.71 2.05 2.71 4.1s-1.36 4.1-2.71 4.1zM1845.4 1858.94c-1.36 0-2.72-2.05-2.72-4.1s1.36-4.1 2.72-4.1c1.35 0 2.71 2.05 2.71 4.1s-1.36 4.1-2.71 4.1zM2089.59 1645.85c-1.36 0-2.72-2.05-2.72-4.1 0-2.04 1.36-4.09 2.72-4.09 1.35 0 2.71 2.05 2.71 4.09 1.35 2.05 0 4.1-2.71 4.1zM1858.96 2059.72c0 2.27 1.22 4.1 2.71 4.1 1.5 0 2.72-1.83 2.72-4.1 0-2.26-1.22-4.09-2.72-4.09-1.49 0-2.71 1.83-2.71 4.09zM2156.06 1537.27c-1.36 0-2.71-2.05-2.71-4.1s1.35-4.1 2.71-4.1c1.35 0 2.71 2.05 2.71 4.1s-1.36 4.1-2.71 4.1zM2187.26 166.599c-4.07 0-8.14-6.146-8.14-12.293 0-6.146 4.07-12.293 8.14-12.293s8.14 6.147 8.14 12.293c0 8.196-4.07 12.293-8.14 12.293zM2137.06 1774.93c-2.71 0-5.42-4.09-5.42-8.19s2.71-8.2 5.42-8.2c2.72 0 5.43 4.1 5.43 8.2s-2.71 8.19-5.43 8.19zM1850.82 1705.27c-2.71 0-5.42-4.1-5.42-8.2 0-4.09 2.71-8.19 5.42-8.19 2.72 0 5.43 4.1 5.43 8.19 0 6.15-2.71 8.2-5.43 8.2zM1922.72 1567.99c-2.71 0-5.42-4.1-5.42-8.19 0-4.1 2.71-8.2 5.42-8.2 2.72 0 5.43 4.1 5.43 8.2 0 6.14-1.36 8.19-5.43 8.19zM2014.97 1238.14c-2.71 0-5.43-4.1-5.43-8.2 0-4.09 2.72-8.19 5.43-8.19 2.71 0 5.43 4.1 5.43 8.19 0 4.1-1.36 8.2-5.43 8.2zM2048.89 1457.35c-2.72 0-4.07-2.05-4.07-6.14 0-4.1 1.35-6.15 4.07-6.15 2.71 0 4.07 2.05 4.07 6.15 0 4.09-2.72 6.14-4.07 6.14zM1854.89 1352.87c-2.71 0-4.07-2.05-4.07-6.15 0-4.1 1.36-6.15 4.07-6.15s4.07 2.05 4.07 6.15c0 2.05-1.36 6.15-4.07 6.15zM1947.14 1719.61c-2.71 0-4.07-2.04-4.07-6.14s1.36-6.15 4.07-6.15 4.07 2.05 4.07 6.15c0 2.05-1.36 6.14-4.07 6.14zM1872.53 1213.54c-4.07 0-8.14-6.14-8.14-12.29 0-6.15 4.07-12.29 8.14-12.29s8.14 6.14 8.14 12.29c0 8.2-4.07 12.29-8.14 12.29zM1408.57 1815.9c-1.36 0-2.71-2.05-2.71-4.1 0-2.04 1.35-4.09 2.71-4.09 1.36 0 2.71 2.05 2.71 4.09 0 2.05-1.35 4.1-2.71 4.1zM1264.77 1375.4c-2.71 0-4.07-2.05-4.07-6.15 0-4.09 1.36-6.14 4.07-6.14s4.07 2.05 4.07 6.14c0 4.1-1.36 6.15-4.07 6.15zM2077.38 1996.2c-1.36 0-2.72-2.05-2.72-4.1s1.36-4.1 2.72-4.1c1.35 0 2.71 2.05 2.71 4.1s-1.36 4.1-2.71 4.1zM1742.29 1947.04c-4.07 0-8.14-6.15-8.14-12.3 0-6.14 4.07-12.29 8.14-12.29s8.14 6.15 8.14 12.29c0 6.15-4.07 12.3-8.14 12.3z" fill="#fff"/><path opacity=".7" d="M1867.1 2061.77c-2.71 0-5.42-4.1-5.42-8.2 0-4.09 2.71-8.19 5.42-8.19s5.43 4.1 5.43 8.19c0 6.15-2.72 8.2-5.43 8.2zM2077.37 2203.13c-2.71 0-5.42-4.1-5.42-8.19 0-4.1 2.71-8.2 5.42-8.2 2.72 0 5.43 4.1 5.43 8.2 0 6.14-2.71 8.19-5.43 8.19zM1712.45 2135.52c-2.71 0-5.43-4.1-5.43-8.19 0-4.1 2.72-8.2 5.43-8.2 2.71 0 5.42 4.1 5.42 8.2 0 4.09-2.71 8.19-5.42 8.19zM1685.32 2274.84c-2.72 0-4.07-2.05-4.07-6.14 0-4.1 1.35-6.15 4.07-6.15 2.71 0 4.07 2.05 4.07 6.15 0 2.05-2.72 6.14-4.07 6.14zM1842.68 2871.05c1.36 0 2.71 2.05 2.71 4.1s-1.35 4.1-2.71 4.1c-1.36 0-2.71-2.05-2.71-4.1-1.36-2.05 0-4.1 2.71-4.1zM2137.06 2748.13c1.36 0 2.72 2.04 2.72 4.09s-1.36 4.1-2.72 4.1c-1.35 0-2.71-2.05-2.71-4.1s0-4.09 2.71-4.09zM1780.28 2440.8c1.35 0 2.71 2.05 2.71 4.1s-1.36 4.1-2.71 4.1c-1.36 0-2.72-2.05-2.72-4.1s1.36-4.1 2.72-4.1zM2115.36 2492.02c4.07 0 8.14 6.15 8.14 12.29 0 6.15-4.07 12.3-8.14 12.3s-8.14-6.15-8.14-12.3c0-6.14 4.07-12.29 8.14-12.29zM2023.11 2854.67c2.71 0 5.43 4.1 5.43 8.19 0 4.1-2.72 8.2-5.43 8.2-2.71 0-5.43-4.1-5.43-8.2 0-4.09 2.72-8.19 5.43-8.19zM1591.71 2772.71c1.36 0 2.71 2.05 2.71 4.1s-1.35 4.1-2.71 4.1c-1.35 0-2.71-2.05-2.71-4.1s1.36-4.1 2.71-4.1zM1301.4 2854.67c2.71 0 5.42 4.1 5.42 8.19 0 4.1-2.71 8.2-5.42 8.2-2.72 0-5.43-4.1-5.43-8.2 0-4.09 1.36-8.19 5.43-8.19zM2062.45 959.501c1.36 0 2.71 2.049 2.71 4.098s-1.35 4.097-2.71 4.097c-1.35 0-2.71-2.048-2.71-4.097 0-2.049 1.36-4.098 2.71-4.098zM1964.78 2502.27c2.71 0 5.42 4.09 5.42 8.19s-2.71 8.2-5.42 8.2c-2.72 0-5.43-4.1-5.43-8.2s2.71-8.19 5.43-8.19zM2145.2 2303.53c2.72 0 5.43 4.09 5.43 8.19s-2.71 8.2-5.43 8.2c-2.71 0-5.42-4.1-5.42-8.2s2.71-8.19 5.42-8.19zM1422.13 2303.53c2.72 0 5.43 4.09 5.43 8.19s-2.71 8.2-5.43 8.2c-2.71 0-5.42-4.1-5.42-8.2 0-6.15 2.71-8.19 5.42-8.19zM1564.58 2328.12c4.07 0 8.14 6.14 8.14 12.29 0 6.15-4.07 12.29-8.14 12.29s-8.14-6.14-8.14-12.29c1.35-8.2 4.07-12.29 8.14-12.29zM1586.28 3854.48c-2.71 0-4.07-2.05-4.07-6.14 0-4.1 1.36-6.15 4.07-6.15 2.72 0 4.07 2.05 4.07 6.15 0 2.05-1.35 6.14-4.07 6.14zM1595.78 3723.37c-1.36 0-2.71-2.05-2.71-4.09 0-2.05 1.35-4.1 2.71-4.1 1.36 0 2.71 2.05 2.71 4.1 0 2.04-1.35 4.09-2.71 4.09zM1586.28 4106.49c-1.35 0-2.71-2.05-2.71-4.1s1.36-4.09 2.71-4.09c1.36 0 2.72 2.04 2.72 4.09 1.35 2.05 0 4.1-2.72 4.1zM1301.4 3846.3c-1.36 0-2.71-2.05-2.71-4.1s1.35-4.1 2.71-4.1c1.36 0 2.71 2.05 2.71 4.1s-1.35 4.1-2.71 4.1zM2001.4 623.481c-1.35 0-2.71-2.048-2.71-4.097 0-2.049 1.36-4.098 2.71-4.098 1.36 0 2.72 2.049 2.72 4.098 1.35 2.049 0 4.097-2.72 4.097zM1481.83 4610.51c-1.36 0-2.72-2.05-2.72-4.1s1.36-4.09 2.72-4.09c1.35 0 2.71 2.04 2.71 4.09 1.35 2.05 0 4.1-2.71 4.1zM1656.83 4151.56c-1.36 0-2.71-2.04-2.71-4.09s1.35-4.1 2.71-4.1c1.36 0 2.71 2.05 2.71 4.1s-1.35 4.09-2.71 4.09zM1728.73 3692.64c-1.36 0-2.71-2.05-2.71-4.1s1.35-4.1 2.71-4.1c1.36 0 2.71 2.05 2.71 4.1s-1.35 4.1-2.71 4.1zM1546.94 3616.82c-2.71 0-4.07-2.04-4.07-6.14s1.36-6.15 4.07-6.15c2.72 0 4.07 2.05 4.07 6.15 0 2.05-1.35 6.14-4.07 6.14zM2067.88 76.4428c-4.07 0-8.14-6.1465-8.14-12.293 0-6.1464 4.07-12.2929 8.14-12.2929s8.14 6.1465 8.14 12.2929c-1.36 8.1954-4.07 12.293-8.14 12.293zM1656.83 3270.58c-2.72 0-5.43-4.1-5.43-8.19 0-4.1 2.71-8.2 5.43-8.2 2.71 0 5.42 4.1 5.42 8.2 0 4.09-2.71 8.19-5.42 8.19zM1690.74 3600.43c-2.71 0-5.42-4.09-5.42-8.19s2.71-8.2 5.42-8.2c2.72 0 5.43 4.1 5.43 8.2s-2.71 8.19-5.43 8.19zM2196.75 3319.75c-1.35 0-2.71-2.05-2.71-4.1s1.36-4.1 2.71-4.1c1.36 0 2.72 2.05 2.72 4.1 1.35 2.05 0 4.1-2.72 4.1zM2073.31 4172.05c-1.36 0-2.72-2.05-2.72-4.09 0-2.05 1.36-4.1 2.72-4.1 1.35 0 2.71 2.05 2.71 4.1 1.36 2.04 0 4.09-2.71 4.09zM2024.47 3846.3c-1.36 0-2.72-2.05-2.72-4.1s1.36-4.1 2.72-4.1c1.35 0 2.71 2.05 2.71 4.1s-1.36 4.1-2.71 4.1zM1845.4 3821.71c-1.36 0-2.72-2.05-2.72-4.09 0-2.05 1.36-4.1 2.72-4.1 1.35 0 2.71 2.05 2.71 4.1 0 2.04-1.36 4.09-2.71 4.09zM2089.59 3608.63c-1.36 0-2.72-2.05-2.72-4.1s1.36-4.1 2.72-4.1c1.35 0 2.71 2.05 2.71 4.1 1.35 2.05 0 4.1-2.71 4.1zM1861.67 4026.59c-1.35 0-2.71-2.05-2.71-4.09 0-2.05 1.36-4.1 2.71-4.1 1.36 0 2.72 2.05 2.72 4.1 0 2.04-1.36 4.09-2.72 4.09zM2156.06 3500.04c-1.36 0-2.71-2.05-2.71-4.1s1.35-4.09 2.71-4.09c1.35 0 2.71 2.04 2.71 4.09s-1.36 4.1-2.71 4.1zM2137.06 3739.75c-2.71 0-5.42-4.1-5.42-8.19 0-4.1 2.71-8.2 5.42-8.2 2.72 0 5.43 4.1 5.43 8.2 0 4.09-2.71 8.19-5.43 8.19zM1850.82 3670.1c-2.71 0-5.42-4.09-5.42-8.19s2.71-8.2 5.42-8.2c2.72 0 5.43 4.1 5.43 8.2s-2.71 8.19-5.43 8.19zM1922.72 3532.83c-2.71 0-5.42-4.1-5.42-8.2s2.71-8.19 5.42-8.19c2.72 0 5.43 4.09 5.43 8.19s-1.36 8.2-5.43 8.2zM2014.97 3202.96c-2.71 0-5.43-4.1-5.43-8.2s2.72-8.19 5.43-8.19c2.71 0 5.43 4.09 5.43 8.19s-1.36 8.2-5.43 8.2zM2048.89 3420.15c-2.72 0-4.07-2.05-4.07-6.15 0-4.1 1.35-6.15 4.07-6.15 2.71 0 4.07 2.05 4.07 6.15 0 4.1-2.72 6.15-4.07 6.15zM1514.39 3788.92c-1.36 0-2.72-2.05-2.72-4.1s1.36-4.09 2.72-4.09c1.35 0 2.71 2.04 2.71 4.09 1.36 2.05 0 4.1-2.71 4.1zM1415.35 2576.02c-2.71 0-5.42-4.1-5.42-8.2 0-4.09 2.71-8.19 5.42-8.19 2.72 0 5.43 4.1 5.43 8.19 0 4.1-1.36 8.2-5.43 8.2zM1293.26 4172.05c-1.36 0-2.71-2.05-2.71-4.09 0-2.05 1.35-4.1 2.71-4.1 1.36 0 2.71 2.05 2.71 4.1 0 2.04-1.35 4.09-2.71 4.09zM1264.77 3340.23c-2.71 0-4.07-2.04-4.07-6.14s1.36-6.15 4.07-6.15 4.07 2.05 4.07 6.15c0 4.1-1.36 6.14-4.07 6.14zM1918.65 4559.29c-1.36 0-2.71-2.05-2.71-4.1s1.35-4.1 2.71-4.1c1.36 0 2.71 2.05 2.71 4.1 1.36 2.05 0 4.1-2.71 4.1zM1367.87 4698.61c-1.35 0-2.71-2.05-2.71-4.1s1.36-4.1 2.71-4.1c1.36 0 2.71 2.05 2.71 4.1s-1.35 4.1-2.71 4.1zM1583.57 4274.5c-2.71 0-5.42-4.09-5.42-8.19s2.71-8.2 5.42-8.2c2.72 0 5.43 4.1 5.43 8.2s-2.71 8.19-5.43 8.19zM1656.83 4358.5c-2.72 0-5.43-4.1-5.43-8.19 0-4.1 2.71-8.2 5.43-8.2 2.71 0 5.42 4.1 5.42 8.2 0 6.14-2.71 8.19-5.42 8.19zM1293.26 4290.89c-2.72 0-5.43-4.09-5.43-8.19s2.71-8.2 5.43-8.2c2.71 0 5.42 4.1 5.42 8.2s-2.71 8.19-5.42 8.19zM1690.74 4688.36c-2.71 0-5.42-4.1-5.42-8.2 0-4.09 2.71-8.19 5.42-8.19s5.43 4.1 5.43 8.19c0 6.15-2.72 8.2-5.43 8.2zM1325.82 4510.11c-2.72 0-4.07-2.05-4.07-6.15 0-4.09 1.35-6.14 4.07-6.14 2.71 0 4.07 2.05 4.07 6.14 0 4.1-1.36 6.15-4.07 6.15zM1758.57 4522.41c-2.71 0-4.07-2.05-4.07-6.15 0-4.09 1.36-6.14 4.07-6.14s4.07 2.05 4.07 6.14c0 4.1-1.36 6.15-4.07 6.15zM760.241 4610.51c-1.356 0-2.713-2.05-2.713-4.1s1.357-4.1 2.713-4.1c1.357 0 2.713 2.05 2.713 4.1 1.357 2.05 0 4.1-2.713 4.1zM1197.07 4559.29c-1.36 0-2.72-2.05-2.72-4.1s1.36-4.1 2.72-4.1c1.35 0 2.71 2.05 2.71 4.1 1.36 2.05 0 4.1-2.71 4.1zM861.988 4274.5c-2.713 0-5.426-4.09-5.426-8.19s2.713-8.2 5.426-8.2 5.427 4.1 5.427 8.2-2.714 8.19-5.427 8.19zM935.243 4358.5c-2.713 0-5.426-4.1-5.426-8.19 0-4.1 2.713-8.2 5.426-8.2s5.427 4.1 5.427 8.2c0 6.14-2.714 8.19-5.427 8.19zM969.158 4688.36c-2.713 0-5.426-4.1-5.426-8.2s2.713-8.19 5.426-8.19c2.714 0 5.427 4.09 5.427 8.19 0 6.15-2.713 8.2-5.427 8.2zM1036.99 4522.41c-2.72 0-4.07-2.05-4.07-6.15 0-4.09 1.35-6.14 4.07-6.14 2.71 0 4.07 2.05 4.07 6.14 0 4.1-1.36 6.15-4.07 6.15zM2196.75 4409.73c-1.35 0-2.71-2.05-2.71-4.1s1.36-4.1 2.71-4.1c1.36 0 2.72 2.05 2.72 4.1 1.35 2.05 0 4.1-2.72 4.1zM2089.59 4698.61c-1.36 0-2.72-2.05-2.72-4.1s1.36-4.1 2.72-4.1c1.35 0 2.71 2.05 2.71 4.1 1.35 2.05 0 4.1-2.71 4.1zM2156.06 4590.02c-1.36 0-2.71-2.05-2.71-4.09 0-2.05 1.35-4.1 2.71-4.1 1.35 0 2.71 2.05 2.71 4.1 0 2.04-1.36 4.09-2.71 4.09zM1365.16 2069.97c-4.07 0-8.14-6.15-8.14-12.3 0-6.14 4.07-12.29 8.14-12.29s8.14 6.15 8.14 12.29c-1.36 8.2-4.07 12.3-8.14 12.3z" fill="#fff"/><g opacity=".7" fill="#fff"><path opacity=".7" d="M1971.56 2301.49l-28.49 2.04-2.71 45.08-1.36-43.03-29.84-4.09 29.84-4.1 1.36-43.03 2.71 43.03 28.49 4.1z"/><path opacity=".7" d="M1953.92 2319.92l-12.21-14.34-13.56 14.34 10.85-18.44-12.21-20.49 13.57 16.39 13.56-16.39-10.85 20.49 10.85 18.44z"/></g><g opacity=".7" fill="#fff"><path opacity=".7" d="M2029.89 1836.4l-28.48 4.1-2.72 43.02-1.35-43.02-29.85-4.1 29.85-4.1 1.35-43.02 2.72 43.02 28.48 4.1z"/><path opacity=".7" d="M2012.26 1854.84l-13.57-14.34-12.21 14.34 9.5-18.44-10.85-20.49 13.56 18.44 12.21-18.44-9.49 20.49 10.85 18.44z"/></g><g opacity=".7" fill="#fff"><path opacity=".7" d="M1281.05 2133.48l-19 2.05-2.71 30.73v-30.73l-21.7-2.05 21.7-2.05v-30.73l2.71 30.73 19 2.05z"/><path opacity=".7" d="M1268.84 2145.78l-8.14-10.24-9.5 10.24 8.14-12.29-8.14-14.34 9.5 12.29 8.14-12.29-6.78 14.34 6.78 12.29z"/></g><g opacity=".7" fill="#fff"><path opacity=".7" d="M2069.23 1111.11l-18.99 2.05-2.71 30.73v-28.68l-21.71-4.1 21.71-2.05v-30.73l2.71 30.73 18.99 2.05z"/><path opacity=".7" d="M2057.03 1125.46l-8.14-10.24-9.5 10.24 6.78-14.34-6.78-14.34 8.14 12.29 9.5-12.29-6.79 14.34 6.79 14.34z"/></g><g opacity=".7" fill="#fff"><path opacity=".7" d="M2090.94 3016.52l-18.99 2.05-2.71 30.73v-30.73l-21.71-2.05 21.71-2.05v-30.73l2.71 30.73 18.99 2.05z"/><path opacity=".7" d="M2078.73 3030.87l-8.14-12.29-9.49 12.29 6.78-14.34-6.78-14.34 8.14 12.29 9.49-12.29-6.78 14.34 6.78 14.34z"/></g><g opacity=".7" fill="#fff"><path opacity=".7" d="M1359.73 3895.47l-27.13 4.1-4.07 43.03v-43.03l-31.2-4.1 31.2-4.09v-43.03l4.07 43.03 27.13 4.09z"/><path opacity=".7" d="M1343.45 3913.91l-13.56-14.34-13.57 14.34 10.85-18.44-10.85-20.49 13.57 18.44 12.21-18.44-9.5 20.49 10.85 18.44z"/></g><g opacity=".7" fill="#fff"><path opacity=".7" d="M2069.23 4192.56l-18.99 2.05-2.71 30.73v-30.73l-21.71-2.05 21.71-2.05v-30.73l2.71 30.73 18.99 2.05z"/><path opacity=".7" d="M2057.03 4204.86l-8.14-10.25-9.5 10.25 6.78-12.3-6.78-14.34 8.14 12.3 9.5-12.3-6.79 14.34 6.79 12.3z"/></g><g opacity=".7" fill="#fff"><path opacity=".7" d="M1617.49 3538.97l-20.35 2.05-1.36 30.74-1.36-30.74-20.35-2.05 20.35-2.04 1.36-30.74 1.36 30.74 20.35 2.04z"/><path opacity=".7" d="M1605.28 3551.27l-9.5-10.24-9.49 10.24 8.14-12.29-8.14-14.34 9.49 12.29 8.14-12.29-6.78 14.34 8.14 12.29z"/></g><g opacity=".7" fill="#fff"><path opacity=".7" d="M1491.32 3104.62l-20.35 2.05-1.35 30.73-1.36-30.73-20.35-2.05 20.35-2.05 1.36-30.73 1.35 30.73 20.35 2.05z"/><path opacity=".7" d="M1479.11 3116.92l-9.49-10.25-9.5 10.25 8.14-12.3-8.14-14.34 9.5 12.3 8.14-12.3-6.79 14.34 8.14 12.3z"/></g><g opacity=".7" fill="#fff"><path opacity=".7" d="M2028.54 3291.07l-19 4.1-2.71 28.68v-28.68l-21.71-4.1 21.71-2.05v-30.73l2.71 30.73 19 2.05z"/><path opacity=".7" d="M2016.33 3305.42l-8.14-10.24-9.5 10.24 6.79-12.29-6.79-16.39 8.14 12.29 9.5-12.29-6.78 14.34 6.78 14.34z"/></g><path opacity=".7" d="M530.056 3980.98c2.713 0 4.07 2.05 4.07 6.15 0 4.1-1.357 6.15-4.07 6.15s-4.07-2.05-4.07-6.15c0-2.05 1.357-6.15 4.07-6.15zM539.076 3729.32c1.357 0 2.713 2.05 2.713 4.1s-1.356 4.1-2.713 4.1c-1.356 0-2.713-2.05-2.713-4.1-1.357-2.05 0-4.1 2.713-4.1zM739.499 4244.14c1.356 0 2.713 2.04 2.713 4.09s-1.357 4.1-2.713 4.1-2.712-2.05-2.712-4.1 1.356-4.09 2.712-4.09zM675.042 1395.15c1.356 0 2.712 2.05 2.712 4.1s-1.356 4.1-2.712 4.1-2.712-2.05-2.712-4.1 1.356-4.1 2.712-4.1zM379.763 3663.1c1.356 0 2.712 2.05 2.712 4.1s-1.356 4.09-2.712 4.09c-1.357 0-2.713-2.04-2.713-4.09s1.356-4.1 2.713-4.1zM470.231 3678.63c1.356 0 2.712 2.05 2.712 4.1s-1.356 4.1-2.712 4.1-2.712-2.05-2.712-4.1 1.356-4.1 2.712-4.1zM642.775 3483.32c2.713 0 5.426 4.1 5.426 8.2 0 4.09-2.713 8.19-5.426 8.19s-5.426-4.1-5.426-8.19c0-6.15 2.713-8.2 5.426-8.2zM376.818 4506.15c2.714 0 5.427 4.1 5.427 8.19 0 4.1-2.713 8.2-5.427 8.2-2.713 0-5.426-4.1-5.426-8.2 0-4.09 2.713-8.19 5.426-8.19zM799.388 4657.29c2.714 0 5.427 4.1 5.427 8.19 0 4.1-2.713 8.2-5.427 8.2-2.713 0-5.426-4.1-5.426-8.2 0-6.14 2.713-8.19 5.426-8.19zM416.656 4226.23c2.713 0 5.427 4.1 5.427 8.19 0 4.1-2.714 8.2-5.427 8.2-2.713 0-5.426-4.1-5.426-8.2 0-4.09 2.713-8.19 5.426-8.19zM774.731 4435.75c2.713 0 4.069 2.04 4.069 6.14s-1.356 6.15-4.069 6.15-4.07-2.05-4.07-6.15c0-4.1 1.357-6.14 4.07-6.14zM236.721 4283.48c2.713 0 4.069 2.04 4.069 6.14s-1.356 6.15-4.069 6.15c-2.714 0-4.07-2.05-4.07-6.15 0-4.1 2.713-6.14 4.07-6.14zM207.527 2087.77c1.356 0 2.712 2.05 2.712 4.1s-1.356 4.1-2.712 4.1-2.712-2.05-2.712-4.1 0-4.1 2.712-4.1zM92.2826 3953.76c1.3562 0 2.7124 2.05 2.7124 4.1s-1.3562 4.09-2.7124 4.09-2.7124-2.04-2.7124-4.09 1.3562-4.1 2.7124-4.1zM261.241 3786.88c1.356 0 2.712 2.05 2.712 4.09 0 2.05-1.356 4.1-2.712 4.1s-2.712-2.05-2.712-4.1c0-2.04 1.356-4.09 2.712-4.09zM852.355 4165.04c1.356 0 2.712 2.05 2.712 4.1s-1.356 4.1-2.712 4.1-2.713-2.05-2.713-4.1 1.357-4.1 2.713-4.1zM164.306 2305.88c2.713 0 5.426 4.09 5.426 8.19s-2.713 8.2-5.426 8.2c-2.714 0-5.427-4.1-5.427-8.2 0-6.15 1.357-8.19 5.427-8.19zM722.463 4644.91c2.713 0 4.069 2.04 4.069 6.14s-1.356 6.15-4.069 6.15c-2.714 0-4.07-2.05-4.07-6.15 0-4.1 1.356-6.14 4.07-6.14zM751.858 3697.32c4.07 0 8.14 6.15 8.14 12.29 0 6.15-4.07 12.3-8.14 12.3s-8.139-6.15-8.139-12.3c1.356-6.14 4.069-12.29 8.139-12.29zM599.596 4052.24c1.357 0 2.713 2.05 2.713 4.1s-1.356 4.1-2.713 4.1c-1.356 0-2.713-2.05-2.713-4.1-1.357-2.05 0-4.1 2.713-4.1zM834.77 3818.91c1.356 0 2.713 2.05 2.713 4.1s-1.357 4.1-2.713 4.1-2.712-2.05-2.712-4.1 1.356-4.1 2.712-4.1zM597.525 1817.71c1.356 0 2.712 2.05 2.712 4.1s-1.356 4.1-2.712 4.1-2.712-2.05-2.712-4.1 1.356-4.1 2.712-4.1zM895.85 1718.74c1.356 0 2.712 2.05 2.712 4.1s-1.356 4.1-2.712 4.1c-1.357 0-2.713-2.05-2.713-4.1s1.356-4.1 2.713-4.1zM856.275 2335.18c1.356 0 2.712 2.05 2.712 4.1 0 2.04-1.356 4.09-2.712 4.09s-2.712-2.05-2.712-4.09c0-2.05 1.356-4.1 2.712-4.1zM769.043 1464.29c1.357 0 2.713 2.05 2.713 4.1s-1.356 4.1-2.713 4.1-2.713-2.05-2.713-4.1c-1.357-2.05 0-4.1 2.713-4.1zM779.486 1816.02c2.713 0 5.426 4.09 5.426 8.19s-2.713 8.2-5.426 8.2-5.426-4.1-5.426-8.2 2.713-8.19 5.426-8.19zM498.191 1932.79c2.713 0 5.427 4.1 5.427 8.2 0 4.09-2.714 8.19-5.427 8.19-2.713 0-5.426-4.1-5.426-8.19 0-4.1 2.713-8.2 5.426-8.2zM921.798 1829.58c1.356 0 2.712 2.05 2.712 4.1s-1.356 4.09-2.712 4.09-2.712-2.04-2.712-4.09 1.356-4.1 2.712-4.1zM173.818 1660.32c1.356 0 2.712 2.05 2.712 4.1s-1.356 4.1-2.712 4.1-2.712-2.05-2.712-4.1 1.356-4.1 2.712-4.1zM351.76 1699.35c1.356 0 2.713 2.04 2.713 4.09s-1.357 4.1-2.713 4.1-2.712-2.05-2.712-4.1 1.356-4.09 2.712-4.09zM100.357 1892.36c1.356 0 2.713 2.05 2.713 4.1 0 2.04-1.357 4.09-2.713 4.09-1.3568 0-2.7134-2.05-2.7134-4.09-1.3565-2.05.0001-4.1 2.7134-4.1zM57.4546 1757.6c2.7133 0 5.4265 4.1 5.4265 8.19 0 4.1-2.7132 8.2-5.4265 8.2-2.7132 0-5.4264-4.1-5.4264-8.2 0-4.09 2.7132-8.19 5.4264-8.19zM452.988 2134.31c2.713 0 5.426 4.1 5.426 8.2s-2.713 8.19-5.426 8.19c-2.714 0-5.427-4.09-5.427-8.19s2.713-8.2 5.427-8.2zM660.676 2257.8c1.356 0 2.712 2.05 2.712 4.1s-1.356 4.1-2.712 4.1-2.712-2.05-2.712-4.1 1.356-4.1 2.712-4.1zM832.855 4520.47c2.713 0 4.069 2.05 4.069 6.15 0 4.1-1.356 6.15-4.069 6.15-2.714 0-4.07-2.05-4.07-6.15 0-4.1 1.356-6.15 4.07-6.15zM571.605 2882.54c4.069 0 8.139 6.15 8.139 12.3 0 6.14-4.07 12.29-8.139 12.29-4.07 0-8.14-6.15-8.14-12.29 1.356-6.15 4.07-12.3 8.14-12.3zM554.613 3024.78c1.356 0 2.712 2.05 2.712 4.1s-1.356 4.1-2.712 4.1c-1.357 0-2.713-2.05-2.713-4.1s1.356-4.1 2.713-4.1zM223.258 3250.32c1.357 0 2.713 2.05 2.713 4.1s-1.356 4.1-2.713 4.1-2.713-2.05-2.713-4.1c-1.357-2.05 0-4.1 2.713-4.1zM853.009 2923.77c1.356 0 2.713 2.05 2.713 4.1s-1.357 4.1-2.713 4.1-2.712-2.05-2.712-4.1 1.356-4.1 2.712-4.1zM778.195 3155.72c1.357 0 2.713 2.05 2.713 4.1s-1.356 4.1-2.713 4.1c-1.356 0-2.712-2.05-2.712-4.1s1.356-4.1 2.712-4.1zM908.55 2622.55c1.356 0 2.712 2.05 2.712 4.1 0 2.04-1.356 4.09-2.712 4.09s-2.712-2.05-2.712-4.09c0-2.05 1.356-4.1 2.712-4.1zM709.244 3260.92c1.356 0 2.713 2.05 2.713 4.1s-1.357 4.1-2.713 4.1c-1.357 0-2.714-2.05-2.714-4.1-1.356-2.05.001-4.1 2.714-4.1zM508.926 2590.21c1.356 0 2.712 2.05 2.712 4.1s-1.356 4.1-2.712 4.1-2.712-2.05-2.712-4.1 1.356-4.1 2.712-4.1zM420.764 3044.73c1.357 0 2.713 2.05 2.713 4.1s-1.356 4.1-2.713 4.1c-1.356 0-2.712-2.05-2.712-4.1s1.356-4.1 2.712-4.1zM547.603 3561.78c2.713 0 5.426 4.1 5.426 8.2s-2.713 8.19-5.426 8.19c-2.714 0-5.427-4.09-5.427-8.19s2.713-8.2 5.427-8.2zM477.435 3471.99c2.713 0 5.426 4.1 5.426 8.19 0 4.1-2.713 8.2-5.426 8.2s-5.427-4.1-5.427-8.2c0-4.09 2.714-8.19 5.427-8.19zM838.084 3568.87c2.713 0 5.426 4.1 5.426 8.2 0 4.09-2.713 8.19-5.426 8.19-2.714 0-5.427-4.1-5.427-8.19 0-4.1 2.713-8.2 5.427-8.2zM455.279 3139.87c2.713 0 5.426 4.1 5.426 8.19 0 4.1-2.713 8.2-5.426 8.2s-5.427-4.1-5.427-8.2c0-4.09 2.714-8.19 5.427-8.19zM813.426 3347.35c2.713 0 4.069 2.04 4.069 6.14s-1.356 6.15-4.069 6.15-4.07-2.05-4.07-6.15c0-4.1 1.357-6.14 4.07-6.14zM678.586 2739.38c4.07 0 8.14 6.14 8.14 12.29 0 6.15-4.07 12.29-8.14 12.29s-8.14-6.14-8.14-12.29c0-8.19 2.714-12.29 8.14-12.29zM381.729 3300.1c2.713 0 4.07 2.05 4.07 6.14 0 4.1-1.357 6.15-4.07 6.15s-4.07-2.05-4.07-6.15c0-2.04 1.357-6.14 4.07-6.14zM220.803 3395.83c1.356 0 2.712 2.05 2.712 4.1s-1.356 4.1-2.712 4.1c-1.357 0-2.713-2.05-2.713-4.1s1.356-4.1 2.713-4.1zM130.978 2865.36c1.356 0 2.712 2.05 2.712 4.1s-1.356 4.09-2.712 4.09c-1.357 0-2.713-2.04-2.713-4.09s1.356-4.1 2.713-4.1zM308.918 2904.36c1.357 0 2.713 2.05 2.713 4.1s-1.356 4.1-2.713 4.1c-1.356 0-2.712-2.05-2.712-4.1s1.356-4.1 2.712-4.1zM57.5166 3097.39c1.3566 0 2.7132 2.05 2.7132 4.1s-1.3566 4.1-2.7132 4.1-2.7132-2.05-2.7132-4.1c-1.3566-2.05 0-4.1 2.7132-4.1zM302.649 2702.56c0-2.27-1.215-4.1-2.713-4.1s-2.712 1.83-2.712 4.1c0 2.26 1.214 4.09 2.712 4.09 1.498 0 2.713-1.83 2.713-4.09zM297.899 3057.37c2.713 0 5.427 4.09 5.427 8.19s-2.714 8.2-5.427 8.2c-2.713 0-5.426-4.1-5.426-8.2 0-6.14 2.713-8.19 5.426-8.19zM117.403 3510.56c2.713 0 5.427 4.1 5.427 8.2s-2.714 8.19-5.427 8.19c-2.713 0-5.426-4.09-5.426-8.19s1.356-8.2 5.426-8.2zM91.3904 3288.93c2.7132 0 4.0698 2.05 4.0698 6.15 0 4.09-1.3566 6.14-4.0698 6.14-2.7132 0-4.0698-2.05-4.0698-6.14 0-4.1 2.7132-6.15 4.0698-6.15zM281.4 3408.94c2.713 0 4.069 2.05 4.069 6.14 0 4.1-1.356 6.15-4.069 6.15-2.714 0-4.07-2.05-4.07-6.15 0-2.05 1.356-6.14 4.07-6.14zM202.301 3035.26c2.713 0 4.069 2.05 4.069 6.15 0 4.1-1.356 6.14-4.069 6.14-2.714 0-4.07-2.04-4.07-6.14 0-2.05 1.356-6.15 4.07-6.15zM258.623 3546.63c4.069 0 8.139 6.15 8.139 12.29 0 6.15-4.07 12.29-8.139 12.29-4.07 0-8.14-6.14-8.14-12.29 0-8.19 4.07-12.29 8.14-12.29zM743.591 2982.63c1.356 0 2.713 2.05 2.713 4.09 0 2.05-1.357 4.1-2.713 4.1s-2.712-2.05-2.712-4.1c0-2.04 1.356-4.09 2.712-4.09zM871.476 3434.11c2.713 0 4.07 2.05 4.07 6.15 0 4.1-1.357 6.15-4.07 6.15s-4.07-2.05-4.07-6.15c0-4.1 1.357-6.15 4.07-6.15zM82.1442 2748.56c1.3562 0 2.7124 2.05 2.7124 4.1s-1.3562 4.1-2.7124 4.1c-1.3561 0-2.7123-2.05-2.7123-4.1s1.3562-4.1 2.7123-4.1zM414.712 2824.71c4.07 0 8.14 6.14 8.14 12.29 0 6.15-4.07 12.29-8.14 12.29s-8.139-6.14-8.139-12.29c0-6.15 4.069-12.29 8.139-12.29z" fill="#fff"/><path opacity=".7" d="M294.299 2700.06c2.714 0 5.427 4.1 5.427 8.2 0 4.09-2.713 8.19-5.427 8.19-2.713 0-5.426-4.1-5.426-8.19 0-6.15 2.713-8.2 5.426-8.2zM89.3471 2541.91c2.7132 0 5.4264 4.1 5.4264 8.2s-2.7132 8.2-5.4264 8.2-5.4264-4.1-5.4264-8.2c0-6.15 2.7132-8.2 5.4264-8.2zM451.35 2638.91c2.713 0 5.427 4.1 5.427 8.2 0 4.09-2.714 8.19-5.427 8.19-2.713 0-5.426-4.1-5.426-8.19 0-4.1 2.713-8.2 5.426-8.2zM483.462 2501.98c2.714 0 4.07 2.05 4.07 6.15 0 4.1-1.356 6.15-4.07 6.15-2.713 0-4.069-2.05-4.069-6.15 0-2.05 2.713-6.15 4.069-6.15zM347.851 1893.95c-1.357 0-2.714-2.05-2.714-4.1s1.357-4.09 2.714-4.09c1.356 0 2.713 2.04 2.713 4.09 1.356 2.05 0 4.1-2.713 4.1zM394.893 2328.61c-1.357 0-2.713-2.05-2.713-4.1s1.356-4.1 2.713-4.1c1.356 0 2.712 2.05 2.712 4.1s-1.356 4.1-2.712 4.1zM62.3993 2250.4c-4.0698 0-8.1395-6.14-8.1395-12.29 0-6.15 4.0697-12.29 8.1395-12.29 4.0699 0 8.1397 6.14 8.1397 12.29 0 6.15-4.0698 12.29-8.1397 12.29zM167.245 1895.72c-2.714 0-5.427-4.1-5.427-8.19 0-4.1 2.713-8.2 5.427-8.2 2.713 0 5.426 4.1 5.426 8.2 0 4.09-2.713 8.19-5.426 8.19zM594.97 2012.4c-1.356 0-2.712-2.04-2.712-4.09s1.356-4.1 2.712-4.1c1.357 0 2.713 2.05 2.713 4.1s-1.356 4.09-2.713 4.09zM887.923 1954.03c-2.713 0-5.427-4.1-5.427-8.2s2.714-8.19 5.427-8.19c2.713 0 5.426 4.09 5.426 8.19s-1.356 8.2-5.426 8.2zM60.5333 3784.98c-1.3562 0-2.7124-2.04-2.7124-4.09s1.3562-4.1 2.7124-4.1 2.7124 2.05 2.7124 4.1-1.3562 4.09-2.7124 4.09zM212.984 2252.33c-2.713 0-5.426-4.1-5.426-8.2 0-4.09 2.713-8.19 5.426-8.19s5.426 4.1 5.426 8.19c0 4.1-2.713 8.2-5.426 8.2zM747.793 2494.63c-2.713 0-5.427-4.1-5.427-8.2s2.714-8.19 5.427-8.19c2.713 0 5.426 4.09 5.426 8.19 0 6.15-2.713 8.2-5.426 8.2zM606.574 2458.57c-4.07 0-8.14-6.15-8.14-12.3 0-6.14 4.07-12.29 8.14-12.29s8.14 6.15 8.14 12.29c-1.357 8.2-4.07 12.3-8.14 12.3zM638.431 932.613c2.713 0 4.069 2.049 4.069 6.147 0 4.097-1.356 6.146-4.069 6.146-2.714 0-4.07-2.049-4.07-6.146 0-2.049 1.356-6.147 4.07-6.147zM624.365 1062.77c1.356 0 2.713 2.05 2.713 4.1s-1.357 4.1-2.713 4.1-2.712-2.05-2.712-4.1 1.356-4.1 2.712-4.1zM647.451 680.948c1.356 0 2.713 2.049 2.713 4.098s-1.357 4.097-2.713 4.097c-1.357 0-2.713-2.048-2.713-4.097-1.357-2.049-.001-4.098 2.713-4.098zM922.689 963.802c1.356 0 2.712 2.049 2.712 4.098s-1.356 4.098-2.712 4.098c-1.357 0-2.713-2.049-2.713-4.098s1.356-4.098 2.713-4.098zM109.274 4125.42c1.357 0 2.714 2.05 2.714 4.1s-1.357 4.1-2.714 4.1c-1.356 0-2.713-2.05-2.713-4.1-1.356-2.05 0-4.1 2.713-4.1zM769.651 186.091c1.357 0 2.714 2.049 2.714 4.097 0 2.049-1.357 4.098-2.714 4.098-1.356 0-2.713-2.049-2.713-4.098-1.356-2.048 0-4.097 2.713-4.097zM578.606 630.26c1.356 0 2.712 2.049 2.712 4.098s-1.356 4.097-2.712 4.097-2.712-2.048-2.712-4.097c0-2.049 1.356-4.098 2.712-4.098zM490.517 1082.72c1.356 0 2.712 2.05 2.712 4.1s-1.356 4.1-2.712 4.1-2.712-2.05-2.712-4.1 1.356-4.1 2.712-4.1zM669.279 1173.11c2.713 0 4.069 2.05 4.069 6.14 0 4.1-1.356 6.15-4.069 6.15-2.714 0-4.07-2.05-4.07-6.15 0-2.04 1.356-6.14 4.07-6.14zM547.187 1509.97c2.713 0 5.426 4.1 5.426 8.2s-2.713 8.19-5.426 8.19-5.427-4.09-5.427-8.19 2.714-8.2 5.427-8.2zM525.031 1177.85c2.713 0 5.426 4.1 5.426 8.2s-2.713 8.2-5.426 8.2-5.427-4.1-5.427-8.2 2.714-8.2 5.427-8.2zM163.452 576.133c1.357 0 2.713 2.049 2.713 4.098 0 2.048-1.356 4.097-2.713 4.097s-2.713-2.049-2.713-4.097c-1.357-2.049 0-4.098 2.713-4.098zM200.657 905.386c1.356 0 2.712 2.049 2.712 4.098s-1.356 4.098-2.712 4.098-2.712-2.049-2.712-4.098 1.356-4.098 2.712-4.098zM378.601 944.405c1.356 0 2.712 2.049 2.712 4.097 0 2.049-1.356 4.098-2.712 4.098s-2.712-2.049-2.712-4.098c0-2.048 1.356-4.097 2.712-4.097zM127.196 1137.43c1.356 0 2.713 2.05 2.713 4.1s-1.357 4.1-2.713 4.1c-1.357 0-2.713-2.05-2.713-4.1-1.357-2.05 0-4.1 2.713-4.1zM369.618 738.504c1.357 0 2.713 2.049 2.713 4.097 0 2.049-1.356 4.098-2.713 4.098-1.356 0-2.712-2.049-2.712-4.098 0-2.048 1.356-4.097 2.712-4.097zM56.9619 1240.52c1.3562 0 2.7123 2.05 2.7123 4.09 0 2.05-1.3561 4.1-2.7123 4.1-1.3561 0-2.7123-2.05-2.7123-4.1 0-2.04 1.3562-4.09 2.7123-4.09zM84.2938 1002.68c2.7132 0 5.4264 4.1 5.4264 8.19 0 4.1-2.7132 8.2-5.4264 8.2-2.7133 0-5.4265-4.1-5.4265-8.2 0-4.09 2.7132-8.19 5.4265-8.19zM367.653 1095.35c2.713 0 5.426 4.1 5.426 8.2s-2.713 8.19-5.426 8.19-5.427-4.09-5.427-8.19 2.714-8.2 5.427-8.2zM290.982 1226.62c2.713 0 5.426 4.1 5.426 8.2s-2.713 8.19-5.426 8.19-5.427-4.09-5.427-8.19 1.357-8.2 5.427-8.2zM187.156 1548.57c2.713 0 5.426 4.09 5.426 8.19s-2.713 8.2-5.426 8.2-5.427-4.1-5.427-8.2 1.357-8.19 5.427-8.19zM161.071 1328.95c2.713 0 4.07 2.05 4.07 6.15 0 4.1-1.357 6.15-4.07 6.15s-4.07-2.05-4.07-6.15c0-4.1 2.713-6.15 4.07-6.15zM707.972 1003.87c1.356 0 2.713 2.05 2.713 4.1s-1.357 4.1-2.713 4.1c-1.357 0-2.714-2.05-2.714-4.1-1.356-2.05 0-4.1 2.714-4.1zM763.658 2223.05c2.714 0 5.427 4.1 5.427 8.19 0 4.1-2.713 8.2-5.427 8.2-2.713 0-5.426-4.1-5.426-8.2 0-4.09 1.357-8.19 5.426-8.19zM942.382 639.174c1.356 0 2.712 2.049 2.712 4.097 0 2.049-1.356 4.098-2.712 4.098-1.357 0-2.713-2.049-2.713-4.098 0-2.048 1.356-4.097 2.713-4.097zM941.228 1472.1c2.713 0 4.07 2.05 4.07 6.14 0 4.1-1.357 6.15-4.07 6.15s-4.07-2.05-4.07-6.15c0-4.09 1.357-6.14 4.07-6.14zM331.631 201.947c1.356 0 2.713 2.049 2.713 4.098s-1.357 4.098-2.713 4.098c-1.357 0-2.713-2.049-2.713-4.098-1.357-2.049 0-4.098 2.713-4.098zM886.568 107.35c1.356 0 2.712 2.048 2.712 4.097 0 2.049-1.356 4.098-2.712 4.098s-2.712-2.049-2.712-4.098 1.356-4.097 2.712-4.097zM655.976 513.41c2.713 0 5.427 4.097 5.427 8.195 0 4.097-2.714 8.195-5.427 8.195-2.713 0-5.426-4.098-5.426-8.195 0-4.098 2.713-8.195 5.426-8.195zM585.808 423.615c2.714 0 5.427 4.098 5.427 8.196s-2.713 8.195-5.427 8.195c-2.713 0-5.426-4.097-5.426-8.195 0-6.147 2.713-8.196 5.426-8.196zM946.456 520.498c2.714 0 5.427 4.098 5.427 8.196 0 4.097-2.713 8.195-5.427 8.195-2.713 0-5.426-4.098-5.426-8.195 0-4.098 2.713-8.196 5.426-8.196zM563.652 91.4935c2.714 0 5.427 4.0974 5.427 8.1949 0 4.0976-2.713 8.1946-5.427 8.1946-2.713 0-5.426-4.097-5.426-8.1946 0-6.1463 2.713-8.1949 5.426-8.1949zM921.798 298.97c2.714 0 4.07 2.049 4.07 6.147 0 4.097-1.356 6.146-4.07 6.146-2.713 0-4.069-2.049-4.069-6.146 0-4.098 1.356-6.147 4.069-6.147zM490.101 251.724c2.713 0 4.07 2.049 4.07 6.147 0 4.098-1.357 6.147-4.07 6.147s-4.07-2.049-4.07-6.147c0-4.098 1.357-6.147 4.07-6.147zM165.89 49.0215c1.356 0 2.713 2.0487 2.713 4.0975 0 2.0487-1.357 4.0974-2.713 4.0974-1.357 0-2.713-2.0487-2.713-4.0974-1.357-2.0488 0-4.0975 2.713-4.0975zM95.6559 152.099c1.3561 0 2.7123 2.049 2.7123 4.098s-1.3562 4.097-2.7123 4.097c-1.3562 0-2.7123-2.048-2.7123-4.097 0-2.049 1.3561-4.098 2.7123-4.098zM795.67 2732.42c4.07 0 8.14 6.15 8.14 12.3 0 6.14-4.07 12.29-8.14 12.29-4.069 0-8.139-6.15-8.139-12.29 1.356-8.2 4.07-12.3 8.139-12.3z" fill="#fff"/><g opacity=".7" fill="#fff"><path opacity=".7" d="M198.746 2454.78l28.489-2.05 2.713-45.07 1.357 43.03 29.845 4.09-29.845 4.1-1.357 43.03-2.713-43.03-28.489-4.1z"/><path opacity=".7" d="M216.382 2436.35l12.21 14.34 13.566-14.34-10.853 18.44 12.209 20.49-13.566-16.4-13.566 16.4 10.853-20.49-10.853-18.44z"/></g><g opacity=".7" fill="#fff"><path opacity=".7" d="M123.986 2914.49l28.489-4.1 2.713-43.02 1.356 43.02 29.846 4.1-29.846 4.1-1.356 43.02-2.713-43.02-28.489-4.1z"/><path opacity=".7" d="M141.622 2896.05l13.566 14.34 12.21-14.34-9.496 18.44 10.852 20.49-13.566-18.44-12.209 18.44 9.496-20.49-10.853-18.44z"/></g><g opacity=".7" fill="#fff"><path opacity=".7" d="M882.32 2677.57l18.992-2.05 2.713-30.74v30.74l21.706 2.05-21.706 2.04v30.74l-2.713-30.74-18.992-2.04z"/><path opacity=".7" d="M894.529 2665.27l8.139 10.24 9.496-10.24-8.139 12.29 8.139 14.34-9.496-12.29-8.139 12.29 6.783-14.34-6.783-12.29z"/></g><g opacity=".7" fill="#fff"><path opacity=".7" d="M58.9652 3634.79l18.9924-2.05 2.7132-30.73v28.68l21.7052 4.1-21.7052 2.05v30.73l-2.7132-30.73-18.9924-2.05z"/><path opacity=".7" d="M71.1743 3620.44l8.1396 10.25 9.4962-10.25-6.783 14.35 6.783 14.34-8.1396-12.29-9.4962 12.29 6.783-14.34-6.783-14.35z"/></g><g opacity=".7" fill="#fff"><path opacity=".7" d="M104.934 1730.36l18.992-2.05 2.713-30.73v30.73l21.706 2.05-21.706 2.05v30.73l-2.713-30.73-18.992-2.05z"/><path opacity=".7" d="M117.142 1716.01l8.14 12.3 9.496-12.3-6.783 14.34 6.783 14.35-8.14-12.3-9.496 12.3 6.783-14.35-6.783-14.34z"/></g><g opacity=".7" fill="#fff"><path opacity=".7" d="M866.286 912.513l27.132-4.097 4.07-43.026v43.026l31.202 4.097-31.202 4.098v43.026l-4.07-43.026-27.132-4.098z"/><path opacity=".7" d="M882.565 894.078l13.566 14.342 13.566-14.342-10.853 18.44 10.853 20.488-13.566-18.44-12.209 18.44 9.496-20.488-10.853-18.44z"/></g><g opacity=".7" fill="#fff"><path opacity=".7" d="M168.359 557.768l18.992-2.049 2.714-30.733v30.733l21.705 2.049-21.705 2.048v30.733l-2.714-30.733-18.992-2.048z"/><path opacity=".7" d="M180.568 545.467l8.139 10.245 9.496-10.245-6.783 12.293 6.783 14.342-8.139-12.293-9.496 12.293 6.783-14.342-6.783-12.293z"/></g><g opacity=".7" fill="#fff"><path opacity=".7" d="M596.261 1246.91l20.349-2.05 1.356-30.73 1.357 30.73 20.349 2.05-20.349 2.05-1.357 30.73-1.356-30.73-20.349-2.05z"/><path opacity=".7" d="M608.47 1234.61l9.496 10.24 9.496-10.24-8.139 12.29 8.139 14.34-9.496-12.29-8.14 12.29 6.783-14.34-8.139-12.29z"/></g><g opacity=".7" fill="#fff"><path opacity=".7" d="M706.823 1690.84l20.349-2.05 1.357-30.73 1.357 30.73 20.349 2.05-20.349 2.05-1.357 30.73-1.357-30.73-20.349-2.05z"/><path opacity=".7" d="M719.032 1678.54l9.496 10.24 9.496-10.24-8.139 12.29 8.139 14.34-9.496-12.29-8.14 12.29 6.783-14.34-8.139-12.29z"/></g><path opacity=".7" d="M1048.69 3980.99c2.72 0 4.07 2.04 4.07 6.14s-1.35 6.15-4.07 6.15c-2.71 0-4.06-2.05-4.06-6.15 0-2.05 1.35-6.14 4.06-6.14zM1057.72 3729.32c1.35 0 2.71 2.05 2.71 4.1s-1.36 4.1-2.71 4.1c-1.36 0-2.72-2.05-2.72-4.1-1.35-2.05 0-4.1 2.72-4.1zM1193.68 1395.15c1.36 0 2.71 2.05 2.71 4.1s-1.35 4.1-2.71 4.1c-1.36 0-2.71-2.05-2.71-4.1s1.35-4.1 2.71-4.1zM988.87 3678.63c1.356 0 2.712 2.05 2.712 4.1s-1.356 4.1-2.712 4.1-2.712-2.05-2.712-4.1 1.356-4.1 2.712-4.1zM1161.41 3483.32c2.72 0 5.43 4.1 5.43 8.2 0 4.09-2.71 8.19-5.43 8.19-2.71 0-5.42-4.1-5.42-8.19 0-6.15 2.71-8.2 5.42-8.2zM935.295 4226.23c2.713 0 5.426 4.1 5.426 8.19 0 4.1-2.713 8.2-5.426 8.2s-5.427-4.1-5.427-8.2c0-4.09 2.714-8.19 5.427-8.19zM1118.24 4052.24c1.35 0 2.71 2.05 2.71 4.1s-1.36 4.1-2.71 4.1c-1.36 0-2.72-2.05-2.72-4.1-1.35-2.05 0-4.1 2.72-4.1zM1116.16 1817.71c1.36 0 2.72 2.05 2.72 4.1s-1.36 4.1-2.72 4.1c-1.35 0-2.71-2.05-2.71-4.1s1.36-4.1 2.71-4.1zM1016.83 1932.79c2.71 0 5.43 4.1 5.43 8.2 0 4.09-2.72 8.19-5.43 8.19-2.71 0-5.43-4.1-5.43-8.19 0-4.1 2.72-8.2 5.43-8.2zM971.626 2134.31c2.713 0 5.426 4.1 5.426 8.2s-2.713 8.19-5.426 8.19c-2.714 0-5.427-4.09-5.427-8.19s2.713-8.2 5.427-8.2zM1179.31 2257.8c1.36 0 2.72 2.05 2.72 4.1s-1.36 4.1-2.72 4.1c-1.35 0-2.71-2.05-2.71-4.1s1.36-4.1 2.71-4.1zM1090.24 2882.54c4.07 0 8.14 6.15 8.14 12.3 0 6.14-4.07 12.29-8.14 12.29s-8.14-6.15-8.14-12.29c1.36-6.15 4.07-12.3 8.14-12.3zM1073.25 3024.78c1.36 0 2.71 2.05 2.71 4.1s-1.35 4.1-2.71 4.1c-1.35 0-2.71-2.05-2.71-4.1s1.36-4.1 2.71-4.1zM1227.88 3260.92c1.36 0 2.72 2.05 2.72 4.1s-1.36 4.1-2.72 4.1c-1.35 0-2.71-2.05-2.71-4.1-1.36-2.05 0-4.1 2.71-4.1zM1027.57 2590.21c1.35 0 2.71 2.05 2.71 4.1s-1.36 4.1-2.71 4.1c-1.36 0-2.72-2.05-2.72-4.1s1.36-4.1 2.72-4.1zM939.403 3044.73c1.357 0 2.713 2.05 2.713 4.1s-1.356 4.1-2.713 4.1c-1.356 0-2.712-2.05-2.712-4.1s1.356-4.1 2.712-4.1zM1066.24 3561.78c2.71 0 5.43 4.1 5.43 8.2s-2.72 8.19-5.43 8.19c-2.71 0-5.43-4.09-5.43-8.19s2.72-8.2 5.43-8.2zM996.073 3471.99c2.714 0 5.427 4.1 5.427 8.19 0 4.1-2.713 8.2-5.427 8.2-2.713 0-5.426-4.1-5.426-8.2 0-4.09 2.713-8.19 5.426-8.19zM973.917 3139.87c2.713 0 5.427 4.1 5.427 8.19 0 4.1-2.714 8.2-5.427 8.2-2.713 0-5.426-4.1-5.426-8.2 0-4.09 2.713-8.19 5.426-8.19zM1197.22 2739.38c4.07 0 8.14 6.14 8.14 12.29 0 6.15-4.07 12.29-8.14 12.29s-8.14-6.14-8.14-12.29c0-8.19 2.72-12.29 8.14-12.29zM933.35 2824.71c4.07 0 8.14 6.14 8.14 12.29 0 6.15-4.07 12.29-8.14 12.29s-8.139-6.14-8.139-12.29c0-6.15 4.069-12.29 8.139-12.29zM969.989 2638.91c2.713 0 5.426 4.1 5.426 8.2 0 4.09-2.713 8.19-5.426 8.19-2.714 0-5.427-4.1-5.427-8.19 0-4.1 2.713-8.2 5.427-8.2zM1002.1 2501.98c2.71 0 4.07 2.05 4.07 6.15 0 4.1-1.36 6.15-4.07 6.15-2.712 0-4.069-2.05-4.069-6.15 0-2.05 2.709-6.15 4.069-6.15zM913.531 2328.61c-1.357 0-2.713-2.05-2.713-4.1s1.356-4.1 2.713-4.1c1.356 0 2.712 2.05 2.712 4.1s-1.356 4.1-2.712 4.1zM1113.61 2012.4c-1.36 0-2.71-2.04-2.71-4.09s1.35-4.1 2.71-4.1c1.36 0 2.71 2.05 2.71 4.1s-1.35 4.09-2.71 4.09zM1125.21 2458.57c-4.07 0-8.14-6.15-8.14-12.3 0-6.14 4.07-12.29 8.14-12.29s8.14 6.15 8.14 12.29c-1.35 8.2-4.07 12.3-8.14 12.3zM1157.07 932.613c2.71 0 4.07 2.049 4.07 6.146 0 4.098-1.36 6.146-4.07 6.146-2.72 0-4.07-2.048-4.07-6.146 0-2.049 1.35-6.146 4.07-6.146zM1143 1062.77c1.36 0 2.71 2.05 2.71 4.1s-1.35 4.1-2.71 4.1c-1.35 0-2.71-2.05-2.71-4.1s1.36-4.1 2.71-4.1zM1166.09 680.948c1.36 0 2.71 2.049 2.71 4.098s-1.35 4.097-2.71 4.097c-1.36 0-2.71-2.048-2.71-4.097-1.36-2.049 0-4.098 2.71-4.098zM1097.24 630.26c1.36 0 2.72 2.049 2.72 4.098s-1.36 4.097-2.72 4.097c-1.35 0-2.71-2.048-2.71-4.097 0-2.049 1.36-4.098 2.71-4.098zM1009.16 1082.72c1.35 0 2.71 2.05 2.71 4.1s-1.36 4.1-2.71 4.1c-1.36 0-2.72-2.05-2.72-4.1s1.36-4.1 2.72-4.1zM1187.92 1173.11c2.71 0 4.07 2.05 4.07 6.14 0 4.1-1.36 6.15-4.07 6.15-2.72 0-4.07-2.05-4.07-6.15 0-2.04 1.35-6.14 4.07-6.14zM1065.83 1509.97c2.71 0 5.42 4.1 5.42 8.2s-2.71 8.19-5.42 8.19c-2.72 0-5.43-4.09-5.43-8.19s2.71-8.2 5.43-8.2zM1043.67 1177.85c2.71 0 5.43 4.1 5.43 8.2s-2.72 8.19-5.43 8.19c-2.71 0-5.43-4.09-5.43-8.19s2.72-8.2 5.43-8.2zM1226.61 1003.87c1.36 0 2.71 2.05 2.71 4.1s-1.35 4.1-2.71 4.1c-1.36 0-2.71-2.05-2.71-4.1-1.36-2.05 0-4.1 2.71-4.1zM1174.62 513.41c2.71 0 5.42 4.097 5.42 8.195s-2.71 8.195-5.42 8.195c-2.72 0-5.43-4.097-5.43-8.195s2.71-8.195 5.43-8.195zM1104.45 423.616c2.71 0 5.42 4.098 5.42 8.196 0 4.097-2.71 8.195-5.42 8.195-2.72 0-5.43-4.098-5.43-8.195 0-6.147 2.71-8.196 5.43-8.196zM1082.29 91.4932c2.71 0 5.43 4.0974 5.43 8.195 0 4.0978-2.72 8.1948-5.43 8.1948-2.71 0-5.43-4.097-5.43-8.1948 0-6.1463 2.72-8.195 5.43-8.195zM1008.74 251.725c2.71 0 4.07 2.049 4.07 6.146 0 4.098-1.36 6.147-4.07 6.147s-4.07-2.049-4.07-6.147c0-4.097 1.36-6.146 4.07-6.146z" fill="#fff"/><g opacity=".7" fill="#fff"><path opacity=".7" d="M1114.9 1246.91l20.35-2.05 1.35-30.73 1.36 30.73 20.35 2.05-20.35 2.05-1.36 30.73-1.35-30.73-20.35-2.05z"/><path opacity=".7" d="M1127.11 1234.61l9.49 10.24 9.5-10.24-8.14 12.29 8.14 14.34-9.5-12.29-8.14 12.29 6.79-14.34-8.14-12.29z"/></g><g opacity=".7" fill="#fff"><path opacity=".7" d="M1225.46 1690.84l20.35-2.05 1.36-30.73 1.35 30.73 20.35 2.05-20.35 2.05-1.35 30.73-1.36-30.73-20.35-2.05z"/><path opacity=".7" d="M1237.67 1678.54l9.5 10.24 9.49-10.24-8.14 12.29 8.14 14.34-9.49-12.29-8.14 12.29 6.78-14.34-8.14-12.29z"/></g><g opacity=".7" fill="#fff"><path opacity=".7" d="M176.996 1461.25l18.992-4.1 2.714-28.68v28.68l21.705 4.1-21.705 2.05v30.73l-2.714-30.73-18.992-2.05z"/><path opacity=".7" d="M189.205 1446.9l8.14 10.24 9.496-10.24-6.783 12.29 6.783 16.39-8.14-12.29-9.496 12.29 6.783-14.34-6.783-14.34z"/></g><g opacity=".7" fill="#fff"><path opacity=".7" d="M176.996 1461.25l18.992-4.1 2.714-28.68v28.68l21.705 4.1-21.705 2.05v30.73l-2.714-30.73-18.992-2.05zM865.751 1607l8.139 10.24 9.497-10.24-6.783 12.29 6.783 16.39-8.14-12.29-9.496 12.29 6.783-14.34-6.783-14.34z"/><g opacity=".7"><path opacity=".7" d="M361.54 1020.78l18.993-4.1 2.713-28.68v28.68l21.705 4.1-21.705 2.05v30.73l-2.713-30.73-18.993-2.05z"/><path opacity=".7" d="M373.749 1006.43l8.14 10.25 9.496-10.25-6.783 12.3 6.783 16.39-8.14-12.3-9.496 12.3 6.783-14.35-6.783-14.34z"/></g></g><path opacity=".7" d="M1238.98 5437.24c-1.36 0-2.72-2.05-2.72-4.1s1.36-4.09 2.72-4.09c1.35 0 2.71 2.04 2.71 4.09s-1.36 4.1-2.71 4.1zM1583.57 5201.63c-4.07 0-8.14-6.15-8.14-12.29 0-6.15 4.07-12.3 8.14-12.3s8.14 6.15 8.14 12.3c-1.36 6.14-4.07 12.29-8.14 12.29zM1595.78 5058.21c-1.36 0-2.71-2.05-2.71-4.1s1.35-4.1 2.71-4.1c1.36 0 2.71 2.05 2.71 4.1s-1.35 4.1-2.71 4.1zM1918.65 4806.2c-1.36 0-2.71-2.04-2.71-4.09s1.35-4.1 2.71-4.1c1.36 0 2.71 2.05 2.71 4.1 1.36 2.05 0 4.09-2.71 4.09zM1301.4 5183.18c-1.36 0-2.71-2.05-2.71-4.1s1.35-4.09 2.71-4.09c1.36 0 2.71 2.04 2.71 4.09s-1.35 4.1-2.71 4.1zM1367.87 4945.52c-1.36 0-2.71-2.05-2.71-4.1s1.35-4.09 2.71-4.09c1.36 0 2.71 2.04 2.71 4.09s-1.35 4.1-2.71 4.1zM1256.63 5488.46c-1.36 0-2.71-2.05-2.71-4.09 0-2.05 1.35-4.1 2.71-4.1 1.36 0 2.71 2.05 2.71 4.1 0 2.04-1.35 4.09-2.71 4.09zM1432.99 4834.88c-1.36 0-2.71-2.05-2.71-4.1s1.35-4.1 2.71-4.1c1.36 0 2.71 2.05 2.71 4.1 1.36 2.05 0 4.1-2.71 4.1zM1656.83 5488.46c-1.36 0-2.71-2.05-2.71-4.09 0-2.05 1.35-4.1 2.71-4.1 1.36 0 2.71 2.05 2.71 4.1 0 2.04-1.35 4.09-2.71 4.09zM1728.73 5027.47c-1.36 0-2.71-2.05-2.71-4.1 0-2.04 1.35-4.09 2.71-4.09 1.36 0 2.71 2.05 2.71 4.09 0 2.05-1.35 4.1-2.71 4.1zM1690.74 4935.27c-2.71 0-5.42-4.1-5.42-8.2 0-4.09 2.71-8.19 5.42-8.19s5.43 4.1 5.43 8.19c0 4.1-2.72 8.2-5.43 8.2zM1481.83 5353.23c-4.07 0-8.14-6.14-8.14-12.29 0-6.15 4.07-12.29 8.14-12.29 4.06 0 8.13 6.14 8.13 12.29 0 8.19-2.71 12.29-8.13 12.29zM1758.57 4769.33c-2.71 0-4.07-2.05-4.07-6.15 0-4.1 1.36-6.15 4.07-6.15s4.07 2.05 4.07 6.15c0 2.05-1.36 6.15-4.07 6.15zM2024.47 5183.18c-1.36 0-2.72-2.05-2.72-4.1s1.36-4.1 2.72-4.1c1.35 0 2.71 2.05 2.71 4.1s-1.36 4.1-2.71 4.1zM1845.4 5158.61c-1.36 0-2.72-2.05-2.72-4.1s1.36-4.1 2.72-4.1c1.35 0 2.71 2.05 2.71 4.1s-1.36 4.1-2.71 4.1zM2089.59 4945.52c-1.36 0-2.72-2.05-2.72-4.1s1.36-4.09 2.72-4.09c1.35 0 2.71 2.04 2.71 4.09 1.35 2.05 0 4.1-2.71 4.1zM1858.96 5359.39c0 2.27 1.22 4.1 2.71 4.1 1.5 0 2.72-1.83 2.72-4.1 0-2.26-1.22-4.1-2.72-4.1-1.49 0-2.71 1.84-2.71 4.1zM2156.06 4836.94c-1.36 0-2.71-2.05-2.71-4.1s1.35-4.1 2.71-4.1c1.35 0 2.71 2.05 2.71 4.1s-1.36 4.1-2.71 4.1zM2137.06 5074.6c-2.71 0-5.42-4.09-5.42-8.19s2.71-8.2 5.42-8.2c2.72 0 5.43 4.1 5.43 8.2s-2.71 8.19-5.43 8.19zM1850.82 5004.94c-2.71 0-5.42-4.1-5.42-8.2s2.71-8.19 5.42-8.19c2.72 0 5.43 4.09 5.43 8.19 0 6.15-2.71 8.2-5.43 8.2zM1922.72 4867.66c-2.71 0-5.42-4.1-5.42-8.19 0-4.1 2.71-8.2 5.42-8.2s5.43 4.1 5.43 8.2c0 6.14-1.36 8.19-5.43 8.19zM1947.14 5019.28c-2.71 0-4.07-2.05-4.07-6.14 0-4.1 1.36-6.15 4.07-6.15s4.07 2.05 4.07 6.15c0 2.05-1.36 6.14-4.07 6.14zM1408.57 5115.57c-1.36 0-2.71-2.05-2.71-4.1 0-2.04 1.35-4.09 2.71-4.09 1.36 0 2.71 2.05 2.71 4.09 0 2.05-1.35 4.1-2.71 4.1zM2077.38 5295.86c-1.36 0-2.72-2.04-2.72-4.09s1.36-4.1 2.72-4.1c1.35 0 2.71 2.05 2.71 4.1s-1.36 4.09-2.71 4.09zM1742.29 5246.71c-4.07 0-8.14-6.15-8.14-12.3 0-6.14 4.07-12.29 8.14-12.29s8.14 6.15 8.14 12.29c0 6.15-4.07 12.3-8.14 12.3z" fill="#fff"/><path opacity=".7" d="M1867.1 5361.44c-2.71 0-5.43-4.1-5.43-8.2 0-4.09 2.72-8.19 5.43-8.19 2.71 0 5.43 4.1 5.43 8.19 0 6.15-2.72 8.2-5.43 8.2zM2077.37 5502.8c-2.71 0-5.42-4.1-5.42-8.19 0-4.1 2.71-8.2 5.42-8.2 2.72 0 5.43 4.1 5.43 8.2 0 6.14-2.71 8.19-5.43 8.19zM1712.45 5435.19c-2.72 0-5.43-4.1-5.43-8.2 0-4.09 2.71-8.19 5.43-8.19 2.71 0 5.42 4.1 5.42 8.19 0 4.1-2.71 8.2-5.42 8.2zM1365.16 5369.64c-4.07 0-8.14-6.15-8.14-12.3 0-6.14 4.07-12.29 8.14-12.29s8.14 6.15 8.14 12.29c-1.36 8.2-4.07 12.3-8.14 12.3z" fill="#fff"/><g opacity=".7" fill="#fff"><path opacity=".7" d="M2029.89 5136.07l-28.48 4.1-2.72 43.02-1.35-43.02-29.85-4.1 29.85-4.1 1.35-43.02 2.72 43.02 28.48 4.1z"/><path opacity=".7" d="M2012.26 5154.51l-13.57-14.34-12.21 14.34 9.5-18.44-10.85-20.49 13.56 18.44 12.21-18.44-9.49 20.49 10.85 18.44z"/></g><g opacity=".7" fill="#fff"><path opacity=".7" d="M1281.05 5433.15l-19 2.05-2.71 30.73v-30.73l-21.7-2.05 21.7-2.05v-30.73l2.71 30.73 19 2.05z"/><path opacity=".7" d="M1268.84 5445.45l-8.14-10.24-9.5 10.24 8.14-12.29-8.14-14.34 9.5 12.29 8.14-12.29-6.78 14.34 6.78 12.29z"/></g><path opacity=".7" d="M207.528 5387.44c1.356 0 2.712 2.05 2.712 4.1s-1.356 4.1-2.712 4.1c-1.357 0-2.713-2.05-2.713-4.1s0-4.1 2.713-4.1zM597.526 5117.38c1.356 0 2.712 2.05 2.712 4.1s-1.356 4.1-2.712 4.1-2.713-2.05-2.713-4.1 1.357-4.1 2.713-4.1zM895.85 5018.41c1.356 0 2.713 2.05 2.713 4.1s-1.357 4.09-2.713 4.09-2.712-2.04-2.712-4.09 1.356-4.1 2.712-4.1zM769.043 4763.96c1.357 0 2.713 2.05 2.713 4.1s-1.356 4.1-2.713 4.1-2.713-2.05-2.713-4.1c-1.357-2.05 0-4.1 2.713-4.1zM779.486 5115.68c2.713 0 5.426 4.1 5.426 8.2s-2.713 8.19-5.426 8.19-5.426-4.09-5.426-8.19 2.713-8.2 5.426-8.2zM498.191 5232.46c2.713 0 5.426 4.1 5.426 8.2s-2.713 8.19-5.426 8.19c-2.714 0-5.427-4.09-5.427-8.19s2.713-8.2 5.427-8.2zM921.798 5129.25c1.357 0 2.713 2.05 2.713 4.1s-1.356 4.09-2.713 4.09c-1.356 0-2.712-2.04-2.712-4.09s1.356-4.1 2.712-4.1zM173.818 4959.99c1.356 0 2.712 2.05 2.712 4.1s-1.356 4.1-2.712 4.1-2.712-2.05-2.712-4.1 1.356-4.1 2.712-4.1zM351.761 4999.01c1.356 0 2.712 2.05 2.712 4.1s-1.356 4.1-2.712 4.1-2.713-2.05-2.713-4.1 1.357-4.1 2.713-4.1zM100.356 5192.03c1.357 0 2.713 2.05 2.713 4.1s-1.356 4.09-2.713 4.09c-1.3564 0-2.713-2.04-2.713-4.09-1.3566-2.05 0-4.1 2.713-4.1zM57.4553 5057.27c2.7132 0 5.4264 4.1 5.4264 8.19 0 4.1-2.7132 8.2-5.4264 8.2-2.7133 0-5.4265-4.1-5.4265-8.2 0-4.09 2.7132-8.19 5.4265-8.19zM452.987 5433.98c2.713 0 5.426 4.1 5.426 8.2s-2.713 8.19-5.426 8.19c-2.714 0-5.427-4.09-5.427-8.19s2.713-8.2 5.427-8.2zM347.852 5193.62c-1.357 0-2.714-2.05-2.714-4.1s1.357-4.1 2.714-4.1c1.356 0 2.713 2.05 2.713 4.1 1.356 2.05 0 4.1-2.713 4.1zM62.3989 5550.07c-4.0698 0-8.1396-6.15-8.1396-12.29 0-6.15 4.0698-12.29 8.1396-12.29s8.1396 6.14 8.1396 12.29c0 6.14-4.0698 12.29-8.1396 12.29zM167.243 5195.39c-2.713 0-5.426-4.1-5.426-8.19 0-4.1 2.713-8.2 5.426-8.2 2.714 0 5.427 4.1 5.427 8.2 0 4.09-2.713 8.19-5.427 8.19zM594.97 5312.07c-1.356 0-2.712-2.04-2.712-4.09s1.356-4.1 2.712-4.1 2.713 2.05 2.713 4.1-1.357 4.09-2.713 4.09zM887.922 5253.7c-2.713 0-5.426-4.1-5.426-8.2s2.713-8.19 5.426-8.19 5.426 4.09 5.426 8.19-1.356 8.2-5.426 8.2zM212.984 5552c-2.713 0-5.426-4.1-5.426-8.2 0-4.09 2.713-8.19 5.426-8.19s5.426 4.1 5.426 8.19c0 4.1-2.713 8.2-5.426 8.2zM547.187 4809.64c2.714 0 5.427 4.1 5.427 8.2 0 4.09-2.713 8.19-5.427 8.19-2.713 0-5.426-4.1-5.426-8.19 0-4.1 2.713-8.2 5.426-8.2zM763.658 5522.72c2.713 0 5.426 4.1 5.426 8.19 0 4.1-2.713 8.2-5.426 8.2s-5.426-4.1-5.426-8.2c0-4.09 1.356-8.19 5.426-8.19zM941.228 4771.77c2.714 0 4.07 2.04 4.07 6.14s-1.356 6.15-4.07 6.15c-2.713 0-4.07-2.05-4.07-6.15 0-4.1 1.357-6.14 4.07-6.14z" fill="#fff"/><g opacity=".7" fill="#fff"><path opacity=".7" d="M104.934 5030.03l18.992-2.05 2.714-30.73v30.73l21.705 2.05-21.705 2.05v30.73l-2.714-30.73-18.992-2.05z"/><path opacity=".7" d="M117.142 5015.68l8.139 12.3 9.496-12.3-6.783 14.34 6.783 14.35-8.139-12.3-9.496 12.3 6.783-14.35-6.783-14.34z"/></g><g opacity=".7" fill="#fff"><path opacity=".7" d="M706.823 4990.51l20.349-2.05 1.357-30.74 1.357 30.74 20.349 2.05-20.349 2.04-1.357 30.74-1.357-30.74-20.349-2.04z"/><path opacity=".7" d="M719.032 4978.21l9.496 10.24 9.496-10.24-8.139 12.29 8.139 14.34-9.496-12.29-8.139 12.29 6.783-14.34-8.14-12.29z"/></g><path opacity=".7" d="M1116.16 5117.38c1.36 0 2.72 2.05 2.72 4.1s-1.36 4.1-2.72 4.1c-1.35 0-2.71-2.05-2.71-4.1s1.36-4.1 2.71-4.1zM1016.83 5232.46c2.71 0 5.43 4.1 5.43 8.2s-2.72 8.19-5.43 8.19c-2.71 0-5.43-4.09-5.43-8.19s2.72-8.2 5.43-8.2zM971.625 5433.98c2.713 0 5.427 4.1 5.427 8.2s-2.714 8.19-5.427 8.19c-2.713 0-5.426-4.09-5.426-8.19s2.713-8.2 5.426-8.2zM1113.61 5312.07c-1.36 0-2.71-2.05-2.71-4.09 0-2.05 1.35-4.1 2.71-4.1 1.36 0 2.71 2.05 2.71 4.1 0 2.04-1.35 4.09-2.71 4.09zM1065.83 4809.64c2.71 0 5.42 4.1 5.42 8.2 0 4.09-2.71 8.19-5.42 8.19-2.72 0-5.43-4.1-5.43-8.19 0-4.1 2.71-8.2 5.43-8.2z" fill="#fff"/><g opacity=".7" fill="#fff"><path opacity=".7" d="M1225.46 4990.51l20.35-2.05 1.36-30.74 1.35 30.74 20.35 2.05-20.35 2.04-1.35 30.74-1.36-30.74-20.35-2.04z"/><path opacity=".7" d="M1237.67 4978.21l9.5 10.24 9.49-10.24-8.14 12.29 8.14 14.34-9.49-12.29-8.14 12.29 6.78-14.34-8.14-12.29z"/></g><g opacity=".7" fill="#fff"><path opacity=".7" d="M176.997 4760.92l18.993-4.1 2.713-28.69v28.69l21.705 4.1-21.705 2.04v30.74l-2.713-30.74-18.993-2.04z"/><path opacity=".7" d="M189.206 4746.57l8.139 10.24 9.496-10.24-6.783 12.29 6.783 16.39-8.139-12.29-9.496 12.29 6.783-14.34-6.783-14.34z"/></g></svg>