<svg width="32" height="32" viewBox="0 0 32 32" fill="none" xmlns="http://www.w3.org/2000/svg">
<circle cx="16" cy="16" r="10" fill="#FBCE36"/>
<path fill-rule="evenodd" clip-rule="evenodd" d="M24 16C24 20.4183 20.4183 24 16 24C14.7442 24 13.556 23.7107 12.4984 23.195C10.6514 22.2944 8.4165 21.7343 6.63692 22.7617C4.54764 23.968 3.90751 26.75 5.76047 28.2949C8.53513 30.6082 12.105 32 16 32C24.8366 32 32 24.8366 32 16C32 7.16344 24.8366 0 16 0C7.16344 0 0 7.16344 0 16C0 17.7213 1.89334 18.5722 3.38402 17.7116L6.00612 16.1977C7.29981 15.4508 8.08423 14.098 8.6946 12.7346C9.9438 9.94413 12.7449 8 16 8C20.4183 8 24 11.5817 24 16Z" fill="#332D57"/>
</svg>
