<svg width="22" height="22" viewBox="0 0 22 22" fill="none" xmlns="http://www.w3.org/2000/svg">
<path opacity="0.7" d="M10.9254 21.8507C16.9593 21.8507 21.8507 16.9593 21.8507 10.9254C21.8507 4.89145 16.9593 0 10.9254 0C4.89145 0 0 4.89145 0 10.9254C0 16.9593 4.89145 21.8507 10.9254 21.8507Z" fill="#E778C1"/>
<path opacity="0.7" d="M11.0666 20.744C17.0703 20.744 21.9373 16.3417 21.9373 10.9112C21.9373 5.48066 17.0703 1.07835 11.0666 1.07835C5.06286 1.07835 0.195862 5.48066 0.195862 10.9112C0.195862 16.3417 5.06286 20.744 11.0666 20.744Z" fill="#2F0039"/>
<path d="M14.6789 7.15115H6.1347C5.72437 7.15115 5.39172 7.5135 5.39172 7.96047V14.0303C5.39172 14.4773 5.72437 14.8396 6.1347 14.8396H14.6789C15.0893 14.8396 15.4219 14.4773 15.4219 14.0303V7.96047C15.4219 7.5135 15.0893 7.15115 14.6789 7.15115Z" fill="black"/>
<path d="M14.6789 7.15115H6.1347C5.72437 7.15115 5.39172 7.5135 5.39172 7.96047V14.0303C5.39172 14.4773 5.72437 14.8396 6.1347 14.8396H14.6789C15.0893 14.8396 15.4219 14.4773 15.4219 14.0303V7.96047C15.4219 7.5135 15.0893 7.15115 14.6789 7.15115Z" fill="white"/>
<path fill-rule="evenodd" clip-rule="evenodd" d="M6.1347 7.15115H14.6789C15.0893 7.15115 15.4219 7.5135 15.4219 7.96047V9.17444H5.39172V7.96047C5.39172 7.5135 5.72437 7.15115 6.1347 7.15115Z" fill="#FFE6F6"/>
<path d="M13.2835 6.91742C14.2084 7.51865 14.6709 7.81926 14.7534 8.23233C14.7792 8.36159 14.7792 8.49468 14.7534 8.62395C14.6709 9.03702 14.2084 9.33763 13.2835 9.93886L11.0806 11.3707C10.8305 11.5333 10.4997 11.3538 10.4997 11.0555C10.4997 10.9231 10.5693 10.8005 10.683 10.7326L11.7482 10.0968C13.0001 9.34944 13.6261 8.97578 13.6332 8.41654C13.6403 7.8573 13.0241 7.46781 11.7916 6.68883L10.6484 5.96626C10.5558 5.90774 10.4997 5.80587 10.4997 5.69635C10.4997 5.443 10.7806 5.29055 10.993 5.42862L13.2835 6.91742Z" fill="#E778C1"/>
<line x1="13.8037" y1="10.9983" x2="17.4117" y2="10.9983" stroke="#E778C1" stroke-width="1.5" stroke-linecap="round"/>
</svg>
